<?xml version="1.0" encoding="utf-8"?>
<!-- Generator: Adobe Illustrator 24.3.0, SVG Export Plug-In . SVG Version: 6.00 Build 0)  -->
<svg version="1.1" id="illustrations" xmlns="http://www.w3.org/2000/svg" xmlns:xlink="http://www.w3.org/1999/xlink" x="0px"
	 y="0px" viewBox="0 0 2500 2500" style="enable-background:new 0 0 2500 2500;" xml:space="preserve">
<style type="text/css">
	.st0{fill:#F299AC;}
	.st1{fill:#98DAF4;}
	.st2{fill:#B0ECFF;}
	.st3{fill:#F4D862;}
	.st4{fill:#FFFFFF;}
	.st5{fill:#82C0E0;}
	.st6{fill:none;stroke:#B6FCFF;stroke-width:4.4199;stroke-linecap:round;stroke-linejoin:round;stroke-miterlimit:10;}
	.st7{fill:none;stroke:#1B2638;stroke-width:4.4199;stroke-miterlimit:10;}
	.st8{fill:#FFF27D;}
	.st9{fill:none;stroke:#1B2638;stroke-width:4.4199;stroke-linecap:round;stroke-linejoin:round;stroke-miterlimit:10;}
	.st10{fill:#65ABE0;}
	.st11{fill:#1B2638;}
	.st12{fill:#4B8CC6;}
	.st13{fill:#DAE4EA;}
	.st14{fill:#F9B9CE;}
	.st15{fill:#253544;}
	.st16{fill:none;stroke:#FFFFFF;stroke-width:4.4199;stroke-linecap:round;stroke-linejoin:round;}
	.st17{fill:none;stroke:#FFFFFF;stroke-width:4.4199;stroke-linecap:round;stroke-linejoin:round;stroke-dasharray:13.494,13.494;}
	.st18{fill:#E5889A;}
	.st19{fill:none;stroke:#FFFFFF;stroke-width:4.4199;stroke-linecap:round;stroke-linejoin:round;stroke-miterlimit:10;}
	.st20{fill:none;stroke:#98DAF4;stroke-width:4.4199;stroke-miterlimit:10;}
	.st21{fill:none;stroke:#65ABE0;stroke-width:4.4199;stroke-miterlimit:10;}
	.st22{fill:#FFFFFF;stroke:#2A353F;stroke-width:3.3149;stroke-linecap:round;stroke-linejoin:round;stroke-miterlimit:10;}
	.st23{fill:none;stroke:#B6FCFF;stroke-width:4.4199;stroke-miterlimit:10;}
	.st24{fill:none;stroke:#1B2638;stroke-width:1.105;stroke-linecap:round;stroke-linejoin:round;stroke-miterlimit:10;}
	.st25{fill:#B6FCFF;}
	.st26{fill:none;stroke:#98DAF4;stroke-width:4.4199;stroke-linecap:round;stroke-linejoin:round;stroke-miterlimit:10;}
	.st27{fill:none;stroke:#B0ECFF;stroke-width:4.4199;stroke-miterlimit:10;}
	.st28{fill:none;stroke:#B0ECFF;stroke-width:4;stroke-linecap:round;stroke-linejoin:round;stroke-miterlimit:10;}
	.st29{fill:none;stroke:#1B2638;stroke-width:4;stroke-linecap:round;stroke-linejoin:round;stroke-miterlimit:10;}
	.st30{fill:none;stroke:#98DAF4;stroke-width:4;stroke-miterlimit:10;}
	.st31{fill:none;stroke:#65ABE0;stroke-width:4;stroke-miterlimit:10;}
	.st32{fill:none;stroke:#FFFFFF;stroke-width:4;stroke-linecap:round;stroke-linejoin:round;stroke-miterlimit:10;}
	.st33{fill:none;stroke:#B6FCFF;stroke-width:4;stroke-linecap:round;stroke-linejoin:round;stroke-miterlimit:10;}
	.st34{fill:none;stroke:#1B2638;stroke-width:4;stroke-miterlimit:10;}
	.st35{fill:none;stroke:#1B2638;stroke-width:3;stroke-linecap:round;stroke-linejoin:round;stroke-miterlimit:10;}
	.st36{fill:#FFFFFF;stroke:#1B2638;stroke-width:4;stroke-linecap:round;stroke-linejoin:round;stroke-miterlimit:10;}
	.st37{fill:none;stroke:#65ABE0;stroke-width:4;stroke-linecap:round;stroke-linejoin:round;}
	.st38{fill:none;stroke:#65ABE0;stroke-width:4;stroke-linecap:round;stroke-linejoin:round;stroke-dasharray:12.2119,12.2119;}
	.st39{fill:none;stroke:#FFFFFF;stroke-width:4;stroke-miterlimit:10;}
	.st40{fill:#F4D862;stroke:#1B2638;stroke-width:4;stroke-linecap:round;stroke-linejoin:round;stroke-miterlimit:10;}
	.st41{fill:none;stroke:#65ABE0;stroke-width:4;stroke-linecap:round;stroke-linejoin:round;stroke-dasharray:11.8323,11.8323;}
	.st42{fill:none;stroke:#F4D862;stroke-width:5;stroke-miterlimit:10;}
	.st43{fill:none;stroke:#FFF27D;stroke-width:4;stroke-linecap:round;stroke-linejoin:round;stroke-miterlimit:10;}
	.st44{fill:none;stroke:#65ABE0;stroke-width:4;stroke-linecap:round;stroke-linejoin:round;stroke-dasharray:11.8497,11.8497;}
	.st45{fill:none;stroke:#1B2638;stroke-width:4.7246;stroke-linecap:round;stroke-linejoin:round;stroke-miterlimit:10;}
	.st46{fill:none;stroke:#1B2638;stroke-width:5.9057;stroke-linecap:round;stroke-linejoin:round;stroke-miterlimit:10;}
	.st47{fill:#EAB853;}
	.st48{fill:none;stroke:#98DAF4;stroke-width:4.7246;stroke-miterlimit:10;}
	.st49{fill:none;stroke:#65ABE0;stroke-width:4.7246;stroke-miterlimit:10;}
	.st50{fill:none;stroke:#65ABE0;stroke-width:4.7246;stroke-linecap:round;stroke-linejoin:round;}
	
		.st51{fill:none;stroke:#65ABE0;stroke-width:4.7246;stroke-linecap:round;stroke-linejoin:round;stroke-dasharray:14.7632,14.7632;}
	.st52{fill:none;stroke:#98DAF4;stroke-width:4.7246;stroke-linecap:round;stroke-linejoin:round;stroke-miterlimit:10;}
	.st53{fill:none;stroke:#FFF27D;stroke-width:4.7246;stroke-linecap:round;stroke-linejoin:round;stroke-miterlimit:10;}
	.st54{fill:none;stroke:#FFFFFF;stroke-width:5.9057;stroke-linecap:round;stroke-linejoin:round;stroke-miterlimit:10;}
	.st55{fill:none;stroke:#65ABE0;stroke-width:4.8739;stroke-miterlimit:10;}
	.st56{fill:none;stroke:#1B2638;stroke-width:4.8739;stroke-linecap:round;stroke-linejoin:round;stroke-miterlimit:10;}
	.st57{fill:none;stroke:#1B2638;stroke-width:4.8739;stroke-miterlimit:10;}
	.st58{fill:none;stroke:#B6FCFF;stroke-width:4.8739;stroke-linecap:round;stroke-linejoin:round;stroke-miterlimit:10;}
	.st59{fill:none;stroke:#FFF27D;stroke-width:6.0924;stroke-linecap:round;stroke-linejoin:round;stroke-miterlimit:10;}
	.st60{fill:none;stroke:#98DAF4;stroke-width:4.8739;stroke-miterlimit:10;}
	.st61{fill:none;stroke:#FFFFFF;stroke-width:4.8739;stroke-linecap:round;stroke-linejoin:round;stroke-miterlimit:10;}
	.st62{fill:none;stroke:#000000;stroke-width:1.2185;stroke-linecap:round;stroke-linejoin:round;stroke-miterlimit:10;}
	.st63{fill:none;stroke:#B0ECFF;stroke-width:4.8739;stroke-miterlimit:10;}
	.st64{fill:none;stroke:#1B2638;stroke-width:4.8739;stroke-linecap:round;stroke-linejoin:round;}
	
		.st65{fill:none;stroke:#1B2638;stroke-width:4.8739;stroke-linecap:round;stroke-linejoin:round;stroke-dasharray:13.9257,13.9257;}
	.st66{fill:none;stroke:#FFFFFF;stroke-width:6.0924;stroke-linecap:round;stroke-linejoin:round;stroke-miterlimit:10;}
	.st67{fill:none;stroke:#1B2638;stroke-width:4.4753;stroke-linecap:round;stroke-linejoin:round;stroke-miterlimit:10;}
	.st68{fill:none;stroke:#FFF27D;stroke-width:11.1884;stroke-linecap:round;stroke-linejoin:round;stroke-miterlimit:10;}
	.st69{fill:none;stroke:#FFFFFF;stroke-width:3.3565;stroke-miterlimit:10;}
	.st70{fill:none;stroke:#65ABE0;stroke-width:4.4753;stroke-miterlimit:10;}
	.st71{fill:none;stroke:#FFFFFF;stroke-width:4.4753;stroke-linecap:round;stroke-linejoin:round;stroke-miterlimit:10;}
	.st72{fill:none;stroke:#1B2638;stroke-width:3.3565;stroke-linecap:round;stroke-linejoin:round;stroke-miterlimit:10;}
	.st73{fill:none;stroke:#FFFFFF;stroke-width:3.3565;stroke-linecap:round;stroke-linejoin:round;stroke-miterlimit:10;}
	.st74{fill:none;stroke:#1B2638;stroke-width:5.0317;stroke-linecap:round;stroke-linejoin:round;stroke-miterlimit:10;}
	.st75{fill:none;stroke:#1B2638;stroke-width:4.4043;stroke-linecap:round;stroke-linejoin:round;stroke-miterlimit:10;}
	.st76{fill:none;stroke:#1B2638;stroke-width:4.9518;stroke-linecap:round;stroke-linejoin:round;stroke-miterlimit:10;}
	.st77{fill:none;stroke:#FFFFFF;stroke-width:4.9518;stroke-linecap:round;stroke-linejoin:round;stroke-miterlimit:10;}
	.st78{fill:none;stroke:#000000;stroke-width:1.1011;stroke-miterlimit:10;}
	.st79{fill:none;stroke:#98DAF4;stroke-width:12.1119;stroke-linecap:round;stroke-linejoin:round;stroke-miterlimit:10;}
	.st80{fill:none;stroke:#FFFFFF;stroke-width:4.4043;stroke-linecap:round;stroke-linejoin:round;stroke-miterlimit:10;}
	.st81{fill:none;stroke:#B6FCFF;stroke-width:4.9518;stroke-linecap:round;stroke-linejoin:round;stroke-miterlimit:10;}
	.st82{fill:none;stroke:#1B2638;stroke-width:15.4151;stroke-linecap:round;stroke-linejoin:round;stroke-miterlimit:10;}
	.st83{fill:none;stroke:#98DAF4;stroke-width:4.4043;stroke-miterlimit:10;}
	.st84{fill:none;stroke:#65ABE0;stroke-width:4.4043;stroke-miterlimit:10;}
	.st85{fill:none;stroke:#FFF27D;stroke-width:14.314;stroke-linecap:round;stroke-linejoin:round;stroke-miterlimit:10;}
	.st86{fill:none;stroke:#FFF27D;stroke-width:4.3371;stroke-linecap:round;stroke-linejoin:round;stroke-miterlimit:10;}
	.st87{fill:none;stroke:#65ABE0;stroke-width:4.3371;stroke-linecap:round;stroke-linejoin:round;stroke-miterlimit:10;}
	.st88{fill:#F9B7D2;}
	.st89{fill:none;stroke:#F299AC;stroke-width:6.5057;stroke-linecap:round;stroke-linejoin:round;stroke-miterlimit:10;}
	.st90{fill:none;stroke:#98DAF4;stroke-width:6.5057;stroke-linecap:round;stroke-linejoin:round;stroke-miterlimit:10;}
	.st91{fill:none;stroke:#98DAF4;stroke-width:3.2528;stroke-miterlimit:10;}
	.st92{fill:none;stroke:#F4D862;stroke-width:8.6743;stroke-linecap:round;stroke-linejoin:round;stroke-miterlimit:10;}
	.st93{fill:none;stroke:#1B2638;stroke-width:5.4214;stroke-linecap:round;stroke-linejoin:round;stroke-miterlimit:10;}
	.st94{fill:none;stroke:#1B2638;stroke-width:4.3371;stroke-linecap:round;stroke-linejoin:round;stroke-miterlimit:10;}
	.st95{fill:#B1F3FC;}
	.st96{fill:none;stroke:#98DAF4;stroke-width:4.3371;stroke-linecap:round;stroke-linejoin:round;stroke-miterlimit:10;}
	.st97{fill:none;stroke:#65ABE0;stroke-width:4.3371;stroke-miterlimit:10;}
	.st98{fill:none;stroke:#1B2638;stroke-width:4.8763;stroke-linecap:round;stroke-linejoin:round;stroke-miterlimit:10;}
	.st99{fill:none;stroke:#1B2638;stroke-width:1.0843;stroke-miterlimit:10;}
	.st100{fill:none;stroke:#FFFFFF;stroke-width:4.3371;stroke-linecap:round;stroke-linejoin:round;stroke-miterlimit:10;}
	.st101{fill:none;stroke:#FFFFFF;stroke-width:5.4643;stroke-linecap:round;stroke-linejoin:round;stroke-miterlimit:10;}
	.st102{fill:none;stroke:#1B2638;stroke-width:4.3714;stroke-linecap:round;stroke-linejoin:round;stroke-miterlimit:10;}
	.st103{fill:none;stroke:#98DAF4;stroke-width:4.3714;stroke-linecap:round;stroke-linejoin:round;stroke-miterlimit:10;}
	.st104{fill:none;stroke:#FFFFFF;stroke-width:4.3714;stroke-linecap:round;stroke-linejoin:round;stroke-miterlimit:10;}
	.st105{fill:none;stroke:#FFF27D;stroke-width:4.3714;stroke-linecap:round;stroke-linejoin:round;stroke-miterlimit:10;}
	.st106{fill:none;stroke:#65ABE0;stroke-width:4.3714;stroke-miterlimit:10;}
	.st107{fill:none;stroke:#000000;stroke-width:1.0929;stroke-miterlimit:10;}
	.st108{fill:none;stroke:#1B2638;stroke-width:22.9499;stroke-linecap:round;stroke-linejoin:round;stroke-miterlimit:10;}
	.st109{fill:none;stroke:#1B2638;stroke-width:12.0214;stroke-miterlimit:10;}
	.st110{fill:none;stroke:#1B2638;stroke-width:17.4857;stroke-linecap:round;stroke-linejoin:round;stroke-miterlimit:10;}
	.st111{fill:none;stroke:#1B2638;stroke-width:4.9148;stroke-linecap:round;stroke-linejoin:round;stroke-miterlimit:10;}
	.st112{fill:none;stroke:#FFFFFF;stroke-width:4.9148;stroke-linecap:round;stroke-linejoin:round;stroke-miterlimit:10;}
	.st113{fill:#CE6E84;}
	.st114{fill:none;stroke:#1B2638;stroke-width:4.5447;stroke-linecap:round;stroke-linejoin:round;stroke-miterlimit:10;}
	.st115{fill:none;stroke:#FFF27D;stroke-width:4.5447;stroke-linecap:round;stroke-linejoin:round;stroke-miterlimit:10;}
	.st116{fill:none;stroke:#B6FCFF;stroke-width:5.6809;stroke-linecap:round;stroke-linejoin:round;stroke-miterlimit:10;}
	.st117{fill:none;stroke:#1B2638;stroke-width:5.1097;stroke-linecap:round;stroke-linejoin:round;stroke-miterlimit:10;}
	.st118{fill:none;stroke:#1B2638;stroke-width:15.9065;stroke-linecap:round;stroke-linejoin:round;stroke-miterlimit:10;}
	.st119{fill:none;stroke:#FFFFFF;stroke-width:4.5447;stroke-linecap:round;stroke-linejoin:round;stroke-miterlimit:10;}
	.st120{fill:none;stroke:#1B2638;stroke-width:5.6809;stroke-linecap:round;stroke-linejoin:round;stroke-miterlimit:10;}
	.st121{fill:none;stroke:#98DAF4;stroke-width:4.5447;stroke-miterlimit:10;}
	.st122{fill:none;stroke:#65ABE0;stroke-width:4.5447;stroke-miterlimit:10;}
	.st123{fill:#F4D862;stroke:#1B2638;stroke-width:4.5447;stroke-linecap:round;stroke-linejoin:round;stroke-miterlimit:10;}
	.st124{fill:#F4D862;stroke:#1B2638;stroke-width:5.1097;stroke-linecap:round;stroke-linejoin:round;stroke-miterlimit:10;}
	.st125{fill:#FFFFFF;stroke:#1B2638;stroke-width:5.1097;stroke-linecap:round;stroke-linejoin:round;stroke-miterlimit:10;}
	.st126{fill:none;stroke:#65ABE0;stroke-width:4.5832;stroke-linecap:round;stroke-linejoin:round;stroke-miterlimit:10;}
	.st127{fill:none;stroke:#1B2638;stroke-width:4.5832;stroke-linecap:round;stroke-linejoin:round;stroke-miterlimit:10;}
	.st128{fill:none;stroke:#65ABE0;stroke-width:4.5832;stroke-miterlimit:10;}
	.st129{fill:none;stroke:#1B2638;stroke-width:5.7289;stroke-linecap:round;stroke-linejoin:round;stroke-miterlimit:10;}
	.st130{fill:none;stroke:#FFFFFF;stroke-width:4.5832;stroke-linecap:round;stroke-linejoin:round;stroke-miterlimit:10;}
	.st131{fill:none;stroke:#1B2638;stroke-width:6.8747;stroke-linecap:round;stroke-linejoin:round;stroke-miterlimit:10;}
	.st132{fill:none;stroke:#1B2638;stroke-width:5;stroke-linecap:round;stroke-linejoin:round;stroke-miterlimit:10;}
	.st133{fill:none;stroke:#EAB853;stroke-width:4;stroke-linecap:round;stroke-linejoin:round;stroke-miterlimit:10;}
	.st134{fill:none;stroke:#FFF985;stroke-width:4;stroke-linecap:round;stroke-linejoin:round;stroke-miterlimit:10;}
	.st135{fill:#E2869E;}
	.st136{fill:none;stroke:#98DAF4;stroke-width:4;stroke-linecap:round;stroke-linejoin:round;stroke-miterlimit:10;}
	.st137{fill:none;stroke:#000000;stroke-miterlimit:10;}
	.st138{fill:none;stroke:#1B2638;stroke-width:21;stroke-linecap:round;stroke-linejoin:round;stroke-miterlimit:10;}
	.st139{fill:none;stroke:#1B2638;stroke-width:11;stroke-miterlimit:10;}
	.st140{fill:none;stroke:#1B2638;stroke-width:16;stroke-linecap:round;stroke-linejoin:round;stroke-miterlimit:10;}
	.st141{fill:none;stroke:#1B2638;stroke-width:4.4972;stroke-linecap:round;stroke-linejoin:round;stroke-miterlimit:10;}
	.st142{fill:none;stroke:#FFFFFF;stroke-width:4.4972;stroke-linecap:round;stroke-linejoin:round;stroke-miterlimit:10;}
	.st143{fill:none;stroke:#65ABE0;stroke-width:4;stroke-linecap:round;stroke-linejoin:round;stroke-miterlimit:10;}
	.st144{fill:none;stroke:#1B2638;stroke-miterlimit:10;}
	.st145{fill:none;stroke:#FFFFFF;stroke-width:5;stroke-linecap:round;stroke-linejoin:round;stroke-miterlimit:10;}
	.st146{fill:none;stroke:#F299AC;stroke-width:7;stroke-linecap:round;stroke-linejoin:round;stroke-miterlimit:10;}
	.st147{fill:none;stroke:#1B2638;stroke-width:7;stroke-linecap:round;stroke-linejoin:round;stroke-miterlimit:10;}
	.st148{fill:none;stroke:#1B2638;stroke-width:15;stroke-linecap:round;stroke-linejoin:round;stroke-miterlimit:10;}
	.st149{fill:#65ABE0;stroke:#1B2638;stroke-width:4;stroke-linecap:round;stroke-linejoin:round;stroke-miterlimit:10;}
	.st150{fill:none;stroke:#B1F3FC;stroke-width:4;stroke-linecap:round;stroke-linejoin:round;stroke-miterlimit:10;}
	.st151{fill:none;stroke:#F299AC;stroke-width:3;stroke-linecap:round;stroke-linejoin:round;stroke-miterlimit:10;}
	.st152{fill:none;stroke:#1B2638;stroke-width:6;stroke-linecap:round;stroke-linejoin:round;stroke-miterlimit:10;}
	.st153{fill:none;stroke:#FFF27D;stroke-width:5;stroke-linecap:round;stroke-linejoin:round;stroke-miterlimit:10;}
	.st154{fill:none;stroke:#FFF27D;stroke-width:6;stroke-linecap:round;stroke-linejoin:round;stroke-miterlimit:10;}
	.st155{fill:none;stroke:#F299AC;stroke-width:4;stroke-linecap:round;stroke-linejoin:round;stroke-miterlimit:10;}
	.st156{fill:none;stroke:#98DAF4;stroke-width:7;stroke-linecap:round;stroke-linejoin:round;stroke-miterlimit:10;}
	.st157{fill:none;stroke:#1B2638;stroke-width:14;stroke-linecap:round;stroke-linejoin:round;stroke-miterlimit:10;}
	.st158{fill:none;stroke:#FFFFFF;stroke-width:4;stroke-linecap:round;stroke-linejoin:round;stroke-dasharray:11.9734,11.9734;}
	.st159{fill:#B0ECFF;stroke:#1B2638;stroke-width:4;stroke-linecap:round;stroke-linejoin:round;stroke-miterlimit:10;}
	.st160{fill:#B1F3FC;stroke:#1B2638;stroke-width:4;stroke-linecap:round;stroke-linejoin:round;stroke-miterlimit:10;}
	.st161{fill:none;stroke:#F4D862;stroke-width:4;stroke-linecap:round;stroke-linejoin:round;stroke-miterlimit:10;}
	.st162{fill:#FFF27D;stroke:#1B2638;stroke-width:4;stroke-linecap:round;stroke-linejoin:round;stroke-miterlimit:10;}
	.st163{fill:none;stroke:#FFFFFF;stroke-width:7;stroke-linecap:round;stroke-linejoin:round;stroke-miterlimit:10;}
	.st164{fill:none;stroke:#F4D862;stroke-width:7;stroke-linecap:round;stroke-linejoin:round;stroke-miterlimit:10;}
</style>
<g>
	<g>
		<polygon class="st1" points="2058.5,1217 2027.1,1378.4 2026,1384.2 2025.5,1386.6 2025.1,1388.9 1997.4,1531.8 1911.1,1516.6 
			1894,1513.6 1890,1512.9 1868.3,1509.1 1865,1508.5 1852.7,1506.3 1828.6,1502.1 1768.5,1491.5 1763.2,1474.2 1751,1435 
			1750.4,1432.9 1740.6,1401.5 1740.6,1401.5 1739.5,1397.8 1724.8,1350.3 1670.1,1173.9 1669.1,1170.7 1664.7,1156.4 
			1664.1,1154.3 1623.5,1023.5 1792,1098.4 1794.7,1099.6 1800.5,1102.2 1804.4,1103.9 1830.6,1115.6 1832.6,1116.5 1852.4,1125.3 
			1865,1130.9 1868.1,1132.2 1868.3,1132.4 		"/>
		<g>
			<polygon class="st2" points="1800.5,1102.2 1804.4,1103.9 1670.1,1173.9 1669.1,1170.7 			"/>
			<polygon class="st2" points="1868.9,1132.4 1868.9,1509.1 1865.6,1508.5 1865.6,1130.9 			"/>
			<polygon class="st2" points="2027.1,1378.4 2026,1384.2 1894,1513.6 1890,1512.9 			"/>
		</g>
		<polygon class="st75" points="1861.6,1167.4 1929.1,1183.8 1847.8,1206.4 1766.5,1229.1 1820.3,1164.1 1874.1,1099.1 		"/>
	</g>
	<circle class="st0" cx="1857.8" cy="685.1" r="118.2"/>
	<path class="st5" d="M1855.5,1405.6c0,0-15.2,59-26.9,96.5l-60.1-10.6l-5.4-17.3L1855.5,1405.6z"/>
	<path class="st4" d="M1887.6,1867.6c0,0-11.7,91.8-23.1,98.4c-6.3,3.7-33.9,13.6-59.8,5.4c-20.6-6.5-41.1-31.1-41.1-31.1
		l-41.8-87.3l98.1-87.1l2.9,4.3l52.2,78.4L1887.6,1867.6z"/>
	<path class="st13" d="M1874.9,1848.6c-0.1,0.1-0.1,0.1-0.2,0.2c-34.6,40.6-117.1,38.7-122.5,38.7c0,0,18.6-61.7,58.2-105.2
		c4.6-5.1,8.7-9,12.2-12.1L1874.9,1848.6z"/>
	<polyline class="st75" points="1763.7,1935.7 1721.8,1853 1819.9,1765.9 1876.7,1851.8 	"/>
	<path class="st10" d="M1867,1795.7c-31.6,71.9-147.5,116.7-147.5,116.7c-1.1-16.9-29-131.7-68.7-210.8
		c-12.1-24.1-25.3-44.9-39.2-58.6c-11.5-11.4-26.6-29.4-43.3-51c-25.9-33.3-55.8-75.2-83.3-114.8c-33.3-48-63-92.5-77.2-114.1
		c-5.7-8.7-9-13.7-9-13.7c-46.1-69.1,58-106.4,88.8-124.1c30.8-17.6,44,16.9,44,16.9l85.1,100.4c41,48.4,76,101.6,104.2,158.4
		l13.4,27l1.7,3.3L1867,1795.7z"/>
	<path class="st4" d="M1659.7,811.6l-20.1,22.1c0,0-13,2.6-14,1.5c-1-1.1-3.9-0.1-3.2-5.6c0.7-5.5,0.5-10.3,6.5-14.4s15-7.6,18.9-7
		S1659.7,811.6,1659.7,811.6z"/>
	<path class="st4" d="M1646.6,802.9c0,0-1.2,18.8,2.5,26.6c3.7,7.8,6.9,23.5,2.5,29.7c-4.5,6.3-4.4,19-6.7,23.9
		c-2.4,4.9-11.8,18.5-19.5,24c-7.7,5.5-24.2,13.4-24.2,13.4l-53.9-51.4l18.3-50l35.9-33.8C1601.4,785.4,1636.1,786.6,1646.6,802.9z"
		/>
	<path class="st4" d="M1635.1,897.4c0,0-2.6,12.5-7.5,28.3c-4.6,14.7-11.2,32.2-19.7,45.2c-2.4,3.6-4.9,6.4-7.6,8.6
		c-17.4,14.1-40,0.8-46.7-4.7l-8.5-12.9l-17.9-27.2l12.3-38.8l12.9-40.6L1635.1,897.4z"/>
	<path class="st13" d="M1627.6,925.7c-4.6,14.7-11.2,32.2-19.7,45.2c-2.4,3.6-4.9,6.4-7.6,8.6c-3.4-0.9-7.1-2-11.1-3.3
		c-17.1-5.5-32.2-9.9-44.1-14.3l-17.9-27.2l12.3-38.8c0.8-1,1.2-1.6,1.2-1.6s21.3,5.1,29.8,22.7
		C1578.9,934.6,1595.7,894.3,1627.6,925.7z"/>
	<path class="st76" d="M1659.7,811.6l-20.1,22.1c0,0-13,2.6-14,1.5c-1-1.1-3.9-0.1-3.2-5.6c0.7-5.5,0.5-10.3,6.5-14.4s15-7.6,18.9-7
		S1659.7,811.6,1659.7,811.6z"/>
	<path class="st12" d="M1734.2,1528.1c1.3-0.2,2.4-0.4,3.4-0.5c-0.3,0.7-0.9,2-1.7,3.8c-10,22.6-56.5,126.5-85.1,170.2
		c-12.1-24.1-25.3-44.9-39.2-58.6c-11.5-11.4-26.6-29.4-43.3-51c5.3-9.8,14.1-16.7,47-32.3
		C1653.6,1541.4,1713.6,1531.2,1734.2,1528.1z"/>
	<path class="st75" d="M1548,872.7l17.6-53.6l35.9-33.8c0,0,34.6,1.3,45.2,17.5c0,0-1.2,18.8,2.5,26.6c3.7,7.8,6.9,23.5,2.5,29.7
		c-4.5,6.3-4.4,19-6.7,23.9c-1.1,2.3-3.9,6.7-7.3,11.2"/>
	<path class="st12" d="M1641,1381c-3.2,1.2-118.8,55.9-156.1,96.2c-33.3-48-63-92.5-77.2-114.1c61.6-3.2,229.9,17.9,229.9,17.9H1641
		z"/>
	<path class="st75" d="M1637.6,894.3c0,0-12,49.6-29.6,76.6c-17.6,26.9-46.5,10.3-54.3,3.9l-26.4-40.1l26.2-78.2"/>
	<g>
		<polygon class="st1" points="1554.2,647.4 1495.8,730.1 1426.8,827.7 1396.2,870.9 1396.2,870.9 1395.1,872.6 1393.4,874.9 
			1372.1,905.1 1369.9,908.1 1175.7,1183 1012.3,1414.2 901.6,1400.1 846.8,1393.1 843.3,1392.6 799.9,1387.1 799.9,1387.1 
			799,1386.9 791.7,1386 791.7,1386 788,1385.5 763.5,1382.4 685.9,1372.5 509.5,1350 522.4,1291.1 537,1224.5 537.8,1220.9 
			537.8,1220.9 618.5,853.2 778.6,818 782,817.2 914.9,788 914.9,788 922.4,786.3 1359.3,690.3 1359.3,690.3 1362.7,689.5 
			1405.9,680 1430.7,674.6 		"/>
		<g>
			<polygon class="st2" points="799.9,1387.1 799,1386.9 791.7,1386 791.7,1386 563.7,1241.5 537,1224.5 537.8,1220.9 537.8,1220.9 
				537.8,1220.9 566.2,1238.9 			"/>
			<polygon class="st2" points="782,817.2 846.8,1393.1 843.3,1392.6 778.6,818 			"/>
			<polygon class="st2" points="922.4,786.3 1372.1,905.1 1369.9,908.1 914.9,788 			"/>
			<polygon class="st2" points="1396.2,870.9 1393.4,874.9 1359.3,690.3 1362.7,689.5 			"/>
		</g>
	</g>
	<path class="st1" d="M1625.9,956.7c0,0-20.9,45.2-49.2,91.7c-21.1,34.6-46.4,69.8-70.2,87.5c-0.8,0.6-1.6,1.2-2.4,1.7
		c-11.3,7.9-23.6,11.4-36.1,12c-50,2.3-103.1-43.3-109.3-54.2c-7.7-13.6-30.7-48.8-59.4-68.6c-10-6.9-20.4-12.2-30.1-17
		c-9.9-4.8-19.1-9-26.5-13.6c-6.3-3.9-11.3-8.1-14.3-13.2c-9.9-16.9-17.6-18.7-13.6-28.3c3.3-7.7,8.2-18.8,10-22.8
		c0.4-1,0.7-1.5,0.7-1.5s6.5-2.7,15.4-6.3c6.8-2.8,15.1-6,22.9-8.9c0,0,0,0,0,0c6.6-2.4,12.9-4.6,17.8-6c18.3-5.1,58,8.8,85.1,29.4
		c27.2,20.6,98.4,66.4,98.4,66.4l69-92.6c0,0,18.4-7.2,24.6,10.4c6.2,17.6,11.7,6.2,31.9,5.9
		C1610.8,928.4,1632.5,942.1,1625.9,956.7z"/>
	<path class="st5" d="M1576.7,1048.4c-21.1,34.6-46.4,69.8-70.2,87.5c-0.8,0.6-1.6,1.2-2.4,1.7c-11.3,7.9-23.6,11.4-36.1,12
		c-27.3-37.6-47.3-130.2-47.6-131.4C1421.8,1019.1,1533.6,1091.7,1576.7,1048.4z"/>
	<path class="st5" d="M1175.7,1183l-163.4,231.2l-110.7-14.1l-54.8-7l-3.6-0.5l-43.4-5.5h0l-0.9-0.1l-7.2-0.9l0,0l-3.7-0.5
		l-24.5-3.1l-77.6-9.9L509.5,1350l12.9-58.9c12.6-17.5,26.5-34.1,41.3-49.6c0.8-0.9,1.6-1.7,2.5-2.6
		c65-66.9,149.7-114.6,244.7-133.6c1.1-0.2,2.3-0.5,3.4-0.7c28.9-5.5,58.7-8.4,89.2-8.4C1005,1096.2,1098.9,1128.4,1175.7,1183z"/>
	<path class="st77" d="M1516.7,936c0,0,21.9-2.8,32.9,14.5c11,17.3,31.3,0.4,50.3,10.6s15.5,17.3,15.5,17.3"/>
	<path class="st75" d="M1285.3,908.6c18.3-5.1,54.3,9.6,81.4,30.1c27.2,20.6,98.4,66.4,98.4,66.4l69-92.6c0,0,18.4-7.2,24.6,10.4
		c6.2,17.6,11.7,6.2,31.9,5.9c20.2-0.4,41.8,13.2,35.2,27.9c0,0-63.5,137.6-119.4,179.2c-0.8,0.6-1.6,1.2-2.4,1.7
		c-56.5,39.3-137.6-28.6-145.3-42.2c-7.7-13.6-30.7-48.8-59.4-68.6c-20.1-13.9-41.9-21.4-56.6-30.5c-6.3-3.9-11.3-8.1-14.3-13.2
		c-9.9-16.9-17.6-18.7-13.6-28.3c3.3-7.7,8.2-18.8,10-22.8c0.4-1,0.7-1.5,0.7-1.5"/>
	<path class="st11" d="M1536.7,1478.6l-83.4,38.9c0,0-1.2,193.1,0,197.5c1.2,4.4,28.3,45.5,28.3,45.5s17.6,15.4,24.2-5.9
		c6.6-21.3,15.4-104.2,30.8-118.2c15.4-13.9,69.7-34.5,89.6-44.8c19.8-10.3,15.4-44.8-10.3-69.7
		C1590.3,1497,1536.7,1478.6,1536.7,1478.6z"/>
	<path class="st10" d="M1846.5,1433.8c-3.2,2.7-8.8,7.4-16,13.5c-10,8.4-23.1,19.5-38.1,32.1c-27.7,23.4-61.4,51.8-91.1,76.8
		c-40.9,34.5-74.2,62.6-74.2,62.6s-113.9-58-109.5-175.4c0,0,60.9-0.7,96.2-16.9c20-9.2,36.8-17.9,47.4-23.7c1.1-0.6,2.1-1.1,3-1.6
		c6.2-3.4,9.8-5.5,9.8-5.5s-176.2-10.3-206.3-2.2c-30.1,8.1-130.6-28.6-114.5-115.3c16.1-86.7,172.5-85.9,172.5-85.9
		s245.1,108.1,303.4,142c5.1,3,8.8,5.4,10.7,7.1C1864.1,1362.6,1873.6,1411.1,1846.5,1433.8z"/>
	<path class="st4" d="M1846.5,1433.8c-3.2,2.7-8.8,7.4-16,13.5c-22.1-9.4-37.6-31.3-37.6-56.8c0-25,14.9-46.5,36.2-56.2
		c5.1,3,8.8,5.4,10.7,7.1C1864.1,1362.6,1873.6,1411.1,1846.5,1433.8z"/>
	<g>
		<line class="st75" x1="1653.1" y1="2046.7" x2="2297.3" y2="2046.7"/>
		<line class="st75" x1="646.1" y1="2046.7" x2="1508.8" y2="2046.7"/>
		<line class="st75" x1="288.7" y1="2046.7" x2="433.4" y2="2046.7"/>
		<line class="st75" x1="497.2" y1="2046.7" x2="575.5" y2="2046.7"/>
		<line class="st75" x1="1552" y1="2046.7" x2="1608.3" y2="2046.7"/>
	</g>
	<path class="st12" d="M1536.2,1209.4c0,0-104,154-152.9,164.2s-52,8.8-38.7-22c13.3-30.8,15.2-53.1,46.6-73.3
		C1422.4,1258.2,1536.2,1209.4,1536.2,1209.4z"/>
	<polygon class="st1" points="406.4,1609.8 342.2,1623.9 402,1570.9 461.7,1517.9 442.9,1595.5 424.1,1673.2 	"/>
	<path class="st78" d="M1331.6,1137.6c0,0-2.2,15.4-19.1,17.3c-16.9,1.8-15.4,26.8-31.2,33c-15.8,6.2-14.2,23.6-14.2,23.6"/>
	<polyline class="st1" points="1122.2,947 1124.2,946.7 1224.8,932 1246.7,928.8 	"/>
	<path class="st1" d="M1542.6,1198.9c0,0-18.2,58.7-159.3,106.1c-36.3,12.2-57.3-69.7-57.3-69.7s-33.9-60.2-59-76.3
		c-25-16.2-92.2-39.3-124.9-51.4c-32.7-12.1-55.4-20.5-57.4-31.2s-10.1-16.2-4.2-34.5c5.9-18.4,41.7-94.8,41.7-94.8l8.6-1.3l94-13.7
		l21.9-3.2l32.2-4.7l8.2-1.2c0,0,161.9,82.4,219.3,213c5.1,11.6,9.4,23.6,12.6,35.9C1519.1,1171.8,1542.2,1187.6,1542.6,1198.9z"/>
	<path class="st10" d="M1278.3,989c0,0-2.3,11.3-9.2,20.8c-6.9,9.7-18.4,17.6-36.7,10c0,0-53.2,27.2-67.9-4c0,0-36,1.1-36-27.2
		c0,0-2.4-22.6,2.2-42.9l94-13.7c0.4-1,0.7-1.5,0.7-1.5s6.5-2.7,15.4-6.3c6.8-2.8,15.1-6,22.9-8.9c0,0,0,0,0,0s9.1,2.9,15.2,8.8
		c4.5,4.5,7.3,10.7,3.1,18.7C1282,942.8,1307,974.3,1278.3,989z"/>
	<path class="st4" d="M1242.7,996.3c-2.5,0.8-5.2,1.3-8.1,1.5c-21.1,1.8-80.6,1-110.5-51.1l73.9-16.2c13.1-7,27.4,0,27.4,0
		s6.5-2.7,15.4-6.3c1.5,1,3.6,2.5,5.9,4.6c5.4,5,12,13.4,15.4,26.4C1267.6,975.9,1258.9,991.3,1242.7,996.3z"/>
	<path class="st77" d="M1203.1,1096.2c0,0-12.9-62.4,55.4-57.3c68.3,5.1,128.1,24.2,146.7-33.8"/>
	<path class="st77" d="M1283.8,1137.6c0,0,26.1-72.7,86.3-58.5c60.2,14.1,85.4-0.1,83.1-25.6"/>
	<path class="st77" d="M1351.5,1203.3c5.4-2.2,45.6-64.6,87.1-57.3c41.6,7.3,65.6-2.5,62.4-21.8"/>
	<path class="st79" d="M1499.3,1277.6c0,0,10.3,41.8-17.6,63"/>
	<path class="st11" d="M1766.8,1941.5c-1.2-0.2-2.1,1.2-1.4,2.2c10.5,16.1,58.5,101.7,62.7,103c4.6,1.5,171.8-77.8,196-93.9
		c24.2-16.1,57.3-55.8,55.1-65.3s-11.7-16.9-17.6-15.4c-5.9,1.5-44,33.8-99.8,22c-46.5-9.8-67-21.6-72.5-25.3
		c-0.8-0.5-1.9-0.1-2.2,0.8C1883.1,1882.2,1857.3,1952.8,1766.8,1941.5z"/>
	<path class="st80" d="M1510.9,1514.2c0,0-63,11.6-32.7,35.1c30.3,23.5,68,11.7,50.4,28.9c-17.6,17.1-61.8,47.5-37.2,60.7"/>
	<path class="st80" d="M1813.4,1966.9c0,0,2.4-33.9,17.6-17.8c15.3,16.1,33.3,49.9,39.2,17.8c5.9-32.1,4.9-51.5,27.6-30.3
		c22.8,21.3,23.5,23.5,38.2,8.1"/>
	<path class="st80" d="M1951.6,1975.9c0,0,74.3-44.8,80.9-54.3"/>
	<line class="st80" x1="1465.9" y1="1628.4" x2="1465.9" y2="1691.5"/>
	<path class="st75" d="M1331.6,949.6c47.7,30,134.5,94.3,174.9,186.3c5.1,11.6,9.4,23.6,12.6,35.9c0,0,23.1,15.8,23.5,27.2
		c0,0-25.9,60.2-159.3,106.1c-36.2,12.5-57.3-69.7-57.3-69.7s-33.9-60.2-59-76.3c-25-16.2-92.2-39.3-124.9-51.4
		c-32.7-12.1-55.4-20.5-57.4-31.2s-10.1-16.2-4.2-34.5c5.9-18.4,41.7-94.8,41.7-94.8"/>
	<path class="st4" d="M1400.2,1337.7c-2.9,8.4-13.9,0-13.9,0s-38.1-28-58.9-49.5c-4-4.1-7.4-8-9.7-11.4
		c-14.7-21.3-34.9-47.3-33.8-55.4c0.9-6.3,17.7-40.2,28.9-55.6c3.2-4.4,6-7.3,7.8-7.6c8.1-1.1,17.3,0,17.3,0s62,62.8,68.6,81.5
		S1403.1,1329.2,1400.2,1337.7z"/>
	<polygon class="st4" points="1212.6,846.8 1211.2,847.8 1211,846.8 	"/>
	<polygon class="st4" points="1231,962.6 1125.9,978.4 1124,954 1120.9,912.6 1156.6,886.9 1211.2,847.8 	"/>
	<path class="st11" d="M1085.1,775.4c0,0-30.4-41.8-29.6-49.7c0.7-7.8,78.1-44.3,79.8-47s3.7-23.2,21.8-21.5
		c18.1,1.7,24,24.5,24,24.5s17.6-11.3,35.7-4.9c18.1,6.4,12.5,24,12.5,24s24.5,14.2,14.9,31.3c-9.5,17.1,6.6,27.6,0,42.3
		c-6.6,14.7-6.4,26.7-11.6,30.8c-5.3,4.2-21.2,13-27.8,12.5c-6.6-0.5-86.6-33-92.2-34C1106.8,782.7,1085.1,775.4,1085.1,775.4z"/>
	
		<ellipse transform="matrix(0.8995 -0.4369 0.4369 0.8995 -245.8084 593.17)" class="st1" cx="1166.6" cy="831" rx="11.1" ry="6.9"/>
	<circle class="st11" cx="1231.9" cy="606.8" r="20"/>
	<circle class="st11" cx="1213.1" cy="645.4" r="10"/>
	<path class="st13" d="M1199.5,880.5c0,0-10,55.9-35.5,74.7c-12.7,9.4-27.9,5.3-40-1.2l-3.2-41.5l35.7-25.6L1199.5,880.5z"/>
	<path class="st4" d="M1211.2,842.2c0,43.7-31.2,83.3-65.7,83.3c-34.5,0-50.3-22.8-55.1-44.8c-4.8-22,2.3-55.8-2.6-73.4
		c-1.7-6.1-2.6-12.1-2.9-17.6c-1.1-17.5,2.9-30.9,2.9-30.9c10.2-29.5,86.5-23.9,108.8-16.9c3.5,1.1,5.7,2.2,6.1,3.3
		c0.7,1.8,1.6,5.8,2.4,11.5c0.5,3.1,1,6.7,1.5,10.7C1209,786.6,1211.2,814.7,1211.2,842.2z"/>
	<path class="st0" d="M1122,813.2c0,0-14.7,28.6-12.5,33.5s13.7,5.4,15.9,4.4C1127.6,850.1,1122,813.2,1122,813.2z"/>
	<path class="st13" d="M1206.6,767.5c-0.9,2-3.3,2.3-8.6-0.7c-17.9-10.2-36,8.8-80.5,21.8c-16.8,4.9-26.8,4.1-32.7,1.1
		c-1.1-17.5,2.9-30.9,2.9-30.9c10.2-29.5,86.5-23.9,108.8-16.9c3.4,3.4,4.8,6.1,4.8,6.1s2,4.1,3.7,8.7
		C1206.6,760.8,1207.7,765.2,1206.6,767.5z"/>
	<path class="st75" d="M1138.1,875.6c0,0,14.7,1.8,22-13.2"/>
	<path class="st13" d="M1341.2,1280.4c-3.8,4.9-8.7,7.1-13.9,7.7c-4-4.1-7.4-8-9.7-11.4c-14.7-21.3-34.9-47.3-33.8-55.4
		c0.9-6.3,17.7-40.2,28.9-55.6c13.4-4,26-6.2,26-6.2c0,0.7,0,15.4-9.3,21.5C1320.2,1187.2,1355.9,1261.8,1341.2,1280.4z"/>
	
		<ellipse transform="matrix(0.5976 -0.8018 0.8018 0.5976 -169.0357 1305.9576)" class="st4" cx="1216.7" cy="821.4" rx="32.8" ry="15.4"/>
	<path class="st11" d="M1087.8,758.9c0,0,7.8,20.4,38.1,12.8s47.4-34.3,60.4-12.8c13,21.4,27.6,23.6,29.1,20.2
		c1.5-3.4,0.2-7.1,1.2-16.9c1-9.8,2.9-15.4-5.5-25.8c-8.4-10.4-2.8-17-30.7-17.5c-27.9-0.5-46-8.3-65.8,3.2
		c-19.8,11.5-25.4,5.4-26.8,18.4C1086.5,753.4,1087.8,758.9,1087.8,758.9z"/>
	
		<ellipse transform="matrix(0.8232 -0.5678 0.5678 0.8232 -267.9389 811.6452)" class="st1" cx="1169" cy="836" rx="11.1" ry="6.9"/>
	<path class="st76" d="M1236.3,795.1c6.8,5.1,3.6,21-7.2,35.5c-5,6.7-12.6,13-18,16.1"/>
	<line class="st75" x1="1211" y1="846.8" x2="1222.7" y2="914.3"/>
	<path class="st75" d="M1191.6,899.8c0,0-15.6,24.4-46.1,25.7c-7.5,0.3-14.2-0.6-20-2.6"/>
	<path class="st1" d="M965.4,1077.6c0,0,88.1-123.3,106.2-130.7c18.1-7.3,85.6-11.7,73.9,50.9l-36.2,67c0,0,141.9-35.2,233.9,87.1
		c0,0,6.9,20.6-9.8,16.6c-16.6-3.9-25.9,6.4-26.4,28.9s-23,17.6-24.5,17.1s-3.7,1.5-51.5-13.7c-47.8-15.2-90.9-29.4-133.5-36.2
		c-42.6-6.9-62.1-4.9-89.6-21.5s-56.3-26.4-54.8-32.8C954.6,1104,965.4,1077.6,965.4,1077.6z"/>
	<path class="st4" d="M1548,867.2l-2.5-34.5c-0.4-5.9,1.3-11.7,4.8-16.5l16.9-22.8c0,0,7.6-2.7,17.6,1.6c10,4.3,22.4,7.8,22.4,7.8
		s3.9,15.8-6,18.4c-9.9,2.6-21.9,2.8-21.9,2.8s-2,8.5,1.8,13.4c3.8,4.8,0.4,27.1-11.6,32.9C1548,880.5,1548,867.2,1548,867.2z"/>
	<polyline class="st81" points="1061.5,955 1125.5,1034.9 995.7,1034.9 1084.7,1145.4 1175.7,1060.8 1288.5,1184.2 	"/>
	<path class="st75" d="M1547.3,873.6l-1.8-40.8c-0.4-5.9,1.3-11.7,4.8-16.5l16.9-22.8c0,0,7.6-2.7,17.6,1.6
		c10,4.3,22.4,7.8,22.4,7.8s3.9,15.8-6,18.4c-9.9,2.6-21.9,2.8-21.9,2.8s-2,8.5,1.8,13.4c2.2,2.8,2.1,11.3-0.7,19.1"/>
	<path class="st4" d="M1649.9,855.3c0,0-18.5,12.1-23.9,15.6c-4.3,2.8-16.1,4.3-20.6,4.8c-1.1,0.1-2,0.9-2.3,2
		c-1.1,4.3-2.5,14.8,9.9,14.3c15.7-0.7,33.6-12,35.9-13s8.4-7.5,8.3-11.1C1657.2,864.2,1656.1,856.5,1649.9,855.3z"/>
	<path class="st75" d="M1649.9,855.3c0,0-18.5,12.1-23.9,15.6c-4.3,2.8-16.1,4.3-20.6,4.8c-1.1,0.1-2,0.9-2.3,2
		c-1.1,4.3-2.5,14.8,9.9,14.3c15.7-0.7,33.6-12,35.9-13s8.4-7.5,8.3-11.1C1657.2,864.2,1656.1,856.5,1649.9,855.3z"/>
	<path class="st4" d="M1633.1,792.3c0.5-0.4,26.8-34.2,26.8-34.2l0.3-10.8l-22.4,2.5l-38,37"/>
	<path class="st4" d="M1599.9,786.9c0,0,0.5,11.8,11.4,12.1c10.9,0.2,21.8-6.7,21.8-6.7"/>
	<path class="st75" d="M1633.1,792.3c0.5-0.4,26.8-34.2,26.8-34.2l0.3-10.8l-22.4,2.5l-39.6,38.7"/>
	<line class="st82" x1="1617.1" y1="872.7" x2="1635.1" y2="674.8"/>
	<path class="st4" d="M1660.3,747.3l-11-14.9c0,0-10.1-0.6-12.3,5.5c-2.2,6,2,17.8,9.4,17.8S1660.3,747.3,1660.3,747.3z"/>
	<path class="st75" d="M1660.3,747.3l-11-14.9c0,0-10.1-0.6-12.3,5.5c-2.2,6,2,17.8,9.4,17.8S1660.3,747.3,1660.3,747.3z"/>
	<path class="st4" d="M1652.2,787.1l-23.5,15.2c0,0-4.7,21.4,11.4,19.5l25.7-13.4c2.3-1.2,3.5-3.9,2.9-6.4
		c-1.2-4.9-4.1-12.5-11.4-15.4C1655.7,785.9,1653.8,786.1,1652.2,787.1z"/>
	<path class="st75" d="M1652.2,787.1l-23.5,15.2c0,0-4.7,21.4,11.4,19.5l25.7-13.4c2.3-1.2,3.5-3.9,2.9-6.4
		c-1.2-4.9-4.1-12.5-11.4-15.4C1655.7,785.9,1653.8,786.1,1652.2,787.1z"/>
	<path class="st4" d="M1659.9,822c-1.4-0.7-3-0.6-4.4,0.1c-3.6,2-11.5,6.1-15.2,6.6c-4.9,0.6-20,6.4-20,6.4s-7,14.5,3.9,18.8
		c2.4,1,5.1,1.1,7.7,0.5c4.2-1,12.7-3.3,20.8-6.2c11.3-4.1,15.6-8.7,15.6-11.7C1668.3,833.8,1666.7,825.4,1659.9,822z"/>
	<path class="st75" d="M1659.9,822c-1.4-0.7-3-0.6-4.4,0.1c-3.6,2-11.5,6.1-15.2,6.6c-4.9,0.6-20,6.4-20,6.4s-7,14.5,3.9,18.8
		c2.4,1,5.1,1.1,7.7,0.5c4.2-1,12.7-3.3,20.8-6.2c11.3-4.1,15.6-8.7,15.6-11.7C1668.3,833.8,1666.7,825.4,1659.9,822z"/>
	<circle class="st2" cx="665.4" cy="713.3" r="13"/>
	<circle class="st2" cx="1817.1" cy="1005.3" r="13"/>
	<circle class="st0" cx="1522.7" cy="1788.8" r="13"/>
	<polygon class="st4" points="919.8,894.6 958.3,865.6 934.6,919.2 911,972.9 899.8,915.3 888.6,857.7 	"/>
	<circle class="st83" cx="914.9" cy="682.1" r="33.9"/>
	<circle class="st84" cx="706.3" cy="1039" r="33.9"/>
	<circle class="st8" cx="867.6" cy="1068" r="17.2"/>
	<circle class="st8" cx="828.8" cy="1010.4" r="34"/>
	<path class="st77" d="M1333.3,1139.7c0,0-29,0.5-34,19.6c-5.1,19.1-22.4,49.3-40.1,50.1"/>
	<path class="st75" d="M965.4,1077.6c0,0,88.5-122.5,106.2-130.7c24-11.1,68-10.5,74.6,28.7c1.8,10.6-0.3,21.5-5.5,31l-31.4,58.2
		c0,0,141.9-35.2,233.9,87.1c0,0,6.9,20.6-9.8,16.6c-16.6-3.9-25.9,6.4-26.4,28.9s-23,17.6-24.5,17.1s-3.7,1.5-51.5-13.7
		c-47.8-15.2-90.9-29.4-133.5-36.2c-42.6-6.9-62.1-4.9-89.6-21.5s-56.3-26.4-54.8-32.8C954.6,1104,965.4,1077.6,965.4,1077.6z"/>
	<g>
		<circle class="st3" cx="1007.9" cy="1574.2" r="470.2"/>
		<path class="st85" d="M1007.9,1983.6c-226.1,0-409.4-183.3-409.4-409.4c0-122.6,53.9-232.7,139.4-307.7"/>
		<path class="st85" d="M797.9,1222.7c61.4-36.8,133.3-57.9,210-57.9c226.1,0,409.4,183.3,409.4,409.4
			c0,156.8-88.1,292.9-217.5,361.7"/>
	</g>
	<g>
		<path class="st4" d="M1098.4,1558.5H840.8V1350h257.7c57.6,0,104.2,46.7,104.2,104.2v0C1202.7,1511.8,1156,1558.5,1098.4,1558.5z"
			/>
		<rect x="780.6" y="1350" class="st4" width="130.7" height="64.6"/>
		<path class="st4" d="M1117.2,1558.5H840.8v236h276.4c65.2,0,118-52.8,118-118v0C1235.2,1611.3,1182.4,1558.5,1117.2,1558.5z"/>
		<rect x="780.6" y="1729.9" class="st4" width="130.7" height="64.6"/>
		<path class="st3" d="M1024.5,1523.8h-59.9v-109.1h59.9c30.1,0,54.6,24.4,54.6,54.6v0C1079.1,1499.3,1054.7,1523.8,1024.5,1523.8z"
			/>
		<path class="st3" d="M1021.5,1729.9h-56.9v-143.6h56.9c39.6,0,71.8,32.1,71.8,71.8v0C1093.3,1697.8,1061.2,1729.9,1021.5,1729.9z"
			/>
		<rect x="907.3" y="1254.1" class="st4" width="61.7" height="101.8"/>
		<rect x="1031.6" y="1254.1" class="st4" width="61.7" height="101.8"/>
		<rect x="907.3" y="1792.5" class="st4" width="61.7" height="101.8"/>
		<rect x="1031.6" y="1792.5" class="st4" width="61.7" height="101.8"/>
	</g>
	<path class="st75" d="M1573.4,1391.3l100.6,4.4c0,0-3.5,2.1-9.8,5.5c-0.9,0.5-1.9,1.1-3,1.6c-10.7,5.8-27.4,14.5-47.4,23.7
		c-35.2,16.2-96.2,16.9-96.2,16.9c-4.4,117.5,109.5,175.4,109.5,175.4s33.3-28.1,74.2-62.6c29.7-25,63.4-53.5,91.1-76.8
		c14.9-12.6,28.1-23.7,38.1-32.1c7.3-6.1,12.8-10.8,16-13.5c27.2-22.8,17.6-71.2-6.6-92.4c-1.9-1.7-5.6-4.1-10.7-7.1
		c-58.3-33.9-286.5-135.4-286.5-135.4"/>
	<path class="st12" d="M1741.5,1527.1c0,0-1.4,0.2-3.9,0.5c0.2-0.4,0.2-0.5,0.2-0.5H1741.5z"/>
	<path class="st75" d="M1379.8,1203.3c0,0,27.1,28.4,28,42.1c0.9,13.7,0,32.9,0,32.9"/>
	<path class="st4" d="M1549.2,865.6l0.3,13.9c0,0,5-2,5.7-3.7c0.7-1.7,4-2.9,0.6-5.9S1549.2,865.6,1549.2,865.6z"/>
	<path class="st75" d="M1519.1,1171.8c0,0-20.3,47.8-82.1,69.1"/>
	<line class="st75" x1="1769.2" y1="1598.6" x2="1834.2" y2="1729.6"/>
	<g>
		<path class="st0" d="M1352.1,1928.2c0,0-29.6-18.9-5.8-60.7c23.8-41.8,45.5-71.9-4.2-61.9c-49.7,10-73,112.1-30.1,127.4
			C1354.7,1948.4,1352.1,1928.2,1352.1,1928.2z"/>
		<circle class="st0" cx="1260.8" cy="1951.7" r="15.2"/>
		<path class="st0" d="M1406.8,1807.6c0,0-37.8,132,29.6,157.4c67.4,25.4,153.9-62.7,167.4-113.4s-16.1-47.7-33-27
			c-17,20.7-92.8,61.8-92.8,61.8l-17.9-1.2l-15.4-18.1l-6.8-34.4C1437.8,1832.6,1421.7,1765.2,1406.8,1807.6z"/>
		<path class="st75" d="M1588.4,1833.8c0,0-29.3,61.9-96.5,76.1"/>
		<path class="st75" d="M1342,2046.7c0,0,1.1-151.4,37.3-201.5c37.1-51.3,39.7-67.4,52.4-37.3c12.7,30.1,4,108.7,66.6,66.6
			c62.7-42,84.1-58.6,84.1-58.6"/>
	</g>
	<g>
		<circle class="st2" cx="924.4" cy="1757.8" r="10.5"/>
		<g>
			<path class="st2" d="M757.8,1927.2c0,0-67-82.8-17.3-115.4c49.6-32.6,39.1-50,50.1-92.7s92.1-98.2,108.1-33.9
				s-25.1,62.4-4.7,91.4c20.4,29-31.8,75.6-43.5,95.3C838.7,1891.5,845,1937.7,757.8,1927.2z"/>
			<path class="st80" d="M782.1,1881.9c0,0-15.9-18.8-8.4-38.8"/>
			<path class="st75" d="M739.3,1980.4c4.5-2,41.4-39.5,64.7-22.9c23.3,16.6,9.1,56.8-25.2,42.7
				C744.5,1986.1,739.3,1980.4,739.3,1980.4z"/>
			<path class="st75" d="M734.5,1998.5c0,0-26-56.6-63.7-49.2s-26.3,51.1,10.7,43.6C718.5,1985.5,734.5,1998.5,734.5,1998.5z"/>
			<path class="st80" d="M807.6,1821.6c0,0,24.4,1.8,30-25.6"/>
			<path class="st75" d="M729.8,2046.5c-3.9-55.5,33.8-131.4,53.7-167.1c12.7-22.8,22.2-47.2,27.9-72.7c2.4-10.9,4.4-22.6,5.1-33.9
				c2.8-41.2,31.4-64,41-60.7"/>
		</g>
		<path class="st2" d="M611.3,1788.1c-10.7-2.2-49.7-1.9-65.6,110.8c0,0,40.5,22.3,52.8-10.8c12.3-33.2,15.1-41,15.1-41
			s-2.5,36.9,20.7,19.5s31.6-55,31.6-55s-16.7-19.8-47.2-22.4C616.3,1788.9,613.8,1788.6,611.3,1788.1z"/>
		<path class="st80" d="M631.1,1808.5c0,0-49.4,1.5-58.5,42.8"/>
		<path class="st75" d="M737.1,1988.3c-2.5-1.9-21.4-44.8-31-83.9s-28.2-129.8-112.3-113.6"/>
	</g>
	<path class="st0" d="M1865,803.1c0,0-61.5,32.3-108.4,25.2c0,0,29.1-36.5,5.6-73.8s108.3-8,108.3-8L1865,803.1z"/>
	<g>
		<path class="st4" d="M1881.1,684.6l-64.8-9.8l7.9-52.4l64.8,9.8c14.5,2.2,24.4,15.7,22.2,30.2l0,0
			C1909.1,676.8,1895.6,686.8,1881.1,684.6z"/>
		
			<rect x="1807.7" y="622.5" transform="matrix(0.9887 0.1496 -0.1496 0.9887 114.871 -265.7994)" class="st4" width="33.2" height="16.4"/>
		<path class="st4" d="M1885.9,685.3l-69.5-10.5l-9,59.3l69.5,10.5c16.4,2.5,31.7-8.8,34.2-25.2l0,0
			C1913.5,703.1,1902.3,687.8,1885.9,685.3z"/>
		
			<rect x="1793.3" y="718" transform="matrix(0.9887 0.1496 -0.1496 0.9887 128.9943 -262.5636)" class="st4" width="33.2" height="16.4"/>
		<path class="st0" d="M1863.9,673.1l-15.1-2.3l4.2-27.4l15.1,2.3c7.6,1.1,12.8,8.2,11.6,15.8l0,0
			C1878.5,669,1871.5,674.2,1863.9,673.1z"/>
		<path class="st0" d="M1855.3,724.8l-14.3-2.2l5.5-36.1l14.3,2.2c10,1.5,16.8,10.8,15.3,20.8l0,0
			C1874.6,719.4,1865.3,726.3,1855.3,724.8z"/>
		
			<rect x="1842.7" y="601.8" transform="matrix(0.9887 0.1496 -0.1496 0.9887 112.782 -269.8877)" class="st4" width="15.7" height="25.9"/>
		
			<rect x="1873.9" y="606.6" transform="matrix(0.9887 0.1496 -0.1496 0.9887 113.8408 -274.509)" class="st4" width="15.7" height="25.9"/>
		
			<rect x="1822.2" y="737.2" transform="matrix(0.9887 0.1496 -0.1496 0.9887 132.7985 -265.3017)" class="st4" width="15.7" height="25.9"/>
		
			<rect x="1853.4" y="741.9" transform="matrix(0.9887 0.1496 -0.1496 0.9887 133.8573 -269.9231)" class="st4" width="15.7" height="25.9"/>
	</g>
</g>
</svg>
