<?xml version="1.0" encoding="utf-8"?>
<!-- Generator: Adobe Illustrator 24.3.0, SVG Export Plug-In . SVG Version: 6.00 Build 0)  -->
<svg version="1.1" id="illustrations" xmlns="http://www.w3.org/2000/svg" xmlns:xlink="http://www.w3.org/1999/xlink" x="0px"
	 y="0px" viewBox="0 0 2500 2500" style="enable-background:new 0 0 2500 2500;" xml:space="preserve">
<style type="text/css">
	.st0{fill:#F299AC;}
	.st1{fill:#98DAF4;}
	.st2{fill:#B0ECFF;}
	.st3{fill:#F4D862;}
	.st4{fill:#82C0E0;}
	.st5{fill:none;stroke:#B6FCFF;stroke-width:4.4199;stroke-linecap:round;stroke-linejoin:round;stroke-miterlimit:10;}
	.st6{fill:none;stroke:#1B2638;stroke-width:4.4199;stroke-miterlimit:10;}
	.st7{fill:#FFFFFF;}
	.st8{fill:#FFF27D;}
	.st9{fill:none;stroke:#1B2638;stroke-width:4.4199;stroke-linecap:round;stroke-linejoin:round;stroke-miterlimit:10;}
	.st10{fill:#65ABE0;}
	.st11{fill:#1B2638;}
	.st12{fill:#4B8CC6;}
	.st13{fill:#DAE4EA;}
	.st14{fill:#F9B9CE;}
	.st15{fill:#253544;}
	.st16{fill:none;stroke:#FFFFFF;stroke-width:4.4199;stroke-linecap:round;stroke-linejoin:round;}
	.st17{fill:none;stroke:#FFFFFF;stroke-width:4.4199;stroke-linecap:round;stroke-linejoin:round;stroke-dasharray:13.494,13.494;}
	.st18{fill:#E5889A;}
	.st19{fill:none;stroke:#FFFFFF;stroke-width:4.4199;stroke-linecap:round;stroke-linejoin:round;stroke-miterlimit:10;}
	.st20{fill:none;stroke:#98DAF4;stroke-width:4.4199;stroke-miterlimit:10;}
	.st21{fill:none;stroke:#65ABE0;stroke-width:4.4199;stroke-miterlimit:10;}
	.st22{fill:#FFFFFF;stroke:#2A353F;stroke-width:3.3149;stroke-linecap:round;stroke-linejoin:round;stroke-miterlimit:10;}
	.st23{fill:none;stroke:#B6FCFF;stroke-width:4.4199;stroke-miterlimit:10;}
	.st24{fill:none;stroke:#1B2638;stroke-width:1.105;stroke-linecap:round;stroke-linejoin:round;stroke-miterlimit:10;}
	.st25{fill:#B6FCFF;}
	.st26{fill:none;stroke:#98DAF4;stroke-width:4.4199;stroke-linecap:round;stroke-linejoin:round;stroke-miterlimit:10;}
	.st27{fill:none;stroke:#B0ECFF;stroke-width:4.4199;stroke-miterlimit:10;}
</style>
<g>
	<path class="st0" d="M1743,1852.6c0,0-25.4-16.2-5-52.1c20.4-35.8,39-61.7-3.6-53s-62.6,96.1-25.8,109.3
		C1745.3,1869.9,1743,1852.6,1743,1852.6z"/>
	<polygon class="st1" points="2200.6,1091.1 2133.9,1434.8 2133,1439.4 2076.9,1729 1902.1,1698.3 1783.6,1677.4 1613.1,1647.4 
		1577.6,1532.9 1576.3,1528.6 1556.6,1465 1556.6,1464.9 1554.3,1457.6 1524.5,1361.3 1402.8,968.3 1401.4,964.1 1319.4,699.1 
		1660.7,850.9 1666.2,853.3 1738.9,885.7 1743,887.5 	"/>
	<g>
		<polygon class="st2" points="1666.2,853.3 1402.8,968.3 1401.4,964.1 1660.7,850.9 		"/>
		<polygon class="st2" points="1743,887.5 1556.6,1464.9 1554.3,1457.6 1738.9,885.7 		"/>
		<polygon class="st2" points="2133.9,1434.8 2133,1439.4 1577.6,1532.9 1576.3,1528.6 		"/>
	</g>
	<path class="st3" d="M2076.9,1868.2c0,14.5-8.8,35.7-15.6,50.5c-0.7,1.5-1.4,3-2,4.4c-3.2,6.9-5.5,11.7-5.5,12.8
		c0,3.4,0,13.6-4.8,18.7l-103.4-22.8l-15.6-47.8l19.7-48.1c0,0,0.7-32,28.6-40.8c11.8-3.7,29.1-3.6,45.3-2.2
		c22,1.9,41.8,6.2,41.8,6.2s8.9,34.9,11.1,59.4C2076.7,1862.1,2076.9,1865.3,2076.9,1868.2z"/>
	<path class="st1" d="M2102.7,1775.1c0,0-21.6,26.8-63.1,43.9c-19.7,8.1-44,14-72.5,13.8c-7.8,0-14.8-0.9-21.1-2.3
		c-65.2-15.2-53.1-100.3-50.3-122.7c3.1-24.5,8-182.6,7-216.2c-0.9-33.7-21.3-123.4-21.3-123.4l10.2-137c0,0,6.1-38.4,28.6-40.5
		c22.4-2,97.9,24.1,97.9,24.1s23.5,75.9,12.2,139.1c-11.2,63.2-33.7,154-26.5,184.6C2010.9,1569.1,2060.9,1740.5,2102.7,1775.1z"/>
	<path class="st4" d="M1909.4,1629.3l-7.3,69l-118.5-20.8c-13-97.4-3.8-286.8-3.8-286.8l75.3,80.6L1909.4,1629.3z"/>
	<polyline class="st5" points="1985.6,1281.6 2015.6,1261.4 1993.8,1318 2032.4,1311.1 	"/>
	<path class="st6" d="M2018,1214.8c0,0,23.5,75.9,12.2,139.1c-11.2,63.2-33.7,154-26.5,184.6c7.1,30.6,57.1,202,98.9,236.6
		c0,0-46.9,58.3-135.7,57.7c-88.7-0.6-74.5-100.5-71.4-125s8-182.6,7-216.2c-0.9-33.7-21.3-123.4-21.3-123.4l10.2-137
		c0,0,6.1-38.4,28.6-40.5C1942.6,1188.7,2018,1214.8,2018,1214.8z"/>
	<path class="st7" d="M1762.7,938.8c1,0,21.8,5.1,21.8,5.1s-10.9-17.3-10.9-21.4s4.4-6.5,4.4-6.5s17.3,19.4,22.8,21.1
		c5.4,1.7,15.3,46.9,35,58.5s1.7,28.9,1.7,28.9l-25.5,9.9l-36-21.8c0,0-16-10.2-19.7-22.8c-3.7-12.6-5.1-29.6-5.1-29.6L1762.7,938.8
		z"/>
	<polygon class="st1" points="1177.3,1565.3 868.6,1711.1 862.1,1714.2 555.8,1858.8 455.3,1620.5 453.2,1615.4 436.2,1575.2 
		434.5,1571.1 359.7,1393.7 358.6,1391.2 444.7,1282.6 850.5,770.3 853.3,766.7 966.9,623.3 1034.8,927.2 1052.1,1004.7 
		1056.8,1025.9 1059.1,1035.9 1096.8,1204.8 1097.8,1209.3 	"/>
	<g>
		<polygon class="st2" points="1059.1,1035.9 850.5,770.3 853.3,766.7 1056.8,1025.9 		"/>
		<polygon class="st2" points="1097.8,1209.3 436.2,1575.2 434.5,1571.1 1096.8,1204.8 		"/>
		<polygon class="st2" points="868.6,1711.1 862.1,1714.2 455.3,1620.5 453.2,1615.4 		"/>
	</g>
	<path class="st4" d="M585,1435.3l-31.6,111.1c0,0-129.7-102.5-193.7-152.6l-1-2.5l86-108.6L585,1435.3z"/>
	<path class="st3" d="M1017.9,1858.8c0,0-1.8,38.4-2.7,47.9c-0.5,5.5-10.6,16.1-19.1,24.2c-6.3,6.1-11.8,10.7-11.8,10.7l-27.2-17.5
		l-4.4-2.8l-63.3-40.8l-7.7-5l-2.6-1.6l-4.4-2.8l-19.1-12.3c0,0,3.6-10.5,9.5-20.5c0.7-1.2,1.6-2.4,2.7-3.7c8.2-9.9,26-23.6,34-34.8
		c2-2.8,4.2-7,6.4-12c0.7-1.6,1.4-3.3,2.2-5c7.2-17.4,14.1-39.6,14.1-39.6s32.6,14.5,50.3,27.2c17.7,12.7,33.1,41.7,33.1,41.7
		L1017.9,1858.8z"/>
	<circle class="st7" cx="747.7" cy="1589.4" r="58"/>
	<g>
		<path class="st8" d="M908.3,1787.7l31.7,53.6l-65.3,29.7l4.4,2.8l64.9-29.5c0.6-0.3,1-0.7,1.2-1.3c0.2-0.6,0.1-1.2-0.2-1.8
			l-34.6-58.5L908.3,1787.7z"/>
		<path class="st8" d="M957.1,1882.7v41.4l-4.4-2.8v-36.5l-63.3-4.3l-7.7-5l73.4,4.9C956.2,1880.6,957.1,1881.5,957.1,1882.7z"/>
	</g>
	<path class="st9" d="M996.1,1930.9c-6.3,6.1-11.8,10.7-11.8,10.7l-128.7-82.8c0,0,3.6-10.5,9.5-20.5c0.7-1.2,1.6-2.4,2.7-3.7
		l23.6,17.7"/>
	<path class="st7" d="M1066.4,1778.9l20.4,63.5l-88.4,30.4l-37.2-57.1c0,0,27.7-37.2,55.8-39.9
		C1045.1,1773,1066.4,1778.9,1066.4,1778.9z"/>
	<path class="st9" d="M1066.4,1778.9l20.4,63.5l-88.4,30.4l-37.2-57.1c0,0,27.7-37.2,55.8-39.9
		C1045.1,1773,1066.4,1778.9,1066.4,1778.9z"/>
	<line class="st9" x1="704.4" y1="1531.4" x2="704.4" y2="1832.8"/>
	<line class="st9" x1="704.4" y1="1711.6" x2="535.6" y2="1945.7"/>
	<line class="st9" x1="704.4" y1="1711.6" x2="873.3" y2="1945.7"/>
	<path class="st10" d="M1117.6,1448.6c-4.8,30.7-14.1,70.7-25.7,110.8c-10,34.8-21.8,69.6-33.7,98.5c-4.5,10.9-9,20.9-13.6,29.8
		c-5.1,10-10.1,18.6-15,25.2c-45.9,62.2-54.9,70.4-54.9,70.4l-56.3-97.9l6.1-137.7c0,0-20.4-52-45.9-81.6
		c-15.3-17.8-26.1-26.5-29.9-36.3c-2.5-6.5-2-13.5,2.4-23.9c3.8-9.1,12.5-18.4,22.4-27c18.6-16.1,41.6-29.7,44.9-34.7
		c5.1-7.7,52-8.6,52-8.6h4.3c0,0,9.1,2.7,22.7,7.1c24.1,7.8,62.3,20.8,89.7,33.3c14.7,6.8,26.3,13.3,30.8,18.9
		C1122.7,1400.6,1122,1420.8,1117.6,1448.6z"/>
	<path class="st11" d="M541,1522.1c0,0-175.3-205.6-192.7-397C331,933.7,410.4,882.7,439,880.2c28.6-2.6,195.2,430,195.2,430
		S649,1503.6,541,1522.1z"/>
	<path class="st12" d="M1092,1559.5c-13.8,47.8-30.8,95.8-47.3,128.3l-42.2-5.7c0,0-37.5-59.6-32.4-116.7
		c5.1-57.1,12.7-137.3,12.7-137.3L1092,1559.5z"/>
	<path class="st7" d="M838.6,1135.6l-1.6,33.6l-0.6,12.7c0,0,0,0,0,0l-1,20.7c0,0-15.1,18.9-39,5.1c-0.8-0.5-1.6-1-2.5-1.5
		c-1.6-1-3.2-2.2-4.9-3.6c-13.1-10.6-18.2-23.8-19.8-34.9c-1.9-12.7,0.7-22.6,0.7-22.6s0.1-20.2,31.5-20.1h0.5
		C833.9,1125.4,838.6,1135.6,838.6,1135.6z"/>
	<path class="st7" d="M836.4,1181.9c0,0,18.2,23.8,21.9,42.8c3.7,19,4.5,31.6,7.5,38.1c3,6.5-27.6,20.4-32,17.3
		c-4.4-3.1-31.9-30.6-31.9-30.6s-9.7-31-5.6-41.8c4.1-10.8-6.4-12.6,12.7-21.1C828.1,1178.1,836.4,1181.9,836.4,1181.9z"/>
	<path class="st13" d="M838.6,1135.6l-1.6,33.6c-6.8,3.4-17,9.1-26.2,16.6c-5.1,4.2-9.9,9.1-13.5,14.4c-1.3,1.9-2.5,3.9-3.5,5.9
		c-2.2,4.5-3.5,9.2-3.5,14.2c-0.5,33.1-21.8-12.2-21.8-12.2s-7.1-18.9,0.7-40.4c1.4-3.9,3.3-7.8,5.7-11.7
		c8.6-13.7,18.8-24.1,26.5-30.9h0.5C833.9,1125.4,838.6,1135.6,838.6,1135.6z"/>
	<path class="st0" d="M584.2,1499c0,0-199.2-150.8-214.5-439.2s193.8-172.1,271.3-75.2s116.6,419.5,115.4,430.6s-0.2,20-18.5,33.4
		S584.2,1499,584.2,1499z"/>
	<path class="st1" d="M781.8,1015.3c0,0,68.7,98.3,84,114.6c0,0,2.4,17.6-23.5,19.8c-25.8,2.3-36.7,7.4-46.9,14.5
		c-10.2,7.1-29.6-0.3-29.6-0.3l-27.9-64.6l4.1-36.4L781.8,1015.3z"/>
	<path class="st14" d="M584.4,1416.3c0,0-158.5-120-170.7-349.6s154.3-137,216-59.9s92.8,334,91.9,342.8s-0.2,15.9-14.8,26.6
		C692.2,1386.9,584.4,1416.3,584.4,1416.3z"/>
	<polyline class="st5" points="784.8,1055.1 828.1,1080.5 788.8,1126.1 860.8,1142.8 	"/>
	<path class="st10" d="M1089.2,1787.7c-44.9,48.3-165.6,71.1-165.6,71.1c16.7-18.4,9-67.3,9-67.3c-15.8-64.9-52.8-271.3-52.8-271.3
		l-297.5-4.2c-25.1-12.9-34.6-36.4-36.7-60.4c-3.2-35.6,9.7-72.3,11.6-77.6c0.2-0.4,0.2-0.6,0.2-0.6l147-77.4l109.1,65l29.1,17.3
		c0,0,12.6-2.1,30.9-3.3c22.3-1.4,53-1.5,80.1,5.2c5.2,1.3,10.3,2.8,15.2,4.7c23.6,8.9,41.9,24.6,45.1,51.5c0.7,5.6,1.6,12,2.7,19
		c7.8,49.1,25.5,129.7,41.5,198.8C1074.6,1728.9,1089.2,1787.7,1089.2,1787.7z"/>
	<path class="st12" d="M684.3,1366.7c0,0-51.3,60.9-95.6,79.9c-16.4,7-31.1,9.1-43.1,9c-3.2-35.6,9.7-72.3,11.6-77.6L684.3,1366.7z"
		/>
	<path class="st1" d="M544.9,1382.2c0,0-18,22-3.9,30.2c14.1,8.2,52.9-2.3,77.3-15.1c24.5-12.8,149.4-63.3,194.7-67
		c45.3-3.6,17.8-18.3,17.8-18.3s-36.2-13.5-62.8-14.7s-90.5,4.9-90.5,4.9s-55.1,3.2-83,28.1S544.9,1382.2,544.9,1382.2z"/>
	<path class="st12" d="M997.5,1342.7l-43.8,41.4l-50.2,51.1c-5.3,0.6-30.1-0.7-54.7-5.5c-62-12.1-159.1-34.9-159.1-34.9l123.9-30
		l29.1,17.3c0,0,12.6-2.1,30.9-3.3c18.6-16.1,41.6-29.7,44.9-34.7c5.1-7.7,52-8.6,52-8.6h4.3
		C974.8,1335.6,983.9,1338.3,997.5,1342.7z"/>
	<path class="st6" d="M781.3,1015.3c11.6,16.5,70.8,99.9,84.5,114.6c0,0,2.4,17.6-23.5,19.8c-25.8,2.3-36.7,7.4-46.9,14.5
		c-10.2,7.1-29.6-0.3-29.6-0.3l-27.9-64.6l4.1-36.4l37.5-44.8C780.7,1016.6,780.3,1013.8,781.3,1015.3z"/>
	<polygon class="st11" points="674.7,1390.7 675.8,1397.8 901.9,1420.3 901.9,1412.3 873.9,1399 	"/>
	<path class="st1" d="M830.8,1312.1c0,0-14.3,5.1-61.1,11.2c-24.6,3.2-50.1,7.3-76.5,15.1c-23.8,7.1-48.4,17.3-73.5,32.8
		c-53,32.6-76.2,14.3-76.2,14.3l-35-73.4l-5.7-28.2l-19.8-97.3c0,0,0-136.7,13.6-147.1c13.6-10.4,107.4-46.8,107.4-46.8
		s28,3.2,73.9-2.6c45.9-5.8,104,25.2,104,25.2s7.1,88.7,7.1,119.3C789,1165.2,830.8,1312.1,830.8,1312.1z"/>
	<path class="st4" d="M725.4,1284.1c-21.2,12.1-27.1,33.3-32.2,54.3c-23.8,7.1-48.4,17.3-73.5,32.8c-53,32.6-76.2,14.3-76.2,14.3
		l-35-73.4l-5.7-28.2l50.6-138.5c-0.5,2.3-23,109.6,65,124.2C707.4,1284.5,768.9,1259.3,725.4,1284.1z"/>
	<path class="st6" d="M603.9,992.7c0,0-93.8,36.4-107.4,46.8S483,1186.6,483,1186.6l25.5,125.5l35,73.4c0,0,23.2,18.4,76.2-14.3
		s103.2-41.8,150-47.9c46.8-6.1,61.1-11.2,61.1-11.2S789,1165.2,789,1134.6c0-27.3-5.7-100.7-6.9-116.4c-0.1-1.9-1.3-3.5-2.9-4.3
		c-12-5.9-61.3-28.8-101.3-23.8C631.9,995.9,603.9,992.7,603.9,992.7z"/>
	<path class="st7" d="M705.7,1049c-2.5,3.2-14.7,15.9-47.7,8.6s-60.4-55.3-60.4-55.3l40.9-63l12.4-19l18.1,16.9l12,11.2l26.7,36.3
		C707.8,984.7,708.3,1045.9,705.7,1049z"/>
	<path class="st9" d="M597.7,1002.3c0,0,27.3,48.1,60.4,55.3c33,7.3,45.2-5.4,47.7-8.6"/>
	<path class="st13" d="M662.7,962.6c0,0,6.3,40,19.9,51.1c13.6,11.1,25.2-3.9,25.2-3.9l1.1-34.5L662.7,962.6z"/>
	<path class="st13" d="M669.1,937.2c-1.4,1.6-3.4,3.2-6.3,4.2c-7.7,2.7-19.4-0.5-24.2-2l12.4-19L669.1,937.2z"/>
	<polyline class="st9" points="707.8,984.7 681.1,948.4 650.9,920.3 617.6,971.6 	"/>
	<path class="st11" d="M644.8,887.4c0,0-21.8-13.9-17.7-31.3s14.6-39.1,43.5-45.2c28.9-6.1,43.9-7.5,43.2-18
		c-0.7-10.5,13.6-21.8,20-8.8s10.5,4.4,26.5,6.1c16,1.7,15.6,18,24.5,32.3c8.8,14.3,29.2,30.6,18,46.2c-11.2,15.6-1.7,22.4-9.2,29.6
		c-7.5,7.1-33.3,9.9-33.3,9.9l-22.5-7.8c0,0-18.6-4.1-32.2-2.4c-13.7,1.7-23.2,3.7-35.4,1.7C658.1,897.6,644.8,887.4,644.8,887.4z"
		/>
	<path class="st7" d="M769.7,904.2c0,0-1.9,3.3-5.1,8.7c-10,17.2-32.2,55.1-43.1,72.4c-3.3,5.3-9.5,8.2-15.7,7.2
		c-17.4-2.6-50.3-13.6-47.7-60.5c0,0,1.2-26.1,1.6-27.9c0.3-1.8,7.8-21.9,17-25.3c0.9-0.3,2.3-1.3,4.2-2.7
		C699.3,862.4,761.2,806.9,769.7,904.2z"/>
	<path class="st0" d="M756.1,923c0-0.8-1.1-1.1-1.6-0.4c-4.4,6.7-17.1,26.7-16.6,30.3c0.6,4.4,10.7,7.6,15.5,5.8
		C757.4,957.1,756.5,931.4,756.1,923z"/>
	<path class="st0" d="M1836.1,777c-0.3-0.8-1.4-0.7-1.6,0.1c-2.1,7.7-8.3,30.6-6.7,33.9c1.9,4,12.5,4.1,16.5,0.9
		C1847.6,809.2,1839,784.9,1836.1,777z"/>
	<path class="st13" d="M769.7,904.2c0,0-1.9,3.3-5.1,8.7c-0.6-4.2,0.2-10.6-0.8-13.9c-1.8-5.9-9.7,7.2-24.9-2.7
		c-15.2-10-12-21.8-28.6-11.3c-16.5,10.4-31-4.8-31.7-4.8c0,0,0.9-1.5,2.4-3.9C699.3,862.4,761.2,806.9,769.7,904.2z"/>
	<path class="st11" d="M1036.5,1280.6l-134.6,131.8l-93.8-8.9l-82.8-7.9c0,0,0,0,0,0c0,0,0,0,0,0l-50.6-4.8l179.5-125.2l51.4,4.3
		l84.2,7L1036.5,1280.6z"/>
	<path class="st15" d="M989.8,1276.7l-181.6,126.7l-82.8-7.9c0,0,0,0,0,0l180.3-125.8L989.8,1276.7z"/>
	<ellipse class="st1" cx="697.4" cy="929.6" rx="8.3" ry="5.4"/>
	<path class="st11" d="M901.9,1420.3l132.6-132.4l1.9-7.4c0,0-50.3,19.6-71.6,41.2c-21.3,21.5-67.1,83.8-67.1,83.8L901.9,1420.3z"/>
	<path class="st11" d="M654.7,890.8c1.4,0,14.1,13.9,31.1,2c17-11.9,42.3-34.3,50.1-28.5c0,0,3.1,35.1,27.2,28.1c24.1-7,5-1.3,5-1.3
		l5.6-31.9c0,0,59.2-19.4-14.6-19c-73.8,0.3-82.6,4-85.3,7.8c-2.7,3.8-5.8,5.6-8.2,15C663.2,872.5,654.7,890.8,654.7,890.8z"/>
	<circle class="st11" cx="678.3" cy="779.4" r="9.7"/>
	<circle class="st11" cx="698.8" cy="790.3" r="4.9"/>
	<circle class="st11" cx="1994.4" cy="632.6" r="13"/>
	<circle class="st2" cx="1370.8" cy="1589.4" r="13"/>
	<circle class="st0" cx="1664.8" cy="1872.7" r="13"/>
	<circle class="st11" cx="1969.8" cy="651.4" r="6.6"/>
	<path class="st7" d="M696.9,1360.5c-35.8-6.3-159.1,7.3-184.3,7.3c-25.2,0-47.4,3.6-51.4-46.2c-2.3-27.5,0.5-73.5,3.4-109.3
		c2.4-29,4.8-51.2,4.8-51.2l2.3-0.9l48.9-9.5h0l4.5-0.9l12.8,8.2l18.9,12.2c0,0-8.6,26.5-14.5,55.1c-3.3,16.1-5.8,32.8-5.4,45.8
		c0.4,13.1,3.8,22.4,12.1,23.3c1.2,0.1,2.6,0.3,4.2,0.5c36.9,4.1,152.3,15,154.5,15.4C710.2,1310.6,732.8,1366.8,696.9,1360.5z"/>
	<path class="st13" d="M553.3,1294.8c-7.5,4.8-21.7,13.5-24.1,13.2c-3.4-0.3,7.8-37,7.8-37c0.4,13.1,3.8,22.4,12.1,23.3
		C550.4,1294.4,551.8,1294.6,553.3,1294.8z"/>
	<g>
		<g>
			<path class="st16" d="M980.2,965.6c0,0-1.8,1.6-4.8,4.6"/>
			<path class="st17" d="M966.3,980.1c-31,35.7-95.4,132.6,4.4,235.6"/>
			<path class="st16" d="M975.4,1220.6c1.6,1.5,3.1,3.1,4.8,4.6"/>
		</g>
	</g>
	<path class="st7" d="M695.1,1359.1c0,0,15.2,11.1,27,14.5c11.8,3.4,25.8,2.7,38.5,4.8c12.7,2,24.7,5.2,26.5,3.2
		c1.8-2,1.8-5.4-1.6-7s-35.1-16.8-35.1-16.8s23.8,1.4,30.8,3.9s34.2,12.5,34.2,12.5s7,1.6,7.3-4.1c0,0-28.8-18.8-32.6-19.3
		c-3.9-0.5-28.8-12.5-28.8-12.5l-61-14.1c0,0-12.7,1.4-12.7,11.8S695.1,1359.1,695.1,1359.1z"/>
	<g>
		<path class="st8" d="M2061.3,1918.8c-0.7,1.5-1.4,3-2,4.4h-38.8c-1.1,0-2.1-0.8-2.2-1.9l-5.7-44.5l-37.3,18.9
			c-1.1,0.6-2.4,0.1-3-1c-0.6-1.1-0.1-2.4,1-3l40.1-20.4c0.6-0.3,1.4-0.3,2,0c0.6,0.3,1.1,1,1.2,1.7l5.9,45.7H2061.3z"/>
	</g>
	<path class="st7" d="M758.8,1343c0,0,37.2,7.5,39,8.2s31.1,15.2,31.1,15.2s5.8,2.5,8.6-5.7c0,0-31.2-24-40.2-27
		c-9-2.9-80.2-12-80.2-12l-18.5,1.6l7.5,14.5L758.8,1343z"/>
	<path class="st7" d="M707.9,1310.1c0,0,46.8-0.1,55.4,1.8c8.7,1.9,72.1,32.3,72.1,32.3s-1.7,9.3-13,5.3c-11.3-4-19-7-32.1-8.9
		c-13.1-1.9-38.8-5.8-38.8-5.8l-33.9-6.7c0,0-12.7-3.7-13.2-7.6C704,1316.7,707.9,1310.1,707.9,1310.1z"/>
	<path class="st7" d="M773.1,1317.9c1.6,0,30.4,2.1,39.2-1.3c0,0,4.6,11.3-10.3,12c-14.9,0.7-24.4-1.1-25.5-2.7
		C775.4,1324.2,773.1,1317.9,773.1,1317.9z"/>
	<path class="st7" d="M832,1275c0,0-0.6,19.5,5.4,24.5c5.9,5,22,20.6,25.9,27c0,0,10.4-5.2,4.3-13.4s-7.9-16.1-7-19.5
		c0.9-3.4,15.2-8.4,15.2-8.4l19.9,11.1c0,0-0.7,33.8,0,35.8c0.7,2,4.5,5.2,8.2,2.3l6.1-40.1l-16.8-19.3l-25.6-12.7l-24.9,1.6
		L832,1275z"/>
	<path class="st7" d="M873.9,1265.4l56.1,19.3v23.2l-15.4,14.6c0,0-6.3-3.4-0.9-9.3c5.4-5.9,6.8-9.5,6.8-9.5l-0.5-14.3l-28.1-5.2
		l-14.5-6.8L873.9,1265.4z"/>
	<path class="st7" d="M885,1271l44.9,7c0,0,5.9,13.1,0,18.1c-5.9,5-10-6.6-10-6.6s-5.9-9.1-10-8.9c-4.1,0.1-17.7-2.1-17.7-2.1
		L885,1271z"/>
	<path class="st3" d="M1179.7,1954.7h-209c0,0-1.4-54.7,0-68.3c1.4-13.6,15.9-29.5,15.9-29.5l102.6-24l48,83.6l1.1,1.9
		c1.1,0.1,2.2,0.2,3.3,0.3c1.1,0.1,2.2,0.2,3.2,0.4C1173.4,1922.6,1179.7,1954.7,1179.7,1954.7z"/>
	<path class="st7" d="M1016.7,1459.2c-7,5.2-15.7,8.2-25.1,8.2c-23.5,0-42.6-19.1-42.6-42.6c0-15.2,7.9-28.5,19.9-36.1
		c23.6,8.9,41.9,24.6,45.1,51.5C1014.7,1445.9,1015.6,1452.2,1016.7,1459.2z"/>
	<path class="st7" d="M1117.6,1448.6h-0.2c-23.5,0-42.6-19.1-42.6-42.6c0-11.7,4.7-22.3,12.4-30c14.7,6.8,26.3,13.3,30.8,18.9
		C1122.7,1400.6,1122,1420.8,1117.6,1448.6z"/>
	<path class="st3" d="M2000.7,1954.7h-185.6l-53.2-8.5c0-0.4,0.1-21.1,31.1-21.1c7.3,0,16.3-1.6,25.9-4.7c2.5-0.8,5.1-1.8,7.7-2.8
		c18.2-7.3,37.4-19.6,50.6-36.5c0.9-1.2,1.8-2.4,2.7-3.6c6.8-9.6,11.6-20.5,13.4-32.6c4.7-32.1,80.9-31.3,80.9-31.3
		s10.9,57.8,12.2,68.7C1987.8,1893.1,2004.8,1909.8,2000.7,1954.7z"/>
	<path class="st4" d="M2037.4,1817.5c-19.7,8.1-44,14-72.5,13.8c-7.8,0-14.8-0.9-21.1-2.3c-6-18.9-10.5-38.4-10.5-38.4l4.1-130.9
		C1937.4,1659.7,2010.1,1755.4,2037.4,1817.5z"/>
	<polygon class="st15" points="901.9,1412.3 969.2,1205.7 1082,1133.6 1036.5,1280.5 	"/>
	<path class="st12" d="M863.3,1519.4c0,0,17.2-18.4,27.6-15.6c10.4,2.7-9.2,37-9.2,37"/>
	<path class="st0" d="M848.8,1546.3H560.1c-16.5,0-29.9-13.4-29.9-29.9l0,0h348.5l0,0C878.7,1532.9,865.3,1546.3,848.8,1546.3z"/>
	<circle class="st15" cx="569.6" cy="1519.1" r="41.3"/>
	<polygon class="st4" points="1705.9,1361.3 1556.6,1465 1556.6,1464.9 1554.3,1457.6 1524.5,1361.3 	"/>
	<circle class="st15" cx="704.4" cy="1832.8" r="14.2"/>
	<path class="st7" d="M1884.6,822.4l35.8,75.7c0,0,26.7,11.8,51.2,0s32.2-22.2,32.2-22.2l-37.2-53.5
		C1966.7,822.4,1904.6,808.8,1884.6,822.4z"/>
	<path class="st15" d="M580.9,1954.7h-90.7l0,0c0-9.9,8-17.9,17.9-17.9H563C572.9,1936.8,580.9,1944.8,580.9,1954.7L580.9,1954.7z"
		/>
	<path class="st13" d="M556.9,1170.1c0,0-8.6,26.5-14.5,55.1c-4.1-1.3-8.8-2.8-13.8-4.2c-17-4.8-22.1,10.5-36.4-4.1
		c-8.1-8.3-19.3-7.2-27.6-4.7c2.4-29,4.8-51.2,4.8-51.2l2.3-0.9l48.9-9.5h0c5.8,2,11.8,4.6,17.4,7.4L556.9,1170.1z"/>
	<path class="st15" d="M828,1954.7h90.7l0,0c0-9.9-8-17.9-17.9-17.9h-54.9C836,1936.8,828,1944.8,828,1954.7L828,1954.7z"/>
	<path class="st1" d="M1828.6,1587.8c-13.4-55.6-28.7-109.9-45.5-147.2"/>
	<path class="st1" d="M1783.1,1440.6c-32.3-71.4-23.5-225.1-2.4-254.3c21.1-29.2,158.2,44.2,158.2,44.2s27.9,69.4,0,101
		s-29,87.5-21.8,117.2c7.1,29.7,76.5,299,64.3,372.4c0,0-42.8,67.7-157.1,41c0,0,56.1-45.1,36.7-130.7c-9.2-40.9-20-92.7-32.3-143.5
		"/>
	<line class="st9" x1="1591.7" y1="1954.7" x2="2255.7" y2="1954.7"/>
	<line class="st9" x1="747.3" y1="1954.7" x2="1470.3" y2="1954.7"/>
	<rect x="1179.7" y="644.1" class="st0" width="541.3" height="706.3"/>
	<path class="st1" d="M1599.8,588.9h-299v-0.8c0-24.3,19.7-44,44-44h210.9c24.3,0,44,19.7,44,44V588.9z"/>
	<polygon class="st18" points="1206.4,902.5 1314.8,971.1 1330.3,855 	"/>
	<path class="st11" d="M1716.9,1381.3h-533c-7.7,0-14-6.3-14-14v-11.9c0-7.7,6.3-14,14-14h533c7.7,0,14,6.3,14,14v11.9
		C1730.8,1375,1724.6,1381.3,1716.9,1381.3z"/>
	<path class="st7" d="M1392.1,1366.8h-123c-3,0-5.5-2.5-5.5-5.5v0c0-3,2.5-5.5,5.5-5.5h123c3,0,5.5,2.5,5.5,5.5v0
		C1397.6,1364.4,1395.1,1366.8,1392.1,1366.8z"/>
	<circle class="st1" cx="1567.6" cy="1361.3" r="7.1"/>
	<circle class="st1" cx="1605.2" cy="1361.3" r="7.1"/>
	<polygon class="st3" points="1357.8,768.5 1333.2,845.9 1333.2,845.9 1331.5,851.4 1331.5,851.4 1331.2,852.1 1329.9,856.4 
		1305.2,933.9 1245,914.8 1238.7,912.8 1192.5,898.1 1205.8,856.2 1207.6,850.5 1210.4,841.6 1211.8,837.3 1245.1,732.6 1259,737.1 
		1265.6,739.1 1265.6,739.1 	"/>
	<line class="st9" x1="1293.5" y1="766.7" x2="1306.4" y2="720.8"/>
	<path class="st7" d="M1387.4,1153.3c0,0,21.1,115.9,89.8,94.7c68.7-21.2,72.8-50.8,72.8-50.8s-38.1-77.2-38.8-109.1
		C1511.1,1088,1435,1069.6,1387.4,1153.3z"/>
	<path class="st1" d="M1445.6,1248c0,0,32.9,19.6,66.9-27.4c34-46.9,61.7-105.4,85.6-114.9l66.7,32.6c0,0-40.8,44.2-45.6,79.6
		C1614.5,1253.3,1518.7,1269.2,1445.6,1248z"/>
	<path class="st9" d="M1429.2,1073.4c1,1.4,15,44.9,15,44.9"/>
	<path class="st19" d="M1464,776.4c2.3,0.2,52.1-13.2,28.1-33.5s28.6,43.6-4.5,81.7c-33.1,38.1-133.3,62.6-53,27.7
		s119.2-73.7,104.7-57c-14.5,16.7-25.4,52.9-4.1,44.3c21.3-8.6,11.3-20.4,24-19c12.7,1.4,60.7-84.8,21.8-15.9
		c-39,68.9-12.2,49.9-12.2,49.9s5.4-221.7,39-119.7c33.5,102,51.7,51.2,49,73"/>
	<path class="st19" d="M1473.7,924.1c2.7-1.4,27.9-57.3,27.9-22.9s12.2,34.4,22.4,18.8c10.2-15.6,7.5-6.4,9.5,10.1
		c2,16.5,16.3-7.8,12.9-33.8c-3.4-25.9,50.3-30.4,23.1,16.4c-27.2,46.8,3.4,109.3,3.4,66.5s-63.9-8.2-35.4,0.7
		c28.6,8.8,29.9-56.4,54.4-63.9s8.8,19,25.2,20.4s23.1-6.8,25.2-13.6"/>
	<line class="st9" x1="1616.8" y1="596.6" x2="1689.5" y2="629.7"/>
	<line class="st9" x1="1283.9" y1="596.6" x2="1211.3" y2="629.7"/>
	<line class="st9" x1="676.2" y1="1954.7" x2="714.2" y2="1954.7"/>
	<line class="st9" x1="1505.5" y1="1954.7" x2="1543.5" y2="1954.7"/>
	<line class="st9" x1="266.7" y1="1954.7" x2="650.8" y2="1954.7"/>
	<polygon class="st1" points="272.8,1639.7 207.1,1636.2 278.9,1600.9 350.7,1565.7 311.9,1635.6 273,1705.5 	"/>
	<polygon class="st1" points="2206.9,835.2 2241.1,843.5 2199.9,855 2158.6,866.5 2185.9,833.5 2213.3,800.6 	"/>
	<polygon class="st9" points="1638.2,1748.3 1605.2,1758.1 1634.5,1728.2 1663.7,1698.3 1656.8,1739.5 1649.8,1780.8 	"/>
	<polygon class="st7" points="880.2,976.5 918.9,947.3 895.2,1001.2 871.4,1055.1 860.2,997.3 848.9,939.5 	"/>
	<circle class="st20" cx="383.7" cy="824.2" r="34"/>
	<circle class="st21" cx="1036.5" cy="1071.7" r="34"/>
	<path class="st9" d="M721.6,985.3c-3.4,5.3-9.5,8.2-15.7,7.2c-17.4-2.6-50.4-13.6-47.7-60.5"/>
	
		<ellipse transform="matrix(0.9853 -0.1708 0.1708 0.9853 -144.8783 124.4722)" class="st7" cx="650.9" cy="904.2" rx="13.9" ry="28.1"/>
	<path class="st1" d="M449.7,1183.2c0,0,26-135,54.2-148.1c28.2-13.1,68.9,1.9,71.6,49.5c2.2,38.4-14.2,89.3-20.6,107.4
		c-1.3,3.7-5.2,5.7-9,4.7c-7-1.9-20.7,1.4-33.2,3.8c-19.7,3.7-18.8-15-35.8-13.6C459.9,1188.3,453.7,1196.5,449.7,1183.2z"/>
	<polyline class="st19" points="1031.8,1165.6 969.2,1205.7 928.6,1330.3 	"/>
	<path class="st22" d="M707.8,952.5c0,0,3.6,9.9,13.7,13.1"/>
	<circle class="st7" cx="569.6" cy="1519.1" r="26.9"/>
	<path class="st15" d="M756.7,1457.9H540.3c-6.6,0-12-5.4-12-12l0,0c0-5.9,4.8-10.7,10.7-10.7h228.7c4.8,0,7.3,5.8,4,9.3l-11,11.7
		C759.6,1457.3,758.2,1457.9,756.7,1457.9z"/>
	<path class="st15" d="M572.9,1519.4L572.9,1519.4c-3.3,1.3-6.9-0.3-8.3-3.5l-25.1-62.7l11.8-4.7l25.1,62.7
		C577.7,1514.4,576.1,1518.1,572.9,1519.4z"/>
	<path class="st9" d="M369.8,1059.9c-13-244.6,135.5-198.1,228.1-119.2"/>
	<line class="st9" x1="569.6" y1="1296.5" x2="686.6" y2="1308"/>
	<path class="st9" d="M464.6,1338.9c0,0-0.8,36.9,48.1,28.9"/>
	<line class="st23" x1="488.2" y1="1051.5" x2="574.7" y2="1109.5"/>
	<polyline class="st5" points="574.7,1109.5 464.6,1119.9 561.4,1171.8 	"/>
	<path class="st9" d="M842.1,1190c0,0,19.4,26.7,20.7,60.8"/>
	<path class="st9" d="M650.9,1155c0,0,56,14.8,96.8-12.2c40.7-27,9.1,58.3-39.1,70"/>
	<line class="st9" x1="1018.7" y1="1471.3" x2="1074.9" y2="1729"/>
	<line class="st19" x1="537.4" y1="1435.3" x2="698.5" y2="1435.3"/>
	<path class="st9" d="M798,1560.4c4.9,8.5,7.8,18.4,7.8,29c0,24.2-14.8,44.9-35.8,53.6"/>
	<path class="st9" d="M1783.1,1440.6c-32.3-71.4-23.5-225.1-2.4-254.3c21.1-29.2,158.2,44.2,158.2,44.2s27.9,69.4,0,101
		s-29,87.5-21.8,117.2c7.1,29.7,76.5,299,64.3,372.4c0,0-42.8,67.7-157.1,41c0,0,56.1-45.1,36.7-130.7
		c-7.8-34.4-16.6-76.5-26.6-119.2"/>
	<circle class="st8" cx="958.7" cy="782.7" r="9"/>
	<circle class="st8" cx="933.1" cy="756.8" r="17.8"/>
	<line class="st9" x1="970.5" y1="1941.6" x2="1066.4" y2="1941.6"/>
	<path class="st9" d="M662.7,925.6c-1.7,3.5-4.1,5.8-7,6.3c-7.6,1.3-15.9-10-18.5-25.3c-2.7-15.3,1.3-28.8,8.9-30.1"/>
	<path class="st11" d="M1668.9,833.3l49.7,11c2.3,0.5,4.3,2.1,5.3,4.3l53.3,117.7l-53,8.4L1665.1,838
		C1664,835.5,1666.2,832.8,1668.9,833.3z"/>
	<line class="st5" x1="451.9" y1="1171.8" x2="512.7" y2="1145.7"/>
	<path class="st6" d="M449.7,1183.2c0,0,23.8-133.7,52-146.8s71.1,0.6,73.8,48.2c2.2,38.4-14.2,89.3-20.6,107.4
		c-1.3,3.7-5.2,5.7-9,4.7c-7-1.9-20.7,1.4-33.2,3.8c-19.7,3.7-18.8-15-35.8-13.6C459.9,1188.3,453.7,1196.5,449.7,1183.2z"/>
	<path class="st12" d="M1789.9,1163.2c0,0-13.6,13.3-9.2,23.1c0,0,108.8,45.6,174.8,44.9c66-0.7,70-9.9,70-9.9s0-15.3-12.2-18.7
		c-12.2-3.4-19-13.6-63.2-19C1905.8,1178.1,1789.9,1163.2,1789.9,1163.2z"/>
	<g>
		<path class="st8" d="M1141.6,1918.6l-2.1,1.7l-9.5,7.5l-20,15.6c-0.4,0.3-0.9,0.5-1.4,0.5c-0.3,0-0.6-0.1-0.8-0.2l-60.2-24.6
			c-0.6-0.3-1.1-0.8-1.3-1.5c-0.2-0.7,0-1.4,0.4-1.9l37.5-48.6l-72.2,9c-1.2,0.2-2.3-0.7-2.5-1.9c-0.1-1.2,0.7-2.3,1.9-2.5l77.5-9.7
			c0.9-0.1,1.8,0.3,2.2,1.1c0.4,0.8,0.4,1.7-0.2,2.4l-39,50.5l56.3,23l16.1-12.6l10.8-8.5l2.1-1.6l1.1,1.9
			C1139.4,1918.4,1140.5,1918.5,1141.6,1918.6z"/>
	</g>
	<path class="st9" d="M1966.7,822.4c0,0-62.1-13.6-82.1,0"/>
	<line class="st9" x1="1986.1" y1="850.3" x2="1966.7" y2="822.4"/>
	<path class="st9" d="M1169.8,1930.3c0,0-22.5-21.7-80.6-9.5"/>
	<path class="st7" d="M1922.8,799.4l-8.2,36c0,0-37.1,29.9-54.7,20.1c-17.7-9.9-19-50.7-20.7-62.9c-1.7-12.2-7.1-16-13.3-30.6
		c-1.4-3.2-2.2-6.9-2.7-10.5c-1.7-12.9,1-26.5,1-26.5l33.1-4.3l27.1-3.5c0,0,8.5,6.8,12.2,11.2
		C1900.4,732.7,1922.8,799.4,1922.8,799.4z"/>
	<path class="st13" d="M1850.2,760.5c-8,3.8-18.9-2.7-26.9-9.1c-1.7-12.9,1-26.5,1-26.5l33.1-4.3
		C1857.4,720.6,1864.2,753.9,1850.2,760.5z"/>
	<path class="st11" d="M1855.9,682.8c0,0-59.8,16.3-27.9,45.9c26.7,24.7,35.7,16.3,39.4,33c3.7,16.7,29.9,17.3,32.3,39.1
		c2.4,21.8,9.9,47.9,38.1,42.8c28.2-5.1,28.6-7.1,28.6-7.1s29.9,17.7,41.1,2.7c11.2-15-3.4-33.3,2-47.3c5.4-13.9-2-40.8-17-50.3
		c-15-9.5,2.7-31.6-2.4-42.2s-41.1-23.1-51.7-38.8C1927.9,645,1858.2,615.8,1855.9,682.8z"/>
	<line class="st24" x1="1820.5" y1="1017" x2="1800.8" y2="1069.7"/>
	<path class="st7" d="M1784.8,997.1l-17.7-58.3l-13.6-18.7h-16.7c0,0-4.1,6.8,3.7,10.2l5.8,0.3l2.4,16.3l-9.9-1.7l-43.9-25.2
		c0,0-8.2,5.4-4.8,10.5s10.5,12.2,10.5,12.2l-6.5,1c0,0-4.4,7.8,2.4,11.2s27.9,15,27.9,15l38.4,42.5L1784.8,997.1z"/>
	<path class="st7" d="M1700.2,956.9c0,0-7.9,6.4-4.2,11.8l32.6,27.5l27.2,18.7l10.7-8.6l-7-31.5c0,0-16.3-18.4-27.2-19.7
		C1721.6,953.7,1700.2,956.9,1700.2,956.9z"/>
	<path class="st7" d="M1698,970.3c0,0-5.9,8.3,0,14.6c0,0,9.7,14.1,18.8,21.9c9.2,7.8,37.1,39.4,37.1,39.4l26.9-17.7l2.4-27.2
		l-13.6-21.8l-13.6-20.4l-30.3-11.2L1698,970.3z"/>
	<path class="st10" d="M1995,863.1c0,0,28.8-2.9,39,25.7c10.2,28.6-20.6,162.5-19.5,190.4s12.5,110.2,1,129.2
		c0,0-81.5,22.4-225.6-43.5c0,0-0.6-40.1,8.2-44.2c8.8-4.1,72.6-161.8,74.7-168c2.1-6.1,17.1-35.4,22.5-41.5
		c5.4-6.1-26.9-23.9-3.4-30.6C1915.4,874,1995,863.1,1995,863.1z"/>
	<path class="st10" d="M2032.8,947.9c0,0,20.5-61.2,15.5-69.4c-10-16.1-32.2-25.7-50.3-15.6c-18.1,10.1,3.6,55.4,8.6,61.8
		C2011.6,931.2,2032.8,947.9,2032.8,947.9z"/>
	<path class="st9" d="M2006.9,1477.8c0,0-21.8,99.2-19.8,121.6"/>
	<path class="st9" d="M1922.8,799.4c0,0-22.4-66.6-26.2-71.1s-12.2-11.2-12.2-11.2l-60.2,7.8c0,0-4.4,22.4,1.7,37.1
		s11.6,18.4,13.3,30.6c1.7,12.2,3.1,53,20.7,62.9c6.5,3.6,15.7,1.9,24.7-1.9"/>
	<ellipse class="st7" cx="1878.3" cy="769.1" rx="13.6" ry="26.2"/>
	<ellipse class="st9" cx="1878.3" cy="769.1" rx="13.6" ry="26.2"/>
	<path class="st9" d="M1995,863.1c0,0,28.8-2.9,39,25.7c10.2,28.6-20.6,162.5-19.5,190.4"/>
	<path class="st7" d="M1909.4,874.6c0,0,15.2,18,18.3,18.9c0,0,74.8-13.6,76.2-17.7c1.4-4.1-11.1-16-11.1-16
		S1920.9,853.5,1909.4,874.6z"/>
	<path class="st10" d="M1846.3,947.3c0,0,9.5-61.9,32-66c22.4-4.1,57.8,11.6,51,47.6s-84,213.5-106.6,223.7s-92.6-100.6-92.6-100.6
		s12.2-16.3,17.7-15c5.4,1.4-1.4-36,11.6-31.3c12.9,4.8,19.7-11.6,25.8-10.9s23.1,55.1,23.1,55.1L1846.3,947.3z"/>
	<path class="st12" d="M1990.9,1098.9c0,0-4.1,44.9-34.2,34.7c-30.1-10.2-33.8-27.9-33.8-27.9"/>
	<path class="st9" d="M1982.2,1857c2,11.3,3.8,21.3,4.2,25.3c1.2,10,15.7,24.8,14.9,61.9"/>
	<path class="st9" d="M1837,1912.9c0,0,45.9,4.7,67.2-6.2"/>
	<path class="st9" d="M2069.4,1816.7c0,0,13.2,50.5,1.8,77.9"/>
	<g>
		<path class="st25" d="M1867.2,1335.8c-0.5,0-1.1-0.2-1.5-0.6l-53-49.2c-0.7-0.6-0.9-1.6-0.6-2.4c0.3-0.8,1.1-1.4,2.1-1.4h73.2
			l-64.4-44.5c-1-0.7-1.3-2.1-0.6-3.1c0.7-1,2.1-1.3,3.1-0.6l70.2,48.6c0.8,0.5,1.1,1.6,0.9,2.5c-0.3,0.9-1.1,1.6-2.1,1.6h-74.7
			l48.8,45.4c0.9,0.8,0.9,2.2,0.1,3.1C1868.4,1335.6,1867.8,1335.8,1867.2,1335.8z"/>
	</g>
	<path class="st6" d="M1824.4,1235.8c0,0-13.8,60.3-13.7,76.2l34.1,29.5l43.1-15l11.8-73.4L1824.4,1235.8z"/>
	<path class="st6" d="M2028,1258.6c-17.5,5.8-45.3,4-45.3,4s6,44,9.3,52.6c2.7,7.1,29.6,28.6,38.7,35.7"/>
	<line class="st9" x1="1795.3" y1="1481.1" x2="1820.7" y2="1562.2"/>
	<line class="st9" x1="1884.6" y1="822.4" x2="1904.5" y2="864.4"/>
	<g>
		<path class="st8" d="M1924.5,1901.9l-28.1,34.7c-0.4,0.5-1.1,0.8-1.7,0.8c-0.2,0-0.3,0-0.5-0.1l-75.3-17.1
			c2.5-0.8,5.1-1.8,7.7-2.8l67.2,15.2l25.5-31.5l-42.1-20.3c0.9-1.2,1.8-2.4,2.7-3.6l43.8,21.1c0.6,0.3,1,0.9,1.2,1.5
			C1925,1900.7,1924.9,1901.4,1924.5,1901.9z"/>
	</g>
	<polyline class="st26" points="1861.8,896.8 1920,959.1 1827.5,998 1866.7,1082.6 1776.5,1117 1800.8,1027.6 1730.1,1052 	"/>
	<path class="st9" d="M1876.6,1062c-21.4,45.6-43.4,85.9-53.9,90.6c-22.6,10.2-92.6-100.6-92.6-100.6s12.2-16.3,17.7-15
		c5.4,1.4-1.4-36,11.6-31.3c12.9,4.8,19.7-11.6,25.8-10.9s23.1,55.1,23.1,55.1l38.1-102.7c0,0,9.5-61.9,32-66
		c22.4-4.1,57.8,11.6,51,47.6c-1.5,7.8-6.2,22.2-13,40.1"/>
	<g>
		<polygon class="st8" points="1207.6,850.5 1245,914.8 1238.7,912.8 1205.8,856.2 		"/>
		<polygon class="st8" points="1211.8,837.3 1331.2,852.1 1329.9,856.4 1210.4,841.6 		"/>
		<polygon class="st8" points="1333.2,845.9 1333.2,845.9 1331.5,851.4 1259,737.1 1265.6,739.1 1265.6,739.1 		"/>
	</g>
	<path class="st19" d="M1247.5,809.7c0,0,38.7-51.2,11.1-8.6c-27.7,42.6-6.8,27.1,6.8,25.8s-15.4,37.7,14.5,28.2"/>
	<path class="st27" d="M1217.8,1669.9c2.3-0.2,35.8,0,45.8-18.2c10.2-18.7,2.4-24.8,2.4-24.8"/>
	<g>
		<path class="st2" d="M1165.9,1800.6c0,0-83.6-102-22.4-142.8s47.9-62.2,61.2-115.3c13.3-53,113.2-122.4,133.6-42.8
			c20.4,79.6-30.6,77.5-5.1,113.2c25.5,35.7-38.8,93.8-53,118.3C1265.8,1755.8,1274,1812.9,1165.9,1800.6z"/>
		<path class="st19" d="M1195.6,1744.3c0,0-19.9-23.2-10.7-48"/>
		<path class="st9" d="M1143.4,1866.7c5.6-2.6,50.9-49.2,79.9-28.8c29,20.4,11.8,70.3-30.8,53
			C1149.9,1873.6,1143.4,1866.7,1143.4,1866.7z"/>
		<path class="st9" d="M1137.6,1889.1c0,0-32.6-69.9-79.3-60.4c-46.7,9.5-32.2,63.5,13.6,53.9
			C1117.7,1873.2,1137.6,1889.1,1137.6,1889.1z"/>
		<path class="st19" d="M1226.6,1669.4c0,0,30.2,2.1,37-31.9"/>
		<path class="st9" d="M1132.2,1948.5c-5.3-68.6,40.8-163,65.1-207.4c15.5-28.3,27.1-58.6,33.9-90.2c2.9-13.5,5.2-28,6.1-42
			c3.1-51,38.3-79.6,50.3-75.5"/>
	</g>
	<path class="st2" d="M983.3,1629.6c-13.2-2.6-61.6-1.9-80.3,137.8c0,0,50.3,27.3,65.3-13.9s18.4-50.8,18.4-50.8
		s-2.7,45.7,25.8,23.9c28.6-21.8,38.6-68.4,38.6-68.4s-20.8-24.4-58.6-27.4C989.4,1630.5,986.3,1630.2,983.3,1629.6z"/>
	<path class="st19" d="M1008,1654.7c0,0-61.2,2.3-72.1,53.5"/>
	<path class="st0" d="M1794.8,1745.1c0,0-37.2,117.3,20.6,139c57.8,21.8,131.9-53.7,143.5-97.2s-13.8-40.9-28.3-23.2
		c-14.5,17.7-73.4,48.7-73.4,48.7l-21.5,3.2l-13.2-15.5l-5.8-29.5C1816.6,1770.6,1807.5,1708.8,1794.8,1745.1z"/>
	<path class="st9" d="M1945.6,1771.6c0,0-25.2,53-82.7,65.3"/>
	<path class="st9" d="M1140.7,1876.4c-3.1-2.3-26.9-55.4-39.1-103.6c-12.2-48.3-36-160.5-140.1-139.7"/>
	<path class="st9" d="M1734.4,1954.2c0,0,0.9-129.8,32-172.7c31.8-43.9,34-57.8,44.9-32c10.9,25.8,3.4,93.2,57.1,57.1
		c53.7-36,72.1-50.2,72.1-50.2"/>
	<polygon class="st4" points="1052.1,1004.7 939.2,908.2 1034.8,927.2 	"/>
	<g>
		
			<rect x="924.7" y="842.3" transform="matrix(0.92 0.3918 -0.3918 0.92 433.2277 -330.2105)" class="st3" width="202" height="108.1"/>
		<polyline class="st8" points="954,807.1 1025.7,896.4 1139.8,886.2 		"/>
		<circle class="st0" cx="1139.8" cy="886.2" r="26.5"/>
		<polyline class="st9" points="969.9,826.9 1025.7,896.4 1074,892.1 		"/>
	</g>
	<line class="st9" x1="1700.8" y1="942.8" x2="1720.2" y2="954.7"/>
	<path class="st9" d="M1806.9,947.9c0,0,9.6,22.4,10.5,24.3"/>
	<line class="st9" x1="1770.2" y1="948.8" x2="1779" y2="977.9"/>
</g>
</svg>
