<?xml version="1.0" encoding="utf-8"?>
<!-- Generator: Adobe Illustrator 24.3.0, SVG Export Plug-In . SVG Version: 6.00 Build 0)  -->
<svg version="1.1" id="illustrations" xmlns="http://www.w3.org/2000/svg" xmlns:xlink="http://www.w3.org/1999/xlink" x="0px"
	 y="0px" viewBox="0 0 2500 2500" style="enable-background:new 0 0 2500 2500;" xml:space="preserve">
<style type="text/css">
	.st0{fill:#F299AC;}
	.st1{fill:#98DAF4;}
	.st2{fill:#B0ECFF;}
	.st3{fill:#F4D862;}
	.st4{fill:#FFFFFF;}
	.st5{fill:#82C0E0;}
	.st6{fill:none;stroke:#B6FCFF;stroke-width:4.4199;stroke-linecap:round;stroke-linejoin:round;stroke-miterlimit:10;}
	.st7{fill:none;stroke:#1B2638;stroke-width:4.4199;stroke-miterlimit:10;}
	.st8{fill:#FFF27D;}
	.st9{fill:none;stroke:#1B2638;stroke-width:4.4199;stroke-linecap:round;stroke-linejoin:round;stroke-miterlimit:10;}
	.st10{fill:#65ABE0;}
	.st11{fill:#1B2638;}
	.st12{fill:#4B8CC6;}
	.st13{fill:#DAE4EA;}
	.st14{fill:#F9B9CE;}
	.st15{fill:#253544;}
	.st16{fill:none;stroke:#FFFFFF;stroke-width:4.4199;stroke-linecap:round;stroke-linejoin:round;}
	.st17{fill:none;stroke:#FFFFFF;stroke-width:4.4199;stroke-linecap:round;stroke-linejoin:round;stroke-dasharray:13.494,13.494;}
	.st18{fill:#E5889A;}
	.st19{fill:none;stroke:#FFFFFF;stroke-width:4.4199;stroke-linecap:round;stroke-linejoin:round;stroke-miterlimit:10;}
	.st20{fill:none;stroke:#98DAF4;stroke-width:4.4199;stroke-miterlimit:10;}
	.st21{fill:none;stroke:#65ABE0;stroke-width:4.4199;stroke-miterlimit:10;}
	.st22{fill:#FFFFFF;stroke:#2A353F;stroke-width:3.3149;stroke-linecap:round;stroke-linejoin:round;stroke-miterlimit:10;}
	.st23{fill:none;stroke:#B6FCFF;stroke-width:4.4199;stroke-miterlimit:10;}
	.st24{fill:none;stroke:#1B2638;stroke-width:1.105;stroke-linecap:round;stroke-linejoin:round;stroke-miterlimit:10;}
	.st25{fill:#B6FCFF;}
	.st26{fill:none;stroke:#98DAF4;stroke-width:4.4199;stroke-linecap:round;stroke-linejoin:round;stroke-miterlimit:10;}
	.st27{fill:none;stroke:#B0ECFF;stroke-width:4.4199;stroke-miterlimit:10;}
	.st28{fill:none;stroke:#B0ECFF;stroke-width:4;stroke-linecap:round;stroke-linejoin:round;stroke-miterlimit:10;}
	.st29{fill:none;stroke:#1B2638;stroke-width:4;stroke-linecap:round;stroke-linejoin:round;stroke-miterlimit:10;}
	.st30{fill:none;stroke:#98DAF4;stroke-width:4;stroke-miterlimit:10;}
	.st31{fill:none;stroke:#65ABE0;stroke-width:4;stroke-miterlimit:10;}
	.st32{fill:none;stroke:#FFFFFF;stroke-width:4;stroke-linecap:round;stroke-linejoin:round;stroke-miterlimit:10;}
	.st33{fill:none;stroke:#B6FCFF;stroke-width:4;stroke-linecap:round;stroke-linejoin:round;stroke-miterlimit:10;}
	.st34{fill:none;stroke:#1B2638;stroke-width:4;stroke-miterlimit:10;}
	.st35{fill:none;stroke:#1B2638;stroke-width:3;stroke-linecap:round;stroke-linejoin:round;stroke-miterlimit:10;}
	.st36{fill:#FFFFFF;stroke:#1B2638;stroke-width:4;stroke-linecap:round;stroke-linejoin:round;stroke-miterlimit:10;}
	.st37{fill:none;stroke:#65ABE0;stroke-width:4;stroke-linecap:round;stroke-linejoin:round;}
	.st38{fill:none;stroke:#65ABE0;stroke-width:4;stroke-linecap:round;stroke-linejoin:round;stroke-dasharray:12.2119,12.2119;}
	.st39{fill:none;stroke:#FFFFFF;stroke-width:4;stroke-miterlimit:10;}
	.st40{fill:#F4D862;stroke:#1B2638;stroke-width:4;stroke-linecap:round;stroke-linejoin:round;stroke-miterlimit:10;}
	.st41{fill:none;stroke:#65ABE0;stroke-width:4;stroke-linecap:round;stroke-linejoin:round;stroke-dasharray:11.8323,11.8323;}
	.st42{fill:none;stroke:#F4D862;stroke-width:5;stroke-miterlimit:10;}
	.st43{fill:none;stroke:#FFF27D;stroke-width:4;stroke-linecap:round;stroke-linejoin:round;stroke-miterlimit:10;}
	.st44{fill:none;stroke:#65ABE0;stroke-width:4;stroke-linecap:round;stroke-linejoin:round;stroke-dasharray:11.8497,11.8497;}
	.st45{fill:none;stroke:#1B2638;stroke-width:4.7246;stroke-linecap:round;stroke-linejoin:round;stroke-miterlimit:10;}
	.st46{fill:none;stroke:#1B2638;stroke-width:5.9057;stroke-linecap:round;stroke-linejoin:round;stroke-miterlimit:10;}
	.st47{fill:#EAB853;}
	.st48{fill:none;stroke:#98DAF4;stroke-width:4.7246;stroke-miterlimit:10;}
	.st49{fill:none;stroke:#65ABE0;stroke-width:4.7246;stroke-miterlimit:10;}
	.st50{fill:none;stroke:#65ABE0;stroke-width:4.7246;stroke-linecap:round;stroke-linejoin:round;}
	
		.st51{fill:none;stroke:#65ABE0;stroke-width:4.7246;stroke-linecap:round;stroke-linejoin:round;stroke-dasharray:14.7632,14.7632;}
	.st52{fill:none;stroke:#98DAF4;stroke-width:4.7246;stroke-linecap:round;stroke-linejoin:round;stroke-miterlimit:10;}
	.st53{fill:none;stroke:#FFF27D;stroke-width:4.7246;stroke-linecap:round;stroke-linejoin:round;stroke-miterlimit:10;}
	.st54{fill:none;stroke:#FFFFFF;stroke-width:5.9057;stroke-linecap:round;stroke-linejoin:round;stroke-miterlimit:10;}
	.st55{fill:none;stroke:#65ABE0;stroke-width:4.8739;stroke-miterlimit:10;}
	.st56{fill:none;stroke:#1B2638;stroke-width:4.8739;stroke-linecap:round;stroke-linejoin:round;stroke-miterlimit:10;}
	.st57{fill:none;stroke:#1B2638;stroke-width:4.8739;stroke-miterlimit:10;}
	.st58{fill:none;stroke:#B6FCFF;stroke-width:4.8739;stroke-linecap:round;stroke-linejoin:round;stroke-miterlimit:10;}
	.st59{fill:none;stroke:#FFF27D;stroke-width:6.0924;stroke-linecap:round;stroke-linejoin:round;stroke-miterlimit:10;}
	.st60{fill:none;stroke:#98DAF4;stroke-width:4.8739;stroke-miterlimit:10;}
	.st61{fill:none;stroke:#FFFFFF;stroke-width:4.8739;stroke-linecap:round;stroke-linejoin:round;stroke-miterlimit:10;}
	.st62{fill:none;stroke:#000000;stroke-width:1.2185;stroke-linecap:round;stroke-linejoin:round;stroke-miterlimit:10;}
	.st63{fill:none;stroke:#B0ECFF;stroke-width:4.8739;stroke-miterlimit:10;}
	.st64{fill:none;stroke:#1B2638;stroke-width:4.8739;stroke-linecap:round;stroke-linejoin:round;}
	
		.st65{fill:none;stroke:#1B2638;stroke-width:4.8739;stroke-linecap:round;stroke-linejoin:round;stroke-dasharray:13.9257,13.9257;}
	.st66{fill:none;stroke:#FFFFFF;stroke-width:6.0924;stroke-linecap:round;stroke-linejoin:round;stroke-miterlimit:10;}
	.st67{fill:none;stroke:#1B2638;stroke-width:4.4753;stroke-linecap:round;stroke-linejoin:round;stroke-miterlimit:10;}
	.st68{fill:none;stroke:#FFF27D;stroke-width:11.1884;stroke-linecap:round;stroke-linejoin:round;stroke-miterlimit:10;}
	.st69{fill:none;stroke:#FFFFFF;stroke-width:3.3565;stroke-miterlimit:10;}
	.st70{fill:none;stroke:#65ABE0;stroke-width:4.4753;stroke-miterlimit:10;}
	.st71{fill:none;stroke:#FFFFFF;stroke-width:4.4753;stroke-linecap:round;stroke-linejoin:round;stroke-miterlimit:10;}
	.st72{fill:none;stroke:#1B2638;stroke-width:3.3565;stroke-linecap:round;stroke-linejoin:round;stroke-miterlimit:10;}
	.st73{fill:none;stroke:#FFFFFF;stroke-width:3.3565;stroke-linecap:round;stroke-linejoin:round;stroke-miterlimit:10;}
	.st74{fill:none;stroke:#1B2638;stroke-width:5.0317;stroke-linecap:round;stroke-linejoin:round;stroke-miterlimit:10;}
	.st75{fill:none;stroke:#1B2638;stroke-width:4.4043;stroke-linecap:round;stroke-linejoin:round;stroke-miterlimit:10;}
	.st76{fill:none;stroke:#1B2638;stroke-width:4.9518;stroke-linecap:round;stroke-linejoin:round;stroke-miterlimit:10;}
	.st77{fill:none;stroke:#FFFFFF;stroke-width:4.9518;stroke-linecap:round;stroke-linejoin:round;stroke-miterlimit:10;}
	.st78{fill:none;stroke:#000000;stroke-width:1.1011;stroke-miterlimit:10;}
	.st79{fill:none;stroke:#98DAF4;stroke-width:12.1119;stroke-linecap:round;stroke-linejoin:round;stroke-miterlimit:10;}
	.st80{fill:none;stroke:#FFFFFF;stroke-width:4.4043;stroke-linecap:round;stroke-linejoin:round;stroke-miterlimit:10;}
	.st81{fill:none;stroke:#B6FCFF;stroke-width:4.9518;stroke-linecap:round;stroke-linejoin:round;stroke-miterlimit:10;}
	.st82{fill:none;stroke:#1B2638;stroke-width:15.4151;stroke-linecap:round;stroke-linejoin:round;stroke-miterlimit:10;}
	.st83{fill:none;stroke:#98DAF4;stroke-width:4.4043;stroke-miterlimit:10;}
	.st84{fill:none;stroke:#65ABE0;stroke-width:4.4043;stroke-miterlimit:10;}
	.st85{fill:none;stroke:#FFF27D;stroke-width:14.314;stroke-linecap:round;stroke-linejoin:round;stroke-miterlimit:10;}
	.st86{fill:none;stroke:#FFF27D;stroke-width:4.3371;stroke-linecap:round;stroke-linejoin:round;stroke-miterlimit:10;}
	.st87{fill:none;stroke:#65ABE0;stroke-width:4.3371;stroke-linecap:round;stroke-linejoin:round;stroke-miterlimit:10;}
	.st88{fill:#F9B7D2;}
	.st89{fill:none;stroke:#F299AC;stroke-width:6.5057;stroke-linecap:round;stroke-linejoin:round;stroke-miterlimit:10;}
	.st90{fill:none;stroke:#98DAF4;stroke-width:6.5057;stroke-linecap:round;stroke-linejoin:round;stroke-miterlimit:10;}
	.st91{fill:none;stroke:#98DAF4;stroke-width:3.2528;stroke-miterlimit:10;}
	.st92{fill:none;stroke:#F4D862;stroke-width:8.6743;stroke-linecap:round;stroke-linejoin:round;stroke-miterlimit:10;}
	.st93{fill:none;stroke:#1B2638;stroke-width:5.4214;stroke-linecap:round;stroke-linejoin:round;stroke-miterlimit:10;}
	.st94{fill:none;stroke:#1B2638;stroke-width:4.3371;stroke-linecap:round;stroke-linejoin:round;stroke-miterlimit:10;}
	.st95{fill:#B1F3FC;}
	.st96{fill:none;stroke:#98DAF4;stroke-width:4.3371;stroke-linecap:round;stroke-linejoin:round;stroke-miterlimit:10;}
	.st97{fill:none;stroke:#65ABE0;stroke-width:4.3371;stroke-miterlimit:10;}
	.st98{fill:none;stroke:#1B2638;stroke-width:4.8763;stroke-linecap:round;stroke-linejoin:round;stroke-miterlimit:10;}
	.st99{fill:none;stroke:#1B2638;stroke-width:1.0843;stroke-miterlimit:10;}
	.st100{fill:none;stroke:#FFFFFF;stroke-width:4.3371;stroke-linecap:round;stroke-linejoin:round;stroke-miterlimit:10;}
	.st101{fill:none;stroke:#FFFFFF;stroke-width:5.4643;stroke-linecap:round;stroke-linejoin:round;stroke-miterlimit:10;}
	.st102{fill:none;stroke:#1B2638;stroke-width:4.3714;stroke-linecap:round;stroke-linejoin:round;stroke-miterlimit:10;}
	.st103{fill:none;stroke:#98DAF4;stroke-width:4.3714;stroke-linecap:round;stroke-linejoin:round;stroke-miterlimit:10;}
	.st104{fill:none;stroke:#FFFFFF;stroke-width:4.3714;stroke-linecap:round;stroke-linejoin:round;stroke-miterlimit:10;}
	.st105{fill:none;stroke:#FFF27D;stroke-width:4.3714;stroke-linecap:round;stroke-linejoin:round;stroke-miterlimit:10;}
	.st106{fill:none;stroke:#65ABE0;stroke-width:4.3714;stroke-miterlimit:10;}
	.st107{fill:none;stroke:#000000;stroke-width:1.0929;stroke-miterlimit:10;}
	.st108{fill:none;stroke:#1B2638;stroke-width:22.9499;stroke-linecap:round;stroke-linejoin:round;stroke-miterlimit:10;}
	.st109{fill:none;stroke:#1B2638;stroke-width:12.0214;stroke-miterlimit:10;}
	.st110{fill:none;stroke:#1B2638;stroke-width:17.4857;stroke-linecap:round;stroke-linejoin:round;stroke-miterlimit:10;}
	.st111{fill:none;stroke:#1B2638;stroke-width:4.9148;stroke-linecap:round;stroke-linejoin:round;stroke-miterlimit:10;}
	.st112{fill:none;stroke:#FFFFFF;stroke-width:4.9148;stroke-linecap:round;stroke-linejoin:round;stroke-miterlimit:10;}
	.st113{fill:#CE6E84;}
	.st114{fill:none;stroke:#1B2638;stroke-width:4.5447;stroke-linecap:round;stroke-linejoin:round;stroke-miterlimit:10;}
	.st115{fill:none;stroke:#FFF27D;stroke-width:4.5447;stroke-linecap:round;stroke-linejoin:round;stroke-miterlimit:10;}
	.st116{fill:none;stroke:#B6FCFF;stroke-width:5.6809;stroke-linecap:round;stroke-linejoin:round;stroke-miterlimit:10;}
	.st117{fill:none;stroke:#1B2638;stroke-width:5.1097;stroke-linecap:round;stroke-linejoin:round;stroke-miterlimit:10;}
	.st118{fill:none;stroke:#1B2638;stroke-width:15.9065;stroke-linecap:round;stroke-linejoin:round;stroke-miterlimit:10;}
	.st119{fill:none;stroke:#FFFFFF;stroke-width:4.5447;stroke-linecap:round;stroke-linejoin:round;stroke-miterlimit:10;}
	.st120{fill:none;stroke:#1B2638;stroke-width:5.6809;stroke-linecap:round;stroke-linejoin:round;stroke-miterlimit:10;}
	.st121{fill:none;stroke:#98DAF4;stroke-width:4.5447;stroke-miterlimit:10;}
	.st122{fill:none;stroke:#65ABE0;stroke-width:4.5447;stroke-miterlimit:10;}
	.st123{fill:#F4D862;stroke:#1B2638;stroke-width:4.5447;stroke-linecap:round;stroke-linejoin:round;stroke-miterlimit:10;}
	.st124{fill:#F4D862;stroke:#1B2638;stroke-width:5.1097;stroke-linecap:round;stroke-linejoin:round;stroke-miterlimit:10;}
	.st125{fill:#FFFFFF;stroke:#1B2638;stroke-width:5.1097;stroke-linecap:round;stroke-linejoin:round;stroke-miterlimit:10;}
	.st126{fill:none;stroke:#65ABE0;stroke-width:4.5832;stroke-linecap:round;stroke-linejoin:round;stroke-miterlimit:10;}
	.st127{fill:none;stroke:#1B2638;stroke-width:4.5832;stroke-linecap:round;stroke-linejoin:round;stroke-miterlimit:10;}
	.st128{fill:none;stroke:#65ABE0;stroke-width:4.5832;stroke-miterlimit:10;}
	.st129{fill:none;stroke:#1B2638;stroke-width:5.7289;stroke-linecap:round;stroke-linejoin:round;stroke-miterlimit:10;}
	.st130{fill:none;stroke:#FFFFFF;stroke-width:4.5832;stroke-linecap:round;stroke-linejoin:round;stroke-miterlimit:10;}
	.st131{fill:none;stroke:#1B2638;stroke-width:6.8747;stroke-linecap:round;stroke-linejoin:round;stroke-miterlimit:10;}
	.st132{fill:none;stroke:#1B2638;stroke-width:5;stroke-linecap:round;stroke-linejoin:round;stroke-miterlimit:10;}
	.st133{fill:none;stroke:#EAB853;stroke-width:4;stroke-linecap:round;stroke-linejoin:round;stroke-miterlimit:10;}
	.st134{fill:none;stroke:#FFF985;stroke-width:4;stroke-linecap:round;stroke-linejoin:round;stroke-miterlimit:10;}
	.st135{fill:#E2869E;}
	.st136{fill:none;stroke:#98DAF4;stroke-width:4;stroke-linecap:round;stroke-linejoin:round;stroke-miterlimit:10;}
	.st137{fill:none;stroke:#000000;stroke-miterlimit:10;}
	.st138{fill:none;stroke:#1B2638;stroke-width:21;stroke-linecap:round;stroke-linejoin:round;stroke-miterlimit:10;}
	.st139{fill:none;stroke:#1B2638;stroke-width:11;stroke-miterlimit:10;}
	.st140{fill:none;stroke:#1B2638;stroke-width:16;stroke-linecap:round;stroke-linejoin:round;stroke-miterlimit:10;}
	.st141{fill:none;stroke:#1B2638;stroke-width:4.4972;stroke-linecap:round;stroke-linejoin:round;stroke-miterlimit:10;}
	.st142{fill:none;stroke:#FFFFFF;stroke-width:4.4972;stroke-linecap:round;stroke-linejoin:round;stroke-miterlimit:10;}
	.st143{fill:none;stroke:#65ABE0;stroke-width:4;stroke-linecap:round;stroke-linejoin:round;stroke-miterlimit:10;}
	.st144{fill:none;stroke:#1B2638;stroke-miterlimit:10;}
	.st145{fill:none;stroke:#FFFFFF;stroke-width:5;stroke-linecap:round;stroke-linejoin:round;stroke-miterlimit:10;}
	.st146{fill:none;stroke:#F299AC;stroke-width:7;stroke-linecap:round;stroke-linejoin:round;stroke-miterlimit:10;}
	.st147{fill:none;stroke:#1B2638;stroke-width:7;stroke-linecap:round;stroke-linejoin:round;stroke-miterlimit:10;}
	.st148{fill:none;stroke:#1B2638;stroke-width:15;stroke-linecap:round;stroke-linejoin:round;stroke-miterlimit:10;}
	.st149{fill:#65ABE0;stroke:#1B2638;stroke-width:4;stroke-linecap:round;stroke-linejoin:round;stroke-miterlimit:10;}
	.st150{fill:none;stroke:#B1F3FC;stroke-width:4;stroke-linecap:round;stroke-linejoin:round;stroke-miterlimit:10;}
	.st151{fill:none;stroke:#F299AC;stroke-width:3;stroke-linecap:round;stroke-linejoin:round;stroke-miterlimit:10;}
	.st152{fill:none;stroke:#1B2638;stroke-width:6;stroke-linecap:round;stroke-linejoin:round;stroke-miterlimit:10;}
	.st153{fill:none;stroke:#FFF27D;stroke-width:5;stroke-linecap:round;stroke-linejoin:round;stroke-miterlimit:10;}
	.st154{fill:none;stroke:#FFF27D;stroke-width:6;stroke-linecap:round;stroke-linejoin:round;stroke-miterlimit:10;}
	.st155{fill:none;stroke:#F299AC;stroke-width:4;stroke-linecap:round;stroke-linejoin:round;stroke-miterlimit:10;}
	.st156{fill:none;stroke:#98DAF4;stroke-width:7;stroke-linecap:round;stroke-linejoin:round;stroke-miterlimit:10;}
	.st157{fill:none;stroke:#1B2638;stroke-width:14;stroke-linecap:round;stroke-linejoin:round;stroke-miterlimit:10;}
	.st158{fill:none;stroke:#FFFFFF;stroke-width:4;stroke-linecap:round;stroke-linejoin:round;stroke-dasharray:11.9734,11.9734;}
	.st159{fill:#B0ECFF;stroke:#1B2638;stroke-width:4;stroke-linecap:round;stroke-linejoin:round;stroke-miterlimit:10;}
	.st160{fill:#B1F3FC;stroke:#1B2638;stroke-width:4;stroke-linecap:round;stroke-linejoin:round;stroke-miterlimit:10;}
	.st161{fill:none;stroke:#F4D862;stroke-width:4;stroke-linecap:round;stroke-linejoin:round;stroke-miterlimit:10;}
	.st162{fill:#FFF27D;stroke:#1B2638;stroke-width:4;stroke-linecap:round;stroke-linejoin:round;stroke-miterlimit:10;}
	.st163{fill:none;stroke:#FFFFFF;stroke-width:7;stroke-linecap:round;stroke-linejoin:round;stroke-miterlimit:10;}
	.st164{fill:none;stroke:#F4D862;stroke-width:7;stroke-linecap:round;stroke-linejoin:round;stroke-miterlimit:10;}
</style>
<g>
	<polygon class="st1" points="2139.3,1239.7 1924.9,1185.2 1919.6,1183.8 1882.8,1174.4 1878.6,1173.4 1606,1103.9 1527,1083.8 
		1399,1051.2 1501.5,853.7 1503.8,849.2 1616.9,631.2 1763.4,801.9 1766.4,805.4 1843.1,894.7 1847.8,900.2 2031.2,1113.8 
		2033.8,1116.8 	"/>
	<g>
		<path class="st2" d="M1763.4,801.9l3,3.5c-70.1,12.8-182,33.2-264.9,48.3l2.3-4.5C1585.4,834.3,1693.9,814.5,1763.4,801.9z"/>
		<polygon class="st2" points="1847.8,900.2 1882.8,1174.4 1878.6,1173.4 1843.1,894.7 		"/>
		<polygon class="st2" points="2033.8,1116.8 1924.9,1185.2 1919.6,1183.8 2031.2,1113.8 		"/>
	</g>
	<path class="st5" d="M1632.6,1063c-0.7,3.5-10.8,25.5-26.6,40.9l-79-20.1c-44.2-71.5,18.7-137.8,18.7-137.8
		S1634.2,1055.5,1632.6,1063z"/>
	<path class="st10" d="M1849.5,1218.1c0,0,41.5,24.3,61.2,66.8c19.7,42.5,40.6,137.2,40.6,137.2s-66.5,25.8-109.5,23.4
		c-43.1-2.4-50.5-25.8-46.8-55.4S1849.5,1218.1,1849.5,1218.1z"/>
	<polyline class="st28" points="1859.3,1313.2 1910.7,1284.8 1885,1396.4 	"/>
	<path class="st29" d="M1850.1,1218.5c0,0,40.9,23.9,60.5,66.4c19.7,42.5,40.6,137.2,40.6,137.2s-66.5,25.8-109.5,23.4
		c-43.1-2.4-50.5-25.8-46.8-55.4S1850.1,1218.5,1850.1,1218.5z"/>
	<polygon class="st1" points="1511.4,1412.2 1409.4,1432.2 1288.9,1455.9 1235.5,1466.4 1230.6,1467.3 1193.4,1474.7 1189.6,1475.4 
		565,1598.1 492.8,1509.1 457,1465.1 454.7,1462.2 426.4,1427.4 421,1420.8 402.6,1398.1 236.7,1193.9 346.1,1120.2 349.3,1118.1 
		669.9,901.9 813.9,989.2 817,991.1 936.5,1063.6 943.3,1067.6 1336.1,1305.9 1339.2,1307.7 1378,1331.3 1400.4,1344.8 	"/>
	<path class="st10" d="M1860.5,1275.3c-30.9-74.6-2.8-53.5-11.1-57.2"/>
	<path class="st10" d="M1872.5,1699.9l-66.5,17.5c0,0-56.3,3.7-98.8-1.8c-42.5-5.5-267.7,12.9-264-24.9c0.5-4.8,0.8-12.8,0.9-23.3
		c0.9-55.1-2-176.8-2.3-241.3c-0.1-19.1,0-33.2,0.5-39.1c2.5-29.5-27.1-144.6-12.3-158.8c14.8-14.2,122.5-56,122.5-56h190.1
		c0,0,98.5,42.2,106.8,45.8l11.1,57.2c-2.8,17.5,0,164.3,0,180C1860.5,1471,1872.5,1699.9,1872.5,1699.9z"/>
	<path class="st29" d="M1443.3,1690.7c-3.7,37.8,221.5,19.4,264,24.9s98.8,1.8,98.8,1.8l66.5-17.5c0,0-12-228.9-12-244.6
		c0-15.7-2.8-162.5,0-180"/>
	<path class="st12" d="M1716.3,1579.8c-41.9,23.8-8.1,89.1-45.9,94.9c-37.8,5.9-26.7,13.2-90.7,13.2s-120.6-13.2-120.6-13.2
		s-6.2-2.2-14.8-7.3c0.9-55.1-2-176.8-2.3-241.3c18.5-23.1,35.6-39.5,35.6-39.5s-18.6,135.6,104.6,142.8
		C1705.2,1536.5,1758.1,1556,1716.3,1579.8z"/>
	<path class="st29" d="M1850.7,1218.8c-8.2-5.1-108.1-46.6-108.1-46.6h-190.1c0,0-107.7,41.8-122.5,56
		c-14.8,14.2,14.8,129.2,12.3,158.8c-1.9,22.3,1.7,162.8,2,246.4"/>
	<g>
		<polygon class="st2" points="349.3,1118.1 426.4,1427.4 421,1420.8 346.1,1120.2 		"/>
		<polygon class="st2" points="817,991.1 457,1465.1 454.7,1462.2 813.9,989.2 		"/>
		<polygon class="st2" points="943.3,1067.6 1193.4,1474.7 1189.6,1475.4 936.5,1063.6 		"/>
		<polygon class="st2" points="1235.5,1466.4 1230.6,1467.3 1336.1,1305.9 1339.2,1307.7 		"/>
	</g>
	<path class="st4" d="M1609.7,1643c0,0-221.6,4.6-248.6,13.8c-15.1,5.2-88.4,4.3-92.7-25.8c-2.6-18.2,28.9-93.7,54.4-150.8
		c5.8-13.1,11.4-25.2,16.1-35.5c5.3-11.6,9.7-20.9,12.2-26.3c1.7-3.6,2.6-5.5,2.6-5.5l13.4,9.2l81.4,56l-11.2,26.1l-0.4,0.9
		l-21.7,50.5c0,0,188.8,29.5,190.6,30.2C1607.8,1586.4,1609.7,1643,1609.7,1643z"/>
	<path class="st11" d="M1540.2,983.2c0,0-11.9-17.9-9.8-23.6s-40.2-16.8-6.6-63.6c33.6-46.8-2.5-60.7,66.5-80.4
		c68.9-19.7,132.9-8.2,143.2,21.3c10.3,29.5,41,59.9,34.9,78.8c-6.2,18.9,6.5,63.2-7.4,67.5c-13.9,4.3-165.7,2.6-165.7,2.6
		S1552.5,1005.5,1540.2,983.2z"/>
	
		<ellipse transform="matrix(0.2405 -0.9707 0.9707 0.2405 339.9099 2453.3804)" class="st4" cx="1737.6" cy="1009.5" rx="41.8" ry="16.4"/>
	<path class="st29" d="M1736.8,1046.7c6.5-5.8,13-18.2,16.7-33.2c5.6-22.4,2.9-42.4-5.9-44.6c-8.8-2.2-20.4,14.2-26,36.7"/>
	
		<ellipse transform="matrix(0.9707 -0.2405 0.2405 0.9707 -199.4608 404.2144)" class="st4" cx="1556.6" cy="1019.4" rx="16.4" ry="41.8"/>
	<path class="st29" d="M1547.4,1042.3c-3.6-6.3-4.5-9.9-6.7-18.9c-5.6-22.4-2.9-42.4,5.9-44.6s20.4,14.2,26,36.7"/>
	<path class="st4" d="M1579.6,1045.1c0,0,13.5,74.7,0,120.6c0,0,68.1,23.4,105.4,12.7c37.3-10.7,30.8-17.2,30.8-17.2
		s-8.2-80.4-6.2-105S1579.6,1045.1,1579.6,1045.1z"/>
	<polygon class="st1" points="405.9,939.2 346.4,936 411.4,904.1 476.4,872.2 441.3,935.5 406.1,998.8 	"/>
	<polygon class="st4" points="1953.6,1109.5 1997.3,1113.5 1948.6,1135.2 1899.9,1156.8 1927.5,1111.3 1955.2,1065.7 	"/>
	<polygon class="st4" points="1212.1,1313.2 1225.9,1354.8 1186.6,1318.9 1147.2,1283 1200,1290 1252.8,1297 	"/>
	<polygon class="st29" points="1300.6,1868 1291.2,1910.8 1275.7,1859.8 1260.3,1808.8 1302.1,1841.9 1343.9,1874.9 	"/>
	<circle class="st30" cx="914.3" cy="721.1" r="30.7"/>
	<circle class="st31" cx="559.7" cy="1133.1" r="30.7"/>
	<circle class="st31" cx="1820.9" cy="1142.1" r="30.7"/>
	<circle class="st8" cx="2015.5" cy="878.6" r="8.2"/>
	<circle class="st8" cx="2025.8" cy="847.3" r="16.1"/>
	<rect x="1068.1" y="740.5" class="st0" width="339.4" height="442.9"/>
	<path class="st1" d="M1331.5,705.9h-187.5V704c0-14.5,11.8-26.3,26.3-26.3h134.9c14.5,0,26.3,11.8,26.3,26.3V705.9z"/>
	<polygon class="st18" points="1175.7,871.3 1164.8,979.8 1082.2,934.2 	"/>
	<polygon class="st3" points="1191.8,820.6 1171.7,883.7 1171.7,883.7 1170.3,888.2 1170.3,888.2 1170.1,888.8 1169,892.3 
		1148.9,955.4 1099.9,939.8 1094.7,938.2 1057,926.2 1067.9,892.1 1069.4,887.5 1071.7,880.2 1072.8,876.7 1099.9,791.4 1111.3,795 
		1116.6,796.7 1116.6,796.7 	"/>
	<line class="st29" x1="1139.4" y1="819.1" x2="1149.9" y2="781.8"/>
	<line class="st29" x1="1342.2" y1="710.7" x2="1387.7" y2="731.5"/>
	<line class="st29" x1="1133.4" y1="710.7" x2="1087.9" y2="731.5"/>
	<g>
		<polygon class="st8" points="1069.4,887.5 1099.9,939.8 1094.7,938.2 1067.9,892.1 		"/>
		<polygon class="st8" points="1072.8,876.7 1170.1,888.8 1169,892.3 1071.7,880.2 		"/>
		<polygon class="st8" points="1171.7,883.7 1171.7,883.7 1170.3,888.2 1111.3,795 1116.6,796.7 1116.6,796.7 		"/>
	</g>
	<path class="st32" d="M1101.9,854.2c0,0,31.6-41.8,9-7c-22.5,34.7-5.5,22.1,5.5,21s-12.6,30.7,11.8,23"/>
	<polygon class="st11" points="1172.8,1587.1 1224.5,1506.4 1151.6,1506.4 1138.7,1554.3 	"/>
	<path class="st5" d="M611,1355.6l-72.6,130.2c0,0-20.9,12.3-45.6,23.3l-35.8-44l-2.3-2.9l-28.3-34.8l-5.3-6.6l-18.4-22.7
		c59.1-69.6,193.4-162.1,193.4-162.1L611,1355.6z"/>
	<path class="st0" d="M1172.8,1587.1l25.8-107.1l-196.9-6l-45,100.6c0,0,145,40.3,160.7,39.5
		C1133.2,1613.4,1172.8,1587.1,1172.8,1587.1z"/>
	<path class="st1" d="M908.9,1235.9c0,0,84.2,59.1,87.3,93.3c3,34.2-15.4,144-13.5,160c1.8,16-65.1,11.2-65.1,11.2l-24.5-58v-94.2
		L908.9,1235.9z"/>
	<polyline class="st33" points="953.3,1345.7 993.3,1318.9 945.4,1418.7 977.8,1474 	"/>
	<path class="st34" d="M908.9,1235.9c0,0,84.2,59.1,87.3,93.3c3,34.2-15.4,144-13.5,160c1.8,16-65.1,11.2-65.1,11.2l-24.5-58v-94.2
		L908.9,1235.9z"/>
	<path class="st1" d="M917.6,1527.4c0,0-16.4-30.5,24.5-38.3c40.9-7.8,83-13.1,97.3,9.7c14.3,22.9,25.8,27.4,12.9,35.2
		c-12.9,7.8-64.1,17.2-64.1,17.2l-50.8,4.3L917.6,1527.4z"/>
	<path class="st34" d="M917.6,1527.4c0,0-16.4-30.5,24.5-38.3c40.9-7.8,83-13.1,97.3,9.7c14.3,22.9,25.8,27.4,12.9,35.2
		c-12.9,7.8-64.1,17.2-64.1,17.2l-50.8,4.3L917.6,1527.4z"/>
	<path class="st11" d="M989.2,978.2c0,0,17.7-12.7,18.1-23.4c0.4-10.7-1.6-103.8-57.4-98.1c-55.8,5.7-64.4,41.4-68.9,37.7
		s-9.4-19.7-17.6-8.6c-8.2,11.1-11.5,18.1-21.3,11.9s-13.1-2.5-18.1,6.6c-4.9,9-54.6,33.6-53.7,53.7c0.8,20.1,20.9,96.8,20.9,96.8
		s51.3-0.7,80.4-7.1c29.1-6.4,46.4-13.4,72.2-31.8C969.6,997.5,989.2,978.2,989.2,978.2z"/>
	<path class="st4" d="M932.4,1526.4c0,0,13.4-34.4,44.8-40.7c31.4-6.2,100.4-14.1,119.9,0c19.5,14.1,20.4,49.2,20.4,49.2l-145.7-0.3
		L932.4,1526.4z"/>
	<path class="st1" d="M956.7,1336.2c0,0-8.2,67.4-15.6,108c-7.4,40.6-40.6,259.4-40.6,259.4l-1.6,14.9l-4.9,46.5H434.6
		c-1.1,0-2.1-0.1-3.1-0.1c-2.5-12.1-5.3-27.3-8.1-46.3c-3.8-25.2-7.6-57.1-11.1-97.1C399.3,1474.7,547,1266.1,569.2,1250
		c22.2-16.1,133.8-55.3,133.8-55.3s176.3,31.7,203.4,45.6C933.5,1254.1,956.7,1336.2,956.7,1336.2z"/>
	<path class="st29" d="M906.4,1240.2c-27.1-13.8-203.4-45.6-203.4-45.6c2.2-4-104.4,26-133.8,55.3
		c-19.4,19.3-169.8,224.7-156.9,371.5c3.5,40,7.4,71.8,11.1,97.1c2.8,19,5.6,34.2,8.1,46.3"/>
	<path class="st29" d="M894.1,1765l4.9-46.5l1.6-14.9c0,0,33.2-218.8,40.6-259.4c3.8-21.2,7.9-49.6,10.9-72
		c3.5-26.3,0.1-53.1-9.9-77.7"/>
	<path class="st5" d="M842.4,1248.1l18.9,41.6l16.4-41.6c0,0,29.1,23.8,47.2,10.3c0,0-41.4-57-45.5-71
		c-4.1-13.9-28.7-13.9-28.7-13.9s-29.5,12.7-33.2,16c-3.7,3.3-16,14.4-16,14.4s-5.8,19,0,27.8
		C807.1,1240.3,842.4,1248.1,842.4,1248.1z"/>
	<polygon class="st0" points="1172.8,1587.1 1122.1,1653.7 874.1,1653.7 956.7,1574.6 	"/>
	<path class="st4" d="M902.3,1153.8c-0.1,3.3-1,6.7-2.7,10.1c-3.9,7.5-8.8,23.1-13.9,40.8c-9.8,34-20,75.8-24,83.9
		c0,0-20.3-44.4-25.3-45.2c-4.9-0.8-20.8,26.9-20.8,26.9s-95.5-85.7-71.7-99.3c23.8-13.5,60.3-83.3,60.3-83.3l79.6,33.7
		C883.8,1121.4,903.1,1136,902.3,1153.8z"/>
	<path class="st29" d="M791.5,1206.7c0,0,4,16.2,9.8,24.9c5.8,8.7,41.1,16.5,41.1,16.5l18.9,41.6l12.8-42.4c0,0,32.7,24.6,50.8,11
		c0,0-20.1-27.7-33.7-49.2"/>
	<path class="st13" d="M902.3,1153.8c-0.1,3.3-1,6.7-2.7,10.1c-3.9,7.5-8.8,23.1-13.9,40.8c-7.2,6.9-18.3,14.6-27.5,8.6
		c-15-9.9-25.5-93.6-25.5-93.6s45.8,16.1,67,32C900.6,1152.4,901.5,1153.1,902.3,1153.8z"/>
	<path class="st5" d="M666.4,1414.7c0,0-40.6,153.8,81.2,150.2c121.8-3.7-215.4,66.4-215.4,66.4l-12.3-47.7
		c0,0-25.8-62.8,44.3-101.1C634.4,1444.2,666.4,1414.7,666.4,1414.7z"/>
	<path class="st4" d="M988.9,1001.9c-0.5,15.7-1.8,34.5-5,46c-6.1,22.8-28,112.3-43.7,136.6c0,0-64-1.5-86.1-30.5
		c-22.2-28.9-42.2-78.5-42.2-78.5s7.8-30,15-56.7v0c5.4-20.1,10.5-38.3,11.7-40.2c2.8-4.6,34.5-36.9,34.5-36.9s2.2-12.3,53.2-2.5
		c51.1,9.8,62.8,35.1,62.8,35.1S989.4,986.7,988.9,1001.9z"/>
	<path class="st29" d="M902.9,1113.8c0,0,2.6,13.9,29.5,19.3"/>
	<path class="st13" d="M988.9,1001.9c-26-8.9-89.5-30.4-95.7-31.1c-7.9-0.8-12.6,39-12.6,39c-9.4,0-50.6,18.5-50.6,18.5
		s-1.4-3.6-3-9.3v0c5.4-20.1,10.5-38.3,11.7-40.2c2.8-4.6,34.5-36.9,34.5-36.9s2.2-12.3,53.2-2.5c51.1,9.8,62.8,35.1,62.8,35.1
		S989.4,986.7,988.9,1001.9z"/>
	<ellipse class="st1" cx="874.1" cy="1071.6" rx="14.8" ry="8.6"/>
	<path class="st11" d="M823.4,1047.2c0,0,32.7-43.1,50.7-46l2.4-43.5c0,0,105.7,16.4,112.8,20.5L995,956c0,0,16.4-15.6-29.1-20.5
		c-45.5-4.9-145.6,5.4-150.6,12.7c-4.9,7.4-5.7-11.9-9,20.5s-9.1,30.4-0.4,47.6c8.7,17.2,10.6,29.5,11.9,30.8
		C819,1048.5,823.4,1047.2,823.4,1047.2z"/>
	<path class="st5" d="M714.3,1206.7c14.1,15,34.4,37.3,51.8,58.8"/>
	<polygon class="st18" points="1289.4,1183.3 1244.8,1183.3 1261.5,1109.8 1288.9,1173.5 	"/>
	<path class="st5" d="M766.1,1265.5c15.1,18.5,28,36.4,32.8,48.3l43.5-65.6L741.5,1146c0,0-39,29.5-44.3,42.7c0,0,6.9,7.1,17.2,18.1
		"/>
	<path class="st1" d="M579.3,1280.7c0,0,37.8-45.8,84-35.6c46.2,10.2,75.7,100.6,40.6,165.2c-35.1,64.6-116.3,154.2-116.3,154.2
		s183.2-30.5,211.1-29.5l-43.1,145.8c0,0-240,52.6-267.7,56.3s-96.7-18.7-85.8-73.8C412.9,1608,511,1354.1,579.3,1280.7z"/>
	<g>
		<g>
			<path class="st11" d="M1005,1393.9c4.9,5.5,9.5,11.2,14.2,16.9c4.6,5.8,9.1,11.5,13.5,17.4c8.8,11.7,17.4,23.6,25.8,35.7
				c8.4,12,16.6,24.2,24.6,36.5c8,12.3,15.8,24.7,23.1,37.5c1.1,1.9,0.4,4.4-1.5,5.5c-1.7,1-3.8,0.6-5.1-0.9
				c-9.5-11.2-18.6-22.8-27.4-34.5c-8.9-11.7-17.5-23.5-26-35.5c-8.5-12-16.8-24-24.8-36.3c-4-6.1-7.9-12.4-11.8-18.6
				c-3.8-6.3-7.6-12.6-11.1-19.1c-1.1-2-0.3-4.4,1.6-5.5C1001.8,1392.1,1003.8,1392.5,1005,1393.9z"/>
		</g>
		<path class="st35" d="M1012,1404.2l16.5,17.8c0,0,19.7-21.2,29.4-1.8s-14.9,38.5,13.1,45.5"/>
	</g>
	<polyline class="st33" points="583.1,1276.6 694.2,1427 496,1419.7 603.2,1546.8 402.1,1663.2 526,1729.9 639.6,1556 713.8,1608.5 
			"/>
	<g>
		<path class="st4" d="M771.9,1555.9c0,0,68.4-22.2,97.9-26.1s101.2-28.9,120.7-35c19.5-6.1,34.5-9.5,37.8-8.9s66.2,18.4,66.2,18.4
			l18.4,28.4c0,0-4.4,15-11.7,12.2c-7.2-2.8-12.8-11.7-12.8-11.7l-48.9-12.3L921,1555.9c0,0-12.8,16.1-57.8,23.9
			S765.3,1584.8,771.9,1555.9z"/>
		<path class="st4" d="M1051.7,1520.9l43.2,19.9c0,0,8.5,28-8.2,29.6l-65.1-17.2l-33.4-22.8c0,0-1.1-11.7,24.5-12.8
			C1038.3,1516.4,1051.7,1520.9,1051.7,1520.9z"/>
		<path class="st4" d="M1081.2,1568.9c0,0,7.7,24.3-12.9,27c-20.6,2.8-65.1-12.4-65.1-12.4l-42.8-14.6l-18.4-27.5
			c0,0-8.9-18.4,38.9-14.5c47.8,3.9,66.2,14.5,66.2,14.5L1081.2,1568.9z"/>
		<path class="st4" d="M1039.4,1526.4l-2.4,10.8l-4.2,18.9l-3,13.7l-4.5,20.3l-5.8,26.3l-0.2,0.7c0,0-184.6,12.8-194.6,16.7
			c-0.9,0.3-2.1,0.8-3.6,1.5c-15.9,6.7-64.1,27.8-73.7,25.8c-4.2-0.9-9.4-5.2-14-11c-6.9-8.8-12.3-21-11-30.7
			c2.2-16.1-1.1-26.1,8.9-41.7c9.7-15.1,58.2-27.4,61.2-28.2c0.1,0,0.1,0,0.1,0l182.8-32l39.5-4.3l7.8,4.3l10,5.5L1039.4,1526.4z"/>
		<path class="st4" d="M1021.6,1616.5l-28.4-2.2l-5-9.7c0,0,3.9-22.5,16.1-28.1c12.2-5.6,11.7-7.8,38.1-6.1
			c26.4,1.7,20.9,22.2,20.9,22.2s0,13.3-6.7,15S1023.9,1616,1021.6,1616.5L1021.6,1616.5z"/>
	</g>
	<path class="st13" d="M821.2,1635.2c-15.9,6.7-64.1,27.8-73.7,25.8c-4.2-0.9-9.4-5.2-14-11c9.7-24.1,29.4-55.9,43.4-77.2
		c9.1-13.9,15.9-23.4,15.9-23.4s1.1,14.3,5.1,32.2C801.8,1599.7,809,1621.4,821.2,1635.2z"/>
	<path class="st29" d="M914.6,1181.9c-20.4-3.4-47.6-10.9-60.5-27.8c-22.2-28.9-42.2-78.5-42.2-78.5s24-92.3,26.8-96.9
		c2.8-4.6,34.5-36.9,34.5-36.9s2.2-12.3,53.2-2.5c51.1,9.8,62.8,35.1,62.8,35.1"/>
	<path class="st4" d="M1607.1,1140.2c0,0-25.4-11.9-39.8,14.8c-14.4,26.7,29.5,101.3,29.5,101.3l42.2,11.5l13.7,17l30.4,45.3
		l22.6-18.9l20.1-45.9c0,0,9.8-9.7,13.3-39.7c3.5-30,3.1-44,2.3-50.1c-0.8-6.2-7.8-43.1-40.6-43.1
		C1667.8,1132.4,1607.1,1140.2,1607.1,1140.2z"/>
	<path class="st4" d="M815.6,1034.8c5.3,6.6,10.1,15.9,13.4,26.8c4.2,14.2,4.8,27.8,2.1,36.9"/>
	<path class="st0" d="M978.4,1037.2c0,0-18.8,38.9-21.6,60.2c-0.5,4.1,1.9,7.9,5.8,9.3c6.8,2.3,19.1,4.7,22.9-6.1
		C991,1084.7,978.4,1037.2,978.4,1037.2z"/>
	<path class="st29" d="M989.2,978.2c0,0,0.7,26.1-0.8,33.9"/>
	<path class="st29" d="M804.2,1087.7c0,0-20.2,38.6-40.3,64"/>
	<path class="st13" d="M1585,1093.9c0,0,21.2,56.3,72.9,53.3c42.9-2.5,54.6-47.6,54.6-47.6l-5.2-35.1l-49.4-1c0,0-20.4-6.2-40.5,4.1
		C1597.3,1077.9,1572.8,1040.5,1585,1093.9z"/>
	<path class="st4" d="M831.1,1098.4c-1.7,5.8-4.7,9.8-8.8,11c-10.6,3.2-24.9-13.1-31.8-36.4c-6.9-23.3-3.9-44.7,6.7-47.9
		c5.7-1.7,12.4,2.2,18.4,9.6"/>
	<path class="st29" d="M830,1101.6c-1.8,4.1-4.3,6.9-7.7,7.8c-10.6,3.2-24.9-13.1-31.8-36.4c-6.9-23.3-3.9-44.7,6.7-47.9
		c5.7-1.7,12.3,2.2,18.4,9.6c0,0,4.9,5.5,7,10.1"/>
	<path class="st29" d="M772.6,1273.6c12.2,15.5,22.2,30,26.3,40.2l43.5-65.6L741.5,1146c0,0-39,29.5-44.3,42.7
		c0,0,11.8,12.1,27.5,29.2"/>
	<path class="st34" d="M731.2,1542.2c31.4-4.4,58.1-7.6,67.5-7.3l-43.1,145.8c0,0-240,52.6-267.7,56.3s-96.7-18.7-85.8-73.8
		c10.8-55.2,108.9-309.1,177.2-382.5c0,0,37.8-45.8,84-35.6c46.2,10.2,75.7,100.6,40.6,165.2"/>
	<path class="st5" d="M742.2,1540.7c0,0-63.8,109-58.1,159.4l69.7-2.5c0,0,32.1-136.6,45-162.8L742.2,1540.7z"/>
	<path class="st34" d="M742.2,1540.7c0,0-63.8,109-58.1,159.4l69.7-2.5c0,0,32.1-136.6,45-162.8L742.2,1540.7z"/>
	<line class="st29" x1="842.4" y1="1631.2" x2="948.2" y2="1622.2"/>
	<path class="st29" d="M980.2,1498.1c0,0,40.6-14.2,48.1-12.2c7.5,1.9,59.5,16.5,59.5,16.5"/>
	<path class="st29" d="M1715.8,1161.2c0,0-8.2-80.4-6.2-105s-130.1-11.1-130.1-11.1s13.5,74.7,0,120.6"/>
	<path class="st29" d="M1082.6,1535.1c0,0-33.5-11.5-36-11.5"/>
	<path class="st29" d="M859.3,1327.9c0,0,24.7,53.8,2.5,162.6"/>
	<g>
		<circle class="st11" cx="817.7" cy="822.2" r="19.1"/>
		<circle class="st11" cx="847.8" cy="856.2" r="9.7"/>
	</g>
	<g>
		<circle class="st11" cx="1794.2" cy="742.2" r="19.1"/>
		<circle class="st11" cx="1771.9" cy="781.7" r="9.7"/>
	</g>
	<path class="st36" d="M2042.7,1718.5v11.2c0,19.5-16.6,35.3-37.1,35.3h-1566c-1.1,0-2.2-0.1-3.3-0.1c-18.9-1.6-33.8-16.7-33.8-35.2
		v-11.2H2042.7z"/>
	<path class="st4" d="M1558.7,979.8c0,0,8.6,102.2,37.5,121.2c28.9,19.1,88,24,108.3,4.3s34.5-153.2,34.5-153.2l-56.6-55.4
		l-64.3-18.3L1558.7,979.8z"/>
	<path class="st0" d="M1663.3,984.8c-2.9,2.2-4.8,5.6-5.3,9.3c-1.4,10.9-4.2,37.4-0.5,43.3c4.6,7.4,21.1,5.3,25.5,0.9
		c8.3-8.3-9.5-45.6-13.5-52.6C1667.6,982.4,1665.7,982.9,1663.3,984.8z"/>
	<path class="st13" d="M1566,978c2.1,0,30.8-16,45.6-40.2c14.8-24.2,38.6-42.4,50.5-6.6s22.6,41.4,39,36.1c16.4-5.3,25-23.8,25-23.8
		l-5.4-29.1c0,0-20.1-23-44.7-31.8c-24.6-8.8-46.9-11.3-46.9-11.3l-43.8,13.1c0,0-16,22.6-20.9,43.5S1566,978,1566,978z"/>
	<path class="st29" d="M1629.2,1050.3c0,0,13.4,19.1,41.2,12.9"/>
	<path class="st11" d="M1543.3,979.7c5.2,12.1,20.8,15.8,30.8,7.1c4.6-4.1,8.3-8.8,8.9-13.8c1.6-14.8,11.5-62.2,33.9-69.7
		c22.3-7.4,44.9-11.1,64.6,15.9c19.7,27.1,27.5,42.3,36.1,42.7c8.6,0.4,28.7,0.8,30.8-5.7c2.1-6.6,1.6-21.3,1.6-21.3l-32.4-42.3
		l-54.6-32.8l-61.9-4.9c0,0-30.4,5.3-42.3,34.9C1546.8,919.3,1543.3,979.7,1543.3,979.7L1543.3,979.7z"/>
	<path class="st11" d="M1592,815.1c0,0-52.2-39.3-8.7-74.6s141.5-41.4,132.1-11.9c-9.4,29.5-9.4,45.1-1.6,59.1
		c7.8,13.9,8.6,29.9-14.8,32.8C1675.6,823.3,1592,815.1,1592,815.1z"/>
	<path class="st10" d="M1712.5,1267l-27.5,59.7l-35.3-53.5l-1.8-4c0,0-25.2,15.9-25.2,15.7c0-0.2,28.7,57.6,28.7,57.6l41.4,7.8
		l35.3-37.1l7.8-22.8v-28.3c0,0,4.9-4.1-4.9-2.9C1721.2,1260.4,1712.5,1267,1712.5,1267z"/>
	<path class="st1" d="M1712.5,1129.8c0,0,26.5,19.7,20.3,67.1c-6.2,47.4-20.3,66.5-20.3,66.5s36.6,2.5,37.4,21.5
		c0,0,14.3-66.5,7.6-97.2C1750.7,1156.8,1724.8,1135.3,1712.5,1129.8z"/>
	<path class="st13" d="M1448.5,1478.1l-11.2,26.1l-0.4,0.9c-10.8-13.6-28.3-13.5-54.3-15.3c-30.4-2.1-31.6-11.9-34-28.7
		c-1.1-7.5-5.3-12.8-9.7-16.3c5.3-11.6,9.7-20.9,12.2-26.3c1.7-3.6,2.6-5.5,2.6-5.5l13.4,9.2L1448.5,1478.1z"/>
	<path class="st1" d="M1584.6,1138.2c0,0-13.9,5.8-15.1,27c-1.2,21.2,21.6,99.7,78.5,104c0,0-45.6,25.8-45.6,44
		c0,0-59.7-84.6-56.6-125.8C1548.8,1146.1,1584.6,1138.2,1584.6,1138.2z"/>
	<path class="st4" d="M1606,1585.8c0,0,52.3-8,78.2-5.5c25.8,2.5,91.1,74.5,91.1,74.5l-165.5-11.7
		C1609.7,1643,1594.3,1606.1,1606,1585.8z"/>
	<path class="st5" d="M1417.8,1412.8l-8.4,19.4l-120.5,23.7c4.6-57,59.4-103.4,89.1-124.6c7.2-5.2,13-8.8,16.1-10.8l6.2,24.3
		L1417.8,1412.8z"/>
	<rect x="1446.7" y="1651.4" class="st0" width="206.8" height="27.1"/>
	<path class="st29" d="M1433.1,1558.4c-11-1.7-17.7-2.8-17.7-2.8l33.2-77.5l-94.8-65.2c0,0-89.5,189.5-85.2,219.7
		s67.3,31.6,82.5,26.5c21-7.2,165.1-12.8,228.6-15"/>
	<path class="st29" d="M1576.3,1069.3c5.2,14.4,11.7,26.4,19.9,31.8c28.9,19.1,88,24,108.3,4.3c6-5.8,11.5-21.6,16.2-40.9"/>
	<line class="st34" x1="1685" y1="1355.6" x2="1695.3" y2="1529.8"/>
	<path class="st29" d="M1737.2,967.8c1.2-9.7,1.8-15.7,1.8-15.7l-56.6-55.4l-49.8-14.2l-52.9,20.3l-20.9,76.9"/>
	<ellipse class="st1" cx="1596.8" cy="1018.1" rx="14.8" ry="8.6"/>
	<path class="st10" d="M1430.1,1228.2l-97.8,190.2c0,0,15-4.5,28.7,8.2c7.1,6.6-1.1,27.3,9.3,36.1c11.9,10.2,43.7-0.2,55.8,4.6
		c15.1,6.1,15,18.1,28.2,22.4c0,0,49.4-118.2,56.7-146.5C1518.1,1315,1510.7,1230.1,1430.1,1228.2z"/>
	<path class="st1" d="M1712.5,1129.8c0,0,26.5,19.7,20.3,67.1c-6.2,47.4-20.3,66.5-20.3,66.5s24.6,1.8,37.4,21.5
		c0,0,14.3-66.5,7.6-97.2C1750.7,1156.8,1724.8,1135.3,1712.5,1129.8z"/>
	<path class="st1" d="M1584.6,1138.2c0,0-13.9,5.8-15.1,27c-1.2,21.2,21.6,99.7,78.5,104c0,0-18.3,24.9-45.6,44
		c0,0-59.7-84.6-56.6-125.8C1548.8,1146.1,1584.6,1138.2,1584.6,1138.2z"/>
	<path class="st34" d="M1714.7,1130.8c-0.3-0.2-0.6,0.2-0.4,0.5c5.8,5.5,23.7,25.7,18.5,65.5c-6.2,47.4-20.3,66.5-20.3,66.5
		s24.6,1.8,37.4,21.5c0,0,14.3-66.5,7.6-97.2C1751.1,1158.5,1727.6,1137.7,1714.7,1130.8z"/>
	<path class="st34" d="M1584.6,1138.2c0,0-13.9,5.8-15.1,27c-1.2,21.2,21.6,99.7,78.5,104c0,0-18.3,24.9-45.6,44
		c0,0-59.7-84.6-56.6-125.8C1548.8,1146.1,1584.6,1138.2,1584.6,1138.2z"/>
	<polyline class="st29" points="1655.6,1282.1 1685,1326.7 1700.8,1292.5 	"/>
	<path class="st10" d="M1845.7,1219.4c0,0,5.5,0.1,9.8,6.8c4.3,6.8,2.6,7.8-2,4.8S1845.7,1219.4,1845.7,1219.4z"/>
	<polygon class="st3" points="2122.4,1374.7 2028.7,1538.5 2026.6,1542.1 1948.6,1678.5 1632.6,1625.3 1703.1,1490.4 1705.9,1485.1 
		1763.6,1374.7 	"/>
	<g>
		<polygon class="st8" points="2028.7,1538.5 1974,1525.2 2035.9,1374.7 2029.8,1374.7 1892.8,1455.5 1892.3,1455.7 1809.8,1602.7 
			1782.7,1456.2 1705.9,1485.1 1703.1,1490.4 1779.6,1461.7 1807.9,1614.3 1895.2,1458.6 2029.7,1379.4 1968.6,1528 2026.6,1542.1 
					"/>
	</g>
	<polygon class="st8" points="1645.2,1603.5 1991.9,1603.5 1998.1,1678.5 1649.1,1678.5 	"/>
	<polygon class="st3" points="1645.2,1678.5 1601.9,1678.5 1623.5,1641 1645.2,1603.5 1666.8,1641 1688.5,1678.5 	"/>
	<polygon class="st8" points="1991.9,1678.5 1948.6,1678.5 1970.3,1641 1991.9,1603.5 2013.6,1641 2035.2,1678.5 	"/>
	<polygon class="st4" points="1803.4,1428.2 1766.5,1428.2 1784.9,1391.3 1821.9,1391.3 	"/>
	<path class="st11" d="M1993.5,1374.7h-144.1c-5.3,0-9.5-4.3-9.5-9.5l0,0c0-5.3,4.3-9.5,9.5-9.5h144.1c5.3,0,9.5,4.3,9.5,9.5l0,0
		C2003,1370.4,1998.7,1374.7,1993.5,1374.7z"/>
	<path class="st0" d="M2008.2,1374.7h-144.1c-5.3,0-9.5-4.3-9.5-9.5l0,0c0-5.3,4.3-9.5,9.5-9.5h144.1c5.3,0,9.5,4.3,9.5,9.5l0,0
		C2017.8,1370.4,2013.5,1374.7,2008.2,1374.7z"/>
	<line class="st29" x1="1735.9" y1="1603.5" x2="1948.6" y2="1603.5"/>
	<polyline class="st29" points="2042.7,1374.7 2122.4,1374.7 2075.2,1457.2 	"/>
	<polyline class="st28" points="1422.2,1243.6 1502.4,1368.5 1364.5,1355.6 1467.5,1457.2 	"/>
	<path class="st34" d="M1430.1,1228.2l-96,186.6c-0.7,1.3,0.4,2.9,1.9,2.6c6.6-1.2,20.5-1.4,28.6,15.1c3.8,7.8-8.2,22.3,8.3,32
		c22.2,12.9,34.7-3.8,49.7,1.2c17.3,5.8,22,23.2,31.5,24c0,0,49.4-118.2,56.7-146.5C1518.1,1315,1510.7,1230.1,1430.1,1228.2z"/>
	<ellipse class="st29" cx="798.7" cy="1265.5" rx="7.6" ry="16"/>
	<polygon class="st5" points="546,1574.6 525.6,1686.7 589,1692.2 599.8,1677.5 571.5,1592.2 	"/>
	<ellipse class="st29" cx="723.6" cy="1650.1" rx="7.6" ry="16"/>
	<g>
		<g>
			<path class="st37" d="M2045.1,1042c0,0,1.6,1.4,4.3,4.2"/>
			<path class="st38" d="M2057.7,1055.1c28,32.3,86.3,120-4,213.2"/>
			<path class="st37" d="M2049.4,1272.7c-1.4,1.4-2.8,2.8-4.3,4.2"/>
		</g>
	</g>
	<g>
		
			<rect x="1912.5" y="930.4" transform="matrix(-0.92 0.3918 -0.3918 -0.92 4231.3018 1095.1116)" class="st3" width="182.8" height="97.8"/>
		<polyline class="st8" points="2068.8,898.5 2003.9,979.3 1900.7,970.1 		"/>
		<circle class="st0" cx="1900.7" cy="970.1" r="24"/>
		<polyline class="st29" points="2054.4,916.4 2003.9,979.3 1960.1,975.4 		"/>
	</g>
	<polyline class="st39" points="1123,1587.1 1172.8,1587.1 1191.7,1509.1 	"/>
	<polyline class="st29" points="1616.2,1653.7 1645.2,1603.5 1672.8,1651.4 	"/>
	<path class="st40" d="M1273.2,1548.9v88.6h55.1c14.4,0,26.2-11.7,26.2-26.2V1575c0-14.4-11.7-26.2-26.2-26.2 M1328.9,1593.2
		c0,14.4-11.7,26.2-26.2,26.2h-14V1567h14C1317.2,1567,1328.9,1578.7,1328.9,1593.2L1328.9,1593.2z"/>
	<line class="st29" x1="1396.8" y1="1550.7" x2="1420.2" y2="1556.4"/>
	<rect x="1166" y="1505.8" class="st3" width="129.3" height="168.9"/>
	<polyline class="st29" points="1295.3,1576.5 1295.3,1674.7 1166,1674.7 1166,1505.8 1215.3,1505.8 	"/>
	<path class="st8" d="M1257.5,1611h-53.7c-6,0-10.9-4.9-10.9-10.9v-19.6c0-6,4.9-10.9,10.9-10.9h53.7c6,0,10.9,4.9,10.9,10.9v19.6
		C1268.4,1606.1,1263.5,1611,1257.5,1611z"/>
	<rect x="1068.1" y="1169.4" class="st11" width="339.4" height="24.9"/>
	<g>
		<g>
			<path class="st0" d="M671.9,1498.1c0,0-53.2-64.9-14.3-90.9c38.9-26,30.5-39.6,38.9-73.3s72-77.9,85-27.3
				c13,50.6-19.5,49.3-3.2,72s-24.7,59.7-33.7,75.3C735.5,1469.6,740.7,1505.9,671.9,1498.1z"/>
			<path class="st32" d="M690.8,1462.3c0,0-12.6-14.8-6.8-30.6"/>
			<path class="st29" d="M657.6,1540.1c3.5-1.6,32.4-31.3,50.8-18.4c18.5,13,7.5,44.7-19.6,33.7
				C661.7,1544.6,657.6,1540.1,657.6,1540.1z"/>
			<path class="st29" d="M654,1554.5c0,0-20.8-44.5-50.5-38.4c-29.7,6.1-20.5,40.4,8.7,34.3C641.3,1544.3,654,1554.5,654,1554.5z"/>
			<path class="st32" d="M710.6,1414.6c0,0,19.2,1.3,23.5-20.3"/>
			<path class="st29" d="M650.5,1592.2c-3.4-43.7,25.9-103.7,41.4-132c9.9-18,17.2-37.3,21.6-57.4c1.9-8.6,3.3-17.8,3.9-26.7
				c1.9-32.5,24.4-50.6,32-48"/>
		</g>
		<path class="st3" d="M555.8,1389.3c-8.4-1.6-39.2-1.2-51.1,87.7c0,0,32,17.4,41.5-8.8c9.5-26.2,11.7-32.3,11.7-32.3
			s-1.7,29.1,16.4,15.2c18.2-13.8,24.6-43.5,24.6-43.5s-13.2-15.5-37.3-17.4C559.7,1389.9,557.7,1389.7,555.8,1389.3z"/>
		<path class="st32" d="M571.5,1405.3c0,0-38.9,1.4-45.9,34"/>
		<path class="st29" d="M655.9,1546.3c-2-1.5-17.1-35.2-24.9-65.9c-7.8-30.7-22.9-102.1-89.1-88.9"/>
	</g>
	<polygon class="st3" points="733.4,1674.7 572.3,1674.7 542.3,1569.8 763.4,1569.8 	"/>
	<g>
		<polygon class="st8" points="741.7,1645.7 697.5,1601.3 649.7,1674.7 635.3,1696.7 627.5,1674.7 590.7,1570.2 591.8,1569.8 
			594.4,1568.9 594.8,1569.8 631.8,1674.7 636.4,1687.7 644.9,1674.7 696.8,1594.9 743,1641.3 		"/>
	</g>
	<path class="st15" d="M2089.3,1721.2H356.1c-12.8,0-23.2-10.4-23.2-23.2l0,0c0-12.8,10.4-23.2,23.2-23.2h1733.2
		c12.8,0,23.2,10.4,23.2,23.2l0,0C2112.5,1710.8,2102.1,1721.2,2089.3,1721.2z"/>
	<polyline class="st29" points="566.2,1653.7 542.3,1569.8 635.8,1569.5 	"/>
	<path class="st5" d="M1396.8,1318.9c0,0-1,0.6-2.7,1.6l-0.4-1.6H1396.8z"/>
	<polygon class="st3" points="1341,1078.2 1355.5,1142.8 1355.5,1142.8 1356.5,1147.4 1356.5,1147.4 1356.7,1148 1357.5,1151.6 
		1372.1,1216.2 1321.8,1227.5 1316.6,1228.7 1278,1237.4 1270.1,1202.5 1269,1197.7 1267.4,1190.3 1266.6,1186.7 1246.9,1099.4 
		1258.5,1096.8 1264,1095.5 1264,1095.5 	"/>
	<line class="st29" x1="1295" y1="1103.4" x2="1285.2" y2="1065.8"/>
	<path class="st29" d="M1278.1,1173.5c0,0,22.1-45.5,16.9-30.2c-5.2,15.4-5.8,73.9,18.2,37.9"/>
	<path class="st32" d="M1209.8,950.4c0,0,26.5-57.9,28-27.1c1.5,30.8-8.5,86.8,12.2,45.4c20.7-41.4,26.2-179.7,23.5-113.8
		c-2.8,65.9-9.8,100,11.7,79.3s6.7,6.5,17.8,21.5c11.1,15,39.8-62.2,50.3-42s-37.3,89.4,0,59.8"/>
	<circle class="st0" cx="812.8" cy="1425.8" r="8.3"/>
	<circle class="st3" cx="598.9" cy="1474" r="8.3"/>
</g>
</svg>
