<svg xmlns="http://www.w3.org/2000/svg" xmlns:xlink="http://www.w3.org/1999/xlink" style="enable-background:new 0 0 2500 2500" id="illustrations" x="0" y="0" version="1.1" viewBox="0 0 2500 2500" xml:space="preserve"><style type="text/css">.st0{fill:#f299ac}.st1{fill:#98daf4}.st2{fill:#b0ecff}.st3{fill:#f4d862}.st4{fill:#fff}.st5{fill:#82c0e0}.st10{fill:#65abe0}.st11{fill:#1b2638}.st12{fill:#4b8cc6}.st13{fill:#dae4ea}.st28{stroke:#b0ecff;stroke-linecap:round;stroke-linejoin:round}.st28,.st29,.st30,.st31{fill:none;stroke-width:4;stroke-miterlimit:10}.st29{stroke:#1b2638;stroke-linecap:round;stroke-linejoin:round}.st30{stroke:#98daf4}.st31{stroke:#65abe0}.st33,.st37,.st41{fill:none;stroke-width:4;stroke-linecap:round;stroke-linejoin:round}.st33{stroke:#b6fcff;stroke-miterlimit:10}.st37,.st41{stroke:#65abe0}.st41{stroke-dasharray:11.8323,11.8323}.st42{fill:none;stroke:#f4d862;stroke-width:5;stroke-miterlimit:10}</style><g><polygon points="1323.9 798.7 1314 844 1297.6 790 1281.2 736.1 1325.5 771.1 1369.7 806" class="st29"/><g><g><path d="M2172,1692.2c0,0-1.2,1.8-3.7,4.8" class="st37"/><path d="M2160.6,1705.9c-30,32.8-116.4,107.1-226.5,21.2" class="st41"/><path d="M1929.5,1723.5c-1.5-1.2-3.1-2.5-4.6-3.8" class="st37"/></g></g><g><g><path d="M915.4,535.1c0,0,0.5,2.1,1.2,5.9" class="st37"/><path d="M918.5,552.7c5.6,44.1,6.1,158-130.7,186.2" class="st41"/><path d="M782,740c-1.9,0.4-3.9,0.7-5.9,1" class="st37"/></g></g><path d="M1782.6,1867.3c0,0-149.1,49.5-243.5,60.6c-94.4,11.1-214.9-41.7-214.9-41.7c-0.4-7,0.2-15,1.4-23.2 c4.3-29.3,16.2-61.4,16.2-61.4s36.8-6.2,85.7-14.5c65-11.1,151.2-25.8,200.3-34.3c86-15,117.9-22.1,142,7.8 C1793.7,1790.4,1782.6,1867.3,1782.6,1867.3z" class="st1"/><polyline points="1341.7 1893.2 1440.7 1806.7 1485.6 1929.4 1593.7 1806.7 1654.7 1904.6 1700.6 1779.8 1772.2 1868.6" class="st33"/><path d="M1490.1,1849.4c-31.3,31-149.9,15.5-164.7,13.5c4.3-29.3,16.2-61.4,16.2-61.4s36.8-6.2,85.7-14.5 C1452.1,1795.8,1517.4,1822.4,1490.1,1849.4z" class="st5"/><path d="M1341.7,1801.5c0,0-19.5,52.8-17.6,84.7c0,0,120.5,52.8,214.9,41.7s243.5-60.6,243.5-60.6 s11.2-76.8-12.9-106.8s-56-22.8-142-7.8C1541.6,1767.6,1341.7,1801.5,1341.7,1801.5z" class="st29"/><polygon points="1630.6 613.1 1519.1 607.1 1641 547.3 1762.8 487.6 1696.9 606.2 1630.9 724.9" class="st1"/><g><polygon points="2116.5 1470.5 1899.1 1383.5 1893.7 1381.4 1856.4 1366.5 1852.2 1364.8 1830.6 1356.1 1766.8 1330.6 1575.7 1254.2 1495.6 1222.2 1365.8 1170.3 1500.7 977.1 1503.7 972.7 1652.5 759.7 1782.7 959 1785.3 963.1 1853.4 1067.5 1857.6 1073.9 2020.5 1323.4 2022.8 1326.9" class="st1"/><g><path d="M1782.7,959l2.7,4.1c-75.3,3.7-195.6,9.6-284.7,14l3.1-4.4C1591.4,968.4,1708,962.7,1782.7,959z" class="st2"/><polygon points="1857.6 1073.9 1856.4 1366.5 1852.2 1364.8 1853.4 1067.4" class="st2"/><polygon points="2022.8 1326.9 1899.1 1383.5 1893.7 1381.4 2020.5 1323.3" class="st2"/></g></g><path d="M1864,1205.2c0,0-1.9,28.8-7.1,56.5c-1.2,6.7-2.7,13.3-4.3,19.4c-2.3,8.7-5,16.4-8.2,22 c-8.1,14.3-11.8,35.9-13.7,53.1l-63.8-25.5l15.8-51.4l70.2-63.9l4.3-3.9L1864,1205.2z" class="st5"/><path d="M2041.9,930.9c-1.7,5.9-109.8,226.3-197.6,329.4c-14.3,16.8-28.1,30.5-40.8,39.6c-6.7,4.8-12.7,8.4-18.1,10.8 c-44.5,20.2-44.6-36.8-39.6-77.2c0,0,0,0,0,0c2.5-20.3,6.2-36.5,6.2-36.5l13.7-59.3c-0.4-2.3,16.1-22.3,36.1-47.4 c19.6-24.5,42.5-53.9,56.4-76.4c28-45.6,58-115.3,58-115.3S1768.3,680.5,1739,662.3c-29.3-18.2,0-3.3,0-3.3s25-69.3,59.5-49.1 c34.5,20.2,234.9,260.8,243.4,283.6C2050.3,916.3,2043.8,924,2041.9,930.9z" class="st4"/><path d="M1902.8,879.1c0,0,17.3,26.5,24.5,40.1" class="st29"/><path d="M1844.3,1260.3c-14.3,16.8-28.1,30.5-40.8,39.6c-6.7,4.8-12.7,8.4-18.1,10.8c-3.3-1.9-6-4.2-7.9-6.9 c-13.7-19.5-28.8-27.4-31.7-70.3c0,0,0,0,0,0c2.5-20.3,6.2-36.5,6.2-36.5l13.7-59.3c-0.4-2.3,16.1-22.3,36.1-47.4 c0,0,46.6,27.8,32.3,71.5C1823.5,1194.2,1830.4,1233.8,1844.3,1260.3z" class="st13"/><path d="M1765.7,1137.7c-0.9-4.6,64.5-78.2,92.5-123.8s58-115.3,58-115.3S1768.3,680.5,1739,662.3 c-29.3-18.2,0-3.3,0-3.3s25-69.3,59.5-49.1s234.9,260.8,243.4,283.6s2,30.5,0,37.4s-147.9,303.9-238.4,369S1752,1197,1752,1197 L1765.7,1137.7z" class="st29"/><g><polygon points="1549 1613.4 1441 1592.2 1313.5 1567.1 1257 1556 1251.8 1555 1212.3 1547.3 1208.3 1546.5 578 1422.7 547.3 1416.6 512.9 1303.1 512.1 1300.5 494.7 1243.1 493.6 1239.3 493.6 1239.3 479.8 1193.8 477.2 1185.3 477.2 1185.2 468.2 1155.7 387.4 889.2 524.1 860.7 528.1 859.9 928.8 776.5 1034.9 919.7 1037.2 922.7 1125.3 1041.6 1130.3 1048.3 1419.8 1439.1 1419.8 1439.1 1422 1442.1 1450.7 1480.7 1467.1 1502.9" class="st1"/><g><polygon points="528.1 859.9 479.8 1193.9 477.2 1185.3 524.1 860.7" class="st2"/><polygon points="1037.2 922.7 494.7 1243.1 493.6 1239.3 1034.9 919.7" class="st2"/><polygon points="1130.3 1048.3 1212.3 1547.3 1208.3 1546.5 1125.3 1041.6" class="st2"/><polygon points="1257 1556 1251.8 1555 1419.8 1439.1 1422 1442.1" class="st2"/></g></g><path d="M1361.2,1533.1c0,0-2.4,6.6-6.7,17.1c-15,36-53.3,117.2-97.9,128.8c-57.6,15-60.2-42.3-60.8-55.4 c-0.7-13-22.8-76.9-26.1-101c-3.2-24.1-26-187.6-50.1-223.4c-24.1-35.8,54.1-43,67.1-26.7c13,16.3,62.7,142.5,71.7,166.4 c2.8,7.4,10.3,12.1,19.2,15.2c20.1,6.9,47.8,5.4,47.8,5.4L1361.2,1533.1z" class="st4"/><path d="M1216.4,1334.7c0,0,25.1,66.3,46.4,62.4c21.3-3.9,53.8-46.9,53.8-46.9s1.3-21.7,0,6.7 c-1.3,28.4-15.2,69.3-15.2,69.3s-11.3,16.6-30.4,12.9c-19.1-3.8-11.6,66.2-32.9-11.1C1216.8,1350.6,1216.4,1334.7,1216.4,1334.7z" class="st5"/><path d="M1190.2,1278.1l-25.7,19.5c0,0-20.2,6.2-43.6-3.9c-11.9-5.1-27.2-23.2-39.9-40.5 c-12.3-16.8-22.2-32.7-23.9-35.1c-0.8-1.1-3.4-4.2-7-8.6c-12.5-14.9-37.1-43.8-42.1-52.3c-6.5-11.1,5.9-10.7,5.9-10.7 s45.9,42.3,48.5,44.3c2.6,2,7.8-1.9,7.8-1.9l-53.4-79.8c-5.5-16,10.1-9.8,10.1-9.8l53.4,63.5l-37.1-81.7c-1.6-13,10.1-7.5,10.1-7.5 s51.1,79.5,53.7,79.8c2.6,0.3,5.5-4.9,5.5-4.9s-25.1-66.8-26.1-71.3c-1-4.6-0.3-9.4,3.6-12.7c3.9-3.3,8.1,2.9,11.4,9.8 c3.2,6.8,56.3,101.3,56.3,101.3s9.1-2.6,10.4-6.2c1.3-3.6,0.3-39.7,0-50.2c-0.3-10.4,11.7-9.1,11.7-9.1c0.3,6.8,6.2,29.3,9.4,42.3 c3.3,13,1.6,54.1-3.2,73.9C1181.1,1246.2,1189.2,1276.4,1190.2,1278.1z" class="st4"/><path d="M1361.2,1533.1c0,0-2.4,6.6-6.7,17.1c-10.5-4.7-22.4-18.4-30.5-39.2c-9.9-25.4-10.9-13.7-36.3-16.9 c-25.4-3.3-19.5-37.1-19.5-37.1l9.5-2.8c20.1,6.9,47.8,5.4,47.8,5.4L1361.2,1533.1z" class="st13"/><path d="M1186,1226.3c4.9-19.9,6.5-60.9,3.3-73.9" class="st29"/><path d="M1487.7,1255.6c0,0-19.9,9.1-44.9,0.6c-25-8.5-55.6-19.9-77.7,3.8c-22.1,23.6-15.6,20.4-33.9,45.1 c-18.2,24.8-43,112-71.6,127.7c0,0-10.4,37.8,17.6,37.1s30.6-12.4,44.9,10.4c14.3,22.8,50.5,24.8,50.5,24.8s1.6,3.9,20.5-16.9 c18.9-20.8,31.9-28.7,67.7-64.5c35.8-35.8,67.1-76.2,67.1-76.2l1.3-58L1487.7,1255.6z" class="st10"/><polyline points="1278.2 1413.1 1376.4 1403.9 1331.3 1305.1 1418.3 1248.7" class="st28"/><path d="M1442.9,1256.3c-25-8.5-55.6-19.9-77.7,3.8c-22.1,23.6-15.6,20.4-33.9,45.1c-18.2,24.8-43,112-71.6,127.7 c0,0-10.4,37.8,17.6,37.1s30.6-12.4,44.9,10.4c14.3,22.8,50.5,24.8,50.5,24.8s1.6,3.9,20.5-16.9" class="st29"/><path d="M1770.9,1647.1c11.7,30,3.9,95.1,0,110.1c-3.9,15-41.7,41.7-81.4,61.2c-18.9,9.3-73.5,19.6-125.6,27.9 c-16,2.5-32.1,3.9-48.2,4c-54.9,0.4-109.2-13.1-157.8-39.9l-16.2-8.9l11.7-51.5c0,0-4.5-44.5-0.8-91.2c1-12,2.5-24.2,4.7-35.8 c11.1-56.7-27.4-68.4-5.9-143.9c21.5-75.6,44.9-121.8,48.8-132.2c3.9-10.4,87.2-90.6,87.2-90.6l197.4-2.6l97.6,100.8 c0,0-18.2,95.2-22.1,157.1C1756.6,1573.5,1759.2,1617.1,1770.9,1647.1z" class="st10"/><path d="M1538.1,1809.3c-19.7,1.5-23.1,23-22.4,41c-54.9,0.4-109.2-13.1-157.8-39.9l-16.2-8.9l11.7-51.5 c0,0-4.5-44.5-0.8-91.2l0,0c0,0,61.4,116.3,153.9,121C1599,1784.5,1572.2,1806.7,1538.1,1809.3z" class="st12"/><path d="M1500.3,1256.3l184.6-2.6l97.6,100.8c0,0-18.2,95.2-22.1,157.1s-1.3,105.5,10.4,135.5 c11.7,30,3.9,95.1,0,110.1c-3.9,15-41.7,41.7-81.4,61.2c-18.9,9.3-73.5,19.6-125.6,27.9c-70.7,11.2-143.2-1.3-206-35.9l-16.2-8.9 l11.7-51.5c0,0-7.2-70.3,3.9-127c11.1-56.7-27.4-68.4-5.9-143.9c21.5-75.6,44.9-121.8,48.9-132.2" class="st29"/><path d="M1783.9,914.3c-4.6,71.7-54.1,91.2-25.4,129c28.7,37.8,11.1,93.1-33.2,72.3c-44.3-20.8-40.4,36.5-70.4,26 c-30-10.4-46-59.9-46.2-71c-0.2-11.1,6.5-46.9,6.5-46.9l20.2-65.8l49.6-56l15.6-17.6c0,0,18.2-8.6,37.6-11.3 C1761.5,869.9,1786.4,875.3,1783.9,914.3z" class="st11"/><path d="M1726.3,962.6c-27,29.2-44,51.1-46.2,56.3c-2.3,5.2-10.8-23.8-10.8-23.8L1685,902l15.6-17.6 c0,0,18.2-8.6,37.6-11.3C1738.3,873.1,1753.3,933.3,1726.3,962.6z" class="st3"/><path d="M1418.9,1054.6c0.7-2.7-59.2-110.3,24-145.5c0,0,36.9-160.2,116.4-117.2c79.5,43,30,75.6,97.1,81.4 s76.9,35.8,44.3,82.7s9.8,94.2-44.9,98.6c-54.7,4.4-162.2,21.3-172.6,22.6S1418.9,1054.6,1418.9,1054.6z" class="st11"/><path d="M1627.6,1245.2l-0.1,1.3c0,0,0,0,0,0l-0.7,7.9l-40.5,0.5l-64.4,0.8l-34.3,0.5c0,0,0,0,0,0 c1.9-8,2.7-16.7,2.9-25.4c0.3-12-0.7-23.8-1.8-33.2c-1.4-11.5-3-19.3-3-19.3s135-45.6,132-17.4c-0.8,7.4-0.5,16.6,0.4,26.3 c0.8,8.6,2,17.6,3.4,25.8C1624.3,1230.9,1627.6,1245.2,1627.6,1245.2z" class="st4"/><ellipse cx="1442.9" cy="1080.2" class="st4" rx="19.3" ry="39.9" transform="matrix(0.9006 -0.4347 0.4347 0.9006 -326.1145 734.7067)"/><path d="M1464.4,1112.3c5.1-7.8,3.8-24.2-4.1-40.5c-9.6-19.8-25.1-32.2-34.7-27.5s-9.6,24.5,0,44.3 c4.3,9,9.9,16.4,15.5,21.4" class="st29"/><polygon points="302.6 1262.4 239.6 1259 308.4 1225.2 377.2 1191.5 340 1258.5 302.7 1325.4" class="st1"/><polygon points="1956.9 1269.7 2003.1 1274 1951.6 1296.9 1900.1 1319.8 1929.3 1271.5 1958.6 1223.3" class="st4"/><polygon points="651.3 962 666 1006.1 624.3 968.1 582.6 930.1 638.5 937.5 694.4 944.9" class="st4"/><circle cx="450.4" cy="952.6" r="32.5" class="st30"/><circle cx="1115" cy="793" r="32.5" class="st31"/><circle cx="1857.6" cy="1633.4" r="32.5" class="st31"/><path d="M1157,1178.1c0,0-0.3,82.7,3.6,101.1s-52.8-14.9-52.8-14.9L1157,1178.1z" class="st13"/><path d="M1152.1,1497.2v400.6c-170.7,63.8-552.6,5.2-552.6,5.2l7-66.1l9.7-91.6l35.8-337.6l42.2-128.5l81.8-45.7 c0,0,252.4,0,260.2,0c7.8,0,73.8,61.2,73.8,61.2l29.1,101.6L1152.1,1497.2z" class="st1"/><path d="M606.6,1836.9l9.7-91.6l80.7-22.6C697,1722.7,730,1814.7,606.6,1836.9z" class="st5"/><path d="M1152.1,1709.5V1827c-115.3-0.4-86-80.5-86-80.5l82.9-38C1149,1708.5,1150.1,1708.8,1152.1,1709.5z" class="st5"/><path d="M1152.1,1834v-121.2v-215.6l-13-100.9l-29.1-101.6c0,0-66-61.2-73.8-61.2c-7.8,0-260.2,0-260.2,0l-81.8,45.7 L652,1407.7l-45.7,432" class="st29"/><path d="M615.6,1410.3l-37.6,12.4l-30.7-6l-34.4-113.6c29.8-32.2,80.4-32.1,91.5-31.6L615.6,1410.3z" class="st5"/><path d="M711.8,1686.2c-6.8,16.6-41,115.3-79.1,114.3c-38.1-1-74.3-47.9-83-83c-5.8-23.2-3.9-88.7-2-130.4 c1-21.4,2-36.6,2-36.6l99.4-33.9l16.1-5.5L711.8,1686.2z" class="st4"/><path d="M1213,1532.8c0,0-0.7,12.4-2.1,31.1c-3.7,49.9-12.6,144.6-28.2,170.1c-21.5,35.2-59.6,78.2-97.7,40.1 l10.8-142.6l5.1-164.1l34.3,20L1213,1532.8z" class="st4"/><path d="M1213,1532.8c0,0-1.8,27-3.2,45.8c-18.9-11.1-27.5-15.3-41.9-9.6c-11.2,4.4-42.9,15.6-43.9,16.4l-23.3-25.2 c0,0,1.1-34.2,20.5-60.6c4.6-6.2,9.1-10,13.7-12.2L1213,1532.8z" class="st13"/><path d="M1112.6,1164.1c0,0-2.2,50.3-6.9,62.2c-4.8,11.9-22,27.4-22,27.4s-1-0.1-2.7-0.4 c-12.3-16.8-22.2-32.7-23.9-35.1c-0.8-1.1-3.4-4.2-7-8.6C1070.4,1188.4,1112.6,1164.1,1112.6,1164.1z" class="st13"/><path d="M660.2,1585.3c0,0-25.2,35.7-70.2,9.7c-16.4-9.5-30.7-10.5-42.4-8c1-21.4,2-36.6,2-36.6l99.4-33.9 c8.2,8.7,7.4,17.3,7.4,17.3L660.2,1585.3z" class="st13"/><path d="M996.8,1205.2c0,0,166.7,39.7,180.7,57c40.6,50.3,56,284.3,56,290.2s-18.9-25.9-47.3-21 c-28.3,4.9-35.2,27-57,28.8s-113.7-76.2-113.7-76.2s-46.7-43-45.9-102.6c0.8-59.5-8.8-46.7,11.7-81S996.8,1205.2,996.8,1205.2z" class="st1"/><path d="M776.2,1205.2c0,0-133.5,30.9-160.8,41.4s-57.3,55.4-59.9,64.5s-35.2,220.8-40.4,233.8c0,0,8.5,33.2,37.8,18.9 c29.3-14.3,37.8-26.1,72.3-5.9c34.5,20.2,51.5,2.6,51.5,2.6l26.7-71l20.2-82.1c0,0-3.9-22.1,15.6-50.2s50.9-68.4,50.9-68.4 s13.6-15.1,12.9-28.7c-0.7-13.5,5-29.9,0.5-38.1C799.1,1214,776.2,1205.2,776.2,1205.2z" class="st1"/><path d="M788.9,1197.2c0,0-31,13.3-29.3,42.4c0,0,33.4,108.6,135,108.6c83.2,0,115.9-72.8,125-101.2 c2.5-7.8,1.8-16.2-2-23.4c-4.2-8-14.4-20.9-27.8-28.6L788.9,1197.2z" class="st2"/><path d="M759.6,1239.6c0,0,33.4,108.6,135,108.6c83.2,0,115.9-72.8,125-101.2" class="st29"/><polyline points="527.8 1487.3 648.3 1539.6 550.7 1370.8 723.1 1352.5 628.8 1242.2" class="st33"/><path d="M996.7,1210.7c0,8.5-5.7,16.5-15.7,23.3c-18.7,12.8-52.4,21.3-90.7,21.3c-38.5,0-72.3-8.6-91-21.4 c-9.8-6.7-15.4-14.6-15.4-23.1c0-11.8,10.9-22.5,28.8-30.4c19.4-8.7,47-14.1,77.6-14.1c27.5,0,52.6,4.4,71.5,11.6 C983.2,1185.9,996.7,1197.6,996.7,1210.7z" class="st5"/><path d="M981,1234c-18.7,12.8-52.4,21.3-90.7,21.3c-38.5,0-72.3-8.6-91-21.4c5.9-13.5,10.3-34.4,13.3-53.5 c0.6-3.8,1.2-7.5,1.7-11.1c1.2-8.3,2.1-15.9,2.7-21.7c0.8-7.4,1.2-12,1.2-12s30.6-11.4,63.1-19c18.9-4.4,38.5-7.5,53.1-6.3 c14.7,1.2,24.3,6.9,22.9,20c-0.1,1.5-0.3,3-0.3,4.5c-0.7,13.7,1.4,28.7,4.8,43c0,0,0,0.1,0,0.1C967.1,1200.3,975.5,1221.3,981,1234 z" class="st4"/><path d="M961.8,1177.8c-10.4,21.8-30.9,48.5-69.3,48.5c-48.2,0-70.1-37.8-78.2-57.1c1.2-8.3,2.1-15.9,2.7-21.7 c12.4-10.9,39.9-22.3,64.3-31c24.2-8.7,45.4-14.6,45.4-14.6l7.7,8.3l22.6,24.5C956.3,1148.4,958.4,1163.4,961.8,1177.8 C961.8,1177.8,961.8,1177.8,961.8,1177.8z" class="st13"/><path d="M760.9,981.2c0,0-38.2-73.8,21.7-97.3c0,0,20.4-80.3,72.1-78.2c51.7,2.2,54.3,13.9,59.5,13 s37.3-24.3,52.1-6.9s23,64.5,43.9,60.4c0.3-0.1,0.6-0.1,0.9-0.2c18.9-3.7,32.5,17.9,20.9,33.2c-2.4,3.1-5.7,6.3-10.1,9.5 c-30.4,21.7,12.2,30.4-6.1,69.5s-40.4,41.7-40.4,41.7l-80,2.5c0,0-13.8,13.7-68.1-7c-54.3-20.7-56.9-22.9-56.9-22.9L760.9,981.2z" class="st11"/><g><circle cx="738.3" cy="800" r="20.2" class="st11"/><circle cx="770.2" cy="835.9" r="10.3" class="st11"/></g><path d="M889.9,1183.6c-99,0-103.5-127.7-98.6-152.9c3-15.2,3.8-46.2,4-68.4c0.1-14.6,0-25.4,0-25.4 c0.5-50.8,94.6-36.9,94.6-36.9s46.4-6.9,74.2,6.7c11.8,5.7,20.2,15.1,20.4,30.2c0,0-0.9,68.6,4,93.8 C993.4,1055.9,989,1183.6,889.9,1183.6z" class="st4"/><path d="M976.2,940.5c-1.8,17.9-80.7,50.7-113.3,22.5c-29.6-25.7-62-4.7-67.6-0.6c0.1-14.6,0-25.4,0-25.4 c0.5-50.8,94.6-36.9,94.6-36.9s46.4-6.9,74.2,6.7C978.5,916.7,977.5,927.7,976.2,940.5z" class="st13"/><path d="M761.9,1208.5c0,0-119.1,27.6-146.5,38s-56.2,52.6-58.8,61.7c-2.6,9.1-36.3,223.6-41.5,236.6 c0,0,8.5,33.2,37.8,18.9c29.3-14.3,37.8-26.1,72.3-5.9c34.5,20.2,51.5,2.6,51.5,2.6l26.7-71l20.2-82.1c0,0-3.9-22.1,15.6-50.2" class="st29"/><polyline points="1090 1560.5 1227.2 1484.2 1072.3 1403.9 1156.4 1252.6" class="st33"/><path d="M906.8,1065.2c0,5.8-8.6,10.4-19.2,10.4s-19.2-4.7-19.2-10.4c0-4.3,10.8-35.3,16.2-50.6c1-2.8,5-2.8,6,0 C896,1029.9,906.8,1060.9,906.8,1065.2z" class="st0"/><path d="M835.7,1090c10.9,5.1,58.3,23.9,106.9-3c0.9-0.5,1.9,0.4,1.6,1.3c-3.9,11.4-20.9,54.9-55,54.9 c-34.1,0-51.1-41.2-55-51.9C833.8,1090.5,834.8,1089.6,835.7,1090z" class="st29"/><path d="M942.2,1077.2c0,0,9.3-1.7,10.2,12.2" class="st29"/><path d="M836.4,1079.8c0,0-13.7-0.7-13,11.7" class="st29"/><path d="M1023.1,1029.5c-7.3,16.8-17.6,29.7-26.6,34.7c-4.1,2.3-8,2.9-11.2,1.5c-10.2-4.5-9.8-27.9,0.8-52.3 c10.7-24.5,27.6-40.7,37.8-36.2C1034.2,981.6,1033.8,1005.1,1023.1,1029.5z" class="st4"/><ellipse cx="776" cy="1021.4" class="st4" rx="20.2" ry="48.3" transform="matrix(0.9166 -0.3997 0.3997 0.9166 -343.6122 395.3549)"/><path d="M787.8,954.3c0.9-1.3,17.8-42.9,50.8-35.1c33,7.8,58.7,46.8,105.6,35.1s48.6-36.9,48.6-36.9 s10.9-6.1-7.8-19.1c-18.7-13-86-29.1-113.3-28.2s-30-7.4-48.2,6.5s-26.3,11.7-33.3,29.1c-7,17.4-8.8,29.1-8.8,29.1L787.8,954.3z" class="st11"/><path d="M711.8,1686.2c6.8-16.6,59.6-240.3,54.7-278.5l-79.1-26.4c0,0-50.8,185.6-67.4,209.6s-43,30.8-43,67.9" class="st4"/><line x1="890.3" x2="890.3" y1="1392.4" y2="1686.8" class="st29"/><path d="M1009.3,1208.5c0,0,151.6,38.8,168.3,53.6c35.5,31.7,56,284.3,56,290.2s-21.8-25.5-50.2-20.6 s-32.3,26.7-54.1,28.4s-113.7-76.2-113.7-76.2" class="st29"/><circle cx="937.8" cy="1616.5" r="14.3" class="st29"/><circle cx="937.8" cy="1517.4" r="14.3" class="st29"/><circle cx="937.8" cy="1418.3" r="14.3" class="st29"/><path d="M660.2,1862.7c0,0,257.1,53.4,441.6,0" class="st29"/><ellipse cx="825.6" cy="1055" class="st1" rx="6.9" ry="16.1" transform="matrix(0.2634 -0.9647 0.9647 0.2634 -409.6653 1573.5055)"/><path d="M810.4,1135.9c14.7,26.6,39.3,47.6,79.5,47.6c41.9,0,66.8-22.8,81.3-51.1" class="st29"/><path d="M1626.8,1241.8c0,0-2.5-0.4-6.6-0.9c-12.9-1.7-41.6-5.3-58.1-5.7c-21.7-0.4-45.7-4.8-57.8,0.4 c-12.2,5.2-16.8,20.6-16.8,20.6s7.6,92.7,56.3,136.6c0,0,72.8-60,83-123.1" class="st4"/><path d="M794.5,1013.4c-10.7-24.5-27.6-40.7-37.8-36.2c-10.2,4.5-9.8,27.9,0.8,52.3c7.3,16.6,17.4,29.5,26.4,34.6" class="st29"/><path d="M986.1,1013.4c10.7-24.5,27.6-40.7,37.8-36.2c10.2,4.5,9.8,27.9-0.8,52.3c-5.2,11.9-11.8,21.8-18.5,28.4 c-3.1,3-6.1,5.3-9,6.8" class="st29"/><path d="M974.6,1183.6c13.8,7.5,22.1,16.9,22.1,27.1c0,8.5-5.7,16.5-15.7,23.3c-18.7,12.8-52.4,21.3-90.7,21.3 c-38.5,0-72.3-8.6-91-21.4c-9.8-6.7-15.4-14.6-15.4-23.1c0-8.5,5.7-16.4,15.5-23.1" class="st29"/><path d="M546.5,1616.5c-1.2,38.4-1.4,82.7,3.2,101c8.8,35.2,44.9,82.1,83,83c38.1,1,72.3-97.7,79.1-114.3" class="st29"/><path d="M654.1,1496.3c-13.2,43.1-26.9,84.2-34.1,94.6c-16.6,23.9-43,30.8-43,67.9" class="st29"/><path d="M766.5,1407.7c0,0,13.9-11.8,15.6-26.4s-1.3-37.6-15.6-56.2c-14.3-18.7-25.6-55.1-30.4-62.5 c-4.8-7.4-17.8-10.4-24.3-10c-6.5,0.4,2.6,35.6,8.7,42.6c6.1,6.9,21.6,58,21.6,58l1.4,12.4c0,0,3,5.6,8.7,12.2 C757.8,1384.2,766.5,1407.7,766.5,1407.7z" class="st4"/><path d="M687.4,1381.4c0,0-20.2-43.2-27.2-68.8c-6.5-23.9-36-95.4-47-118.6c-1.8-3.8-0.3-8.5,3.6-10.2 c3.6-1.5,8.7-0.2,14.8,11.2c12.2,22.9,55.9,82.8,55.9,82.8l29.2,79.5l1.3,24.1l-11.3,15L687.4,1381.4z" class="st4"/><path d="M1102.8,1077.1c0,0,28.1,53,30.7,55.4" class="st29"/><path d="M1621.4,1213.1c-3.2,7.7-8,16.5-14.6,24.7c-5.5,6.6-12.2,12.7-20.5,17.2c-10.1,5.4-22.5,8.4-37.6,7.1 c-10.4-0.9-19.3-3.2-26.8-6.2c-10.2-4.1-18-9.8-24-15.9c-2.9-2.9-5.3-6-7.4-9c0.3-12-0.7-23.8-1.8-33.2l102.4-29l27,18.6 C1618.8,1195.9,1620.1,1204.9,1621.4,1213.1z" class="st13"/><path d="M617.6,1188.8l-17.8-49.3c-0.8-2.1,0.6-4.4,2.8-4.7c4.9-0.6,13.1,0.3,18.9,11.5c8.7,16.9,57.8,100.7,66,119.4 c8.3,18.7,34.3,59.9,35.6,86.8c1.3,26.9,0.5,43.9,0.5,43.9s-7.4-0.4-10,0c-2.6,0.4-14.8-15-14.8-15l-23.4-87.5L617.6,1188.8z" class="st4"/><path d="M623.5,1150l-17.2-34.9c0,0,12.1-16.1,23.4,8s50.2,88.9,57,107.1c6.8,18.2,32.2,54.7,37.1,64.8 s34.9,32.6,28.7,61.6c-6.2,29-28.7,43.3-28.7,43.3l-9.7,1c0,0-14.4-7-17.2-12.1c-2.8-5.2-12.8-39-12.8-39l-23.9-98.7l-13.1-31 l-15.3-37L623.5,1150z" class="st4"/><path d="M709.6,1372.9c0,0-9.3,14.8-7,25.6c2.3,10.9,21.2,23.9,21.2,23.9s24.6,7.4,29.5,2.6 c4.9-4.8,15.3-13.9,16.2-28.7c0.9-14.8-10-30-10-30s5.2-8.7-16.1-5.6C722.2,1363.8,709.6,1372.9,709.6,1372.9z" class="st4"/><path d="M1085,1774.1c-38.1-38.1-94.8-214.7-73.3-387.7c0,0,60.6-12.2,73.3,10c0,0,19.5,116.9,54.7,176.5 c35.2,59.6,33.2,94.8,33.2,94.8" class="st4"/><path d="M1208.7,1592.3c-4.6,51.3-12.9,120.5-25.9,141.8c-21.5,35.2-59.6,78.2-97.7,40.1" class="st29"/><path d="M1110.7,1503.1c8,25.3,17.7,50.5,29,69.8c35.2,59.6,33.2,94.8,33.2,94.8" class="st29"/><path d="M631.5,1194.9c12.2,22.9,55.9,82.8,55.9,82.8l17.6,47.8" class="st29"/><path d="M723.8,1295c4.9,10.1,34.9,32.6,28.7,61.6" class="st29"/><g><path d="M1011.8,1386.4c0,0-21.6-21.3-12.9-44.3c8.7-23,29.5-44.7,43.9-62.7c14.3-18,36-64.9,44.7-81.9 s33-71.6,44.7-73l6.9,4.3c0,0-37.7,86.1-43,95.5c-5.3,9.4-21.7,83.4-21.7,83.4s3.9,3.5-4.3,25.6c-8.3,22.1-12.2,29.5-18.7,40.8 c-6.5,11.3-17.8,18.2-17.8,18.2l-20-6.1" class="st4"/><path d="M1091.8,1214.2c0,0,52.1-103.6,57.8-108.3s14.3-5.6,18.7,0l-67.3,143.7l-19.5-0.9L1091.8,1214.2z" class="st4"/><path d="M1104.8,1218.7c0,0,52.3-99.2,57.9-101.1c5.5-1.8,15.5-6,20.3,0l-58.2,114.5l-14.7,26.3l-9.2,2L1104.8,1218.7 z" class="st4"/><path d="M1112.6,1232.2c0,0,44.3-71.2,46.5-74.3c2.2-3,12.2-3.5,15.6,2.6c0,0-43.4,89.9-49.9,112.9 c-6.5,23-26.9,112.5-43.4,123.3c-16.5,10.9-49.5,6.1-52.1-10.4c-2.6-16.5,11.3-65.6,11.3-65.6l27.4-41.6l13.4-23.8L1112.6,1232.2z" class="st4"/><path d="M1007,1325.6c0,0,8-14.9,7.3-36.7s-1.5-39.1,6.7-45.3c8.2-6.2,15.9,0.5,17.9,11.8c2,11.2-0.9,29.6-0.9,29.6 l0.9,16.9l-13.6,17.9L1007,1325.6z" class="st4"/><path d="M1031.9,1356.9c3.4-18,8.6-36.1,8.6-36.1l27.4-41.6l13.4-23.8" class="st29"/></g><path d="M1548.6,930c0,0-98.9,27.8-95.4,80.8c0,0,4.5,28.7,3.3,61.2s-8.6,147.2,92.2,147.2 c100.7,0,93.4-114.6,92.2-147.2c-1.2-32.6,3.3-61.2,3.3-61.2C1647.5,957.8,1548.6,930,1548.6,930z" class="st4"/><ellipse cx="1650.6" cy="1080.2" class="st4" rx="39.9" ry="19.3" transform="matrix(0.4347 -0.9006 0.9006 0.4347 -39.7502 2097.021)"/><path d="M1445.9,1007.6c0,0,32.6-78.3,55-64.3s-6.8,60.3,40.1,56.3c46.9-3.9,59-26.5,81.9-0.9 c22.9,25.6,33,30.2,36,12.6c2.9-17.6-4.6-67.7-21.5-81.4s-58-26.7-58-26.7l-93.5,0.7c0,0-43,21.5-44.6,56.7 C1439.7,995.8,1445.9,1007.6,1445.9,1007.6z" class="st11"/><ellipse cx="1784.1" cy="861.3" class="st42" rx="50.5" ry="21.8" transform="matrix(0.9006 -0.4347 0.4347 0.9006 -197.0056 861.2934)"/><ellipse cx="1777.5" cy="912.7" class="st42" rx="21.8" ry="50.5" transform="matrix(0.5604 -0.8282 0.8282 0.5604 25.477 1873.4231)"/><path d="M1440.7,1571.5c0,0,4.6-29.3,74.9-13.7c70.3,15.6,122.9,8.5,128.5,3.9" class="st29"/><path d="M1714.5,1422.4c0,0,14.1,71.6-20.4,96.4" class="st29"/><g><path d="M1741.9,668c0,0-61.8-21.8-69.6-27.4c-7.8-5.5-44.4-49.6-44.4-49.6s-7-38.5-7.8-42.9c0,0,9.6-8.5,15.5,0 s14.1,27.7,18.9,33.7c4.8,5.9,3.3,14.1,19.6,17c16.3,3,60.3-14.4,81.8,15.9C1777.4,645.1,1741.9,668,1741.9,668z" class="st4"/><path d="M1693.4,527.6c1.7,0.2,18.9,17.6,23.3,23.9c4.4,6.3,12.4,41.3,12.4,41.3l22.9,15.5l26.1,9.2l20.3-15.7 c0,0-35.1-40.3-45.9-48.1c-10.7-7.8-29.4-28.7-33.3-32.2c-3.9-3.5-22.8-7.8-23.7-8.1c-0.9-0.4-20,15-20,15s-1.8,10,9.2,8.1 c11.1-1.8,16.1-7.2,16.1-7.2" class="st4"/><path d="M1685.1,534.1c0,0-3.7,15.9-21.6,17.4c0,0-11.5-12.2-11.5-15.4c0-3.1,2.2-10.5,11.3-10.9 C1672.3,524.8,1685.1,534.1,1685.1,534.1z" class="st4"/><polygon points="1683.7 533.1 1707.7 553.3 1687 565.4 1664.6 544.4" class="st4"/><path d="M1658.8,544.4l12.8,27.3c0,0,0.4,11.5-17,10.2c-17.4-1.3-23.1-27.7-22.6-28.7s7.4-21.6,23.7-16.5 S1658.8,544.4,1658.8,544.4z" class="st4"/><path d="M1669.9,574.6l18.1-11.5l-4.6-13.9c0,0-9.4-11.3-15.7-9.4c-6.3,1.8-12.6,3.9-12.9,11.7 c-0.4,7.8-3.5,8.1,2.6,14C1663.5,571.3,1669.9,574.6,1669.9,574.6z" class="st4"/><polygon points="1645.7 612 1616.8 590.3 1629.6 590.3" class="st4"/><path d="M1615.4,590.3c0,0-6.7-19.4,6.8-22c13.6-2.6,9.4,12.8,9.8,16.1c0.4,3.3-0.7,6.8-0.7,6.8l-6.7,2.8l-7.8-3.7" class="st4"/><path d="M1689.3,557.1c0,0,28.3-15.4,33.6-12.7s73,50.9,79.4,61.8c6.4,11-56.5,64.8-56.5,64.8s-21.2-10.8-30.4-16.1 c-9.2-5.3-30.2-19.7-30.2-19.7l-42.1-50.6L1689.3,557.1z" class="st4"/></g><path d="M1557.3,1098.4c0,5.8-8.6,10.4-19.2,10.4c-10.6,0-19.2-4.7-19.2-10.4c0-4.3,10.8-35.3,16.2-50.6 c1-2.8,5-2.8,6,0C1546.5,1063,1557.3,1094,1557.3,1098.4z" class="st0"/><ellipse cx="1482.3" cy="1090.4" class="st1" rx="6.9" ry="16.1" transform="matrix(0.2634 -0.9647 0.9647 0.2634 39.9318 2233.0708)"/><path d="M1494.1,1129.6c0,0,74.6,7.5,99.3-17.3c0,0,3.6,53.4-38.8,63.8S1496.7,1151.4,1494.1,1129.6z" class="st29"/><path d="M1494.1,1114.9c0,0-18.5,3.9-15.4,16.7" class="st29"/><path d="M1593.5,1103.2c0,0,12,1.7,13.7,11.7" class="st29"/><path d="M1471.7,1175.7c12.9,24.6,36,43.4,76.8,43.4c37.6,0,60.1-15.9,73.5-37.6c2.6-4.1,4.8-8.5,6.7-12.9" class="st29"/><path d="M1633.3,1071.8c9.6-19.8,25.1-32.2,34.7-27.5s9.6,24.5,0,44.3c-4.1,8.5-9.2,15.5-14.6,20.5" class="st29"/><path d="M1626.5,1257.5c0,0-1.5-85.2,35.7-81.9c37.1,3.3,66.2-3.3,80.3-18.2c14.1-15,17.4-27.4,32.4-25.4 c15,2,44.9,18,34.5,45.8c-10.4,27.8-20.8,66.9-5.9,83.1s18.9,25.4,15.6,33.9l-49.5,81c0,0-63.2-14.5-93.1-25.6s-1.3-50.2-1.3-50.2 L1626.5,1257.5z" class="st10"/><polyline points="1675.1 1175.7 1675.1 1283.4 1756.3 1241.2 1795 1334.1" class="st28"/><path d="M1662.1,1175.5c37.1,3.3,66.2-3.3,80.3-18.2c14.1-15,17.4-27.4,32.4-25.4c15,2,44.9,18,34.5,45.8 c-10.4,27.8-20.8,66.9-5.9,83.1s18.9,25.4,15.6,33.9l-33,54c-10.9,17.7-25.7,32.7-43.4,43.6l-0.2,0.1" class="st29"/><path d="M1338.4,1585.3c-19.2,38.3-48.8,85.1-81.8,93.7c-14,3.6-24.7,3-33-0.2" class="st29"/><g><polygon points="1683.7 533.1 1703.6 549.9 1683.4 560.6 1664.6 544.4" class="st29"/><path d="M1658.8,544.4l12.8,27.3c0,0,0.4,11.5-17,10.2c-17.4-1.3-23.1-27.7-22.6-28.7s7.4-21.6,23.7-16.5 S1658.8,544.4,1658.8,544.4z" class="st4"/><path d="M1658.8,544.4l12.8,27.3c0,0,0.4,11.5-17,10.2c-17.4-1.3-23.1-27.7-22.6-28.7s7.4-21.6,23.7-16.5 S1658.8,544.4,1658.8,544.4z" class="st29"/><path d="M1685.1,534.1c0,0-3.7,15.9-21.6,17.4c0,0-11.5-12.2-11.5-15.4c0-3.1,2.2-10.5,11.3-10.9 C1672.3,524.8,1685.1,534.1,1685.1,534.1z" class="st4"/><polygon points="1645.7 612 1616.8 590.3 1629.6 590.3" class="st29"/><path d="M1615.4,590.3c0,0-6.7-19.4,6.8-22c13.6-2.6,9.4,12.8,9.8,16.1c0.4,3.3-0.7,6.8-0.7,6.8l-6.7,2.8l-7.8-3.7" class="st29"/><path d="M1685.1,534.1c0,0-3.7,15.9-21.6,17.4c0,0-11.5-12.2-11.5-15.4c0-3.1,2.2-10.5,11.3-10.9 C1672.3,524.8,1685.1,534.1,1685.1,534.1z" class="st29"/><path d="M1675.5,565.3l13.8-8.2c0,0,28.3-15.4,33.6-12.7c3.6,1.8,36.5,25,59,43" class="st29"/><path d="M1748.9,671c0,0-24.4-10.8-33.5-16.1c-9.2-5.3-30.2-19.7-30.2-19.7l-42.1-50.6" class="st29"/><path d="M1693.4,527.6c1.7,0.2,18.9,17.6,23.3,23.9c4.4,6.3,12.4,41.3,12.4,41.3l22.9,15.5l26.1,9.2l20.3-15.7 c0,0-35.1-40.3-45.9-48.1c-10.7-7.8-29.4-28.7-33.3-32.2c-3.9-3.5-22.8-7.8-23.7-8.1c-0.9-0.4-20,15-20,15s-1.8,10,9.2,8.1 c11.1-1.8,16.1-7.2,16.1-7.2" class="st4"/><path d="M1741.9,668c0,0-61.8-21.8-69.6-27.4c-7.8-5.5-44.4-49.6-44.4-49.6s-7-38.5-7.8-42.9c0,0,9.6-8.5,15.5,0 s14.1,27.7,18.9,33.7c4.8,5.9,3.3,14.1,19.6,17c16.3,3,60.3-14.4,81.8,15.9C1777.4,645.1,1741.9,668,1741.9,668z" class="st4"/><path d="M1741.9,668c0,0-61.8-21.8-69.6-27.4c-7.8-5.5-44.4-49.6-44.4-49.6s-7-38.5-7.8-42.9c0,0,9.6-8.5,15.5,0 s14.1,27.7,18.9,33.7c4.8,5.9,3.3,14.1,19.6,17c6.9,1.2,18.6-1.1,31.6-2c17.8-1.2,37.8,0.4,50.2,17.9c9.4,13.3,7.9,25.2,3.2,34.3" class="st29"/><path d="M1787.3,589.2c-1.3-1.4-2.6-2.9-4-4.4c-10.9-12-24.7-26.7-30.7-31.1c-10.7-7.8-29.4-28.7-33.3-32.2 c-3.9-3.5-22.8-7.8-23.7-8.1c-0.9-0.4-20,15-20,15s-1.8,10,9.2,8.1c11.1-1.8,16.1-7.2,16.1-7.2" class="st29"/><path d="M1698.2,531.5c1.7,0.2,14.1,13.7,18.5,20c2.5,3.5,6,15.9,8.7,26.2" class="st29"/><path d="M1783.3,584.7c11.9,11.6,15.6,25.5,19.3,28" class="st29"/></g><path d="M1492.5,1288.1c0,0,22.1,87.6,51.3,104.7c0,0,59.2-53.4,70.8-86.7" class="st29"/><g><circle cx="1687.3" cy="773" r="26.7" class="st11"/><circle cx="1664.2" cy="832.2" r="13.6" class="st11"/></g><path d="M1028.9,1127.4c0,0-15.9-19-13.3-25.5s10.2-8.7,23.3,11.9" class="st29"/><path d="M401.9,1524l25.6,6.5c0,0-92.5,60.8-46.9,154.6H286C286,1685.1,278.6,1550.9,401.9,1524z" class="st3"/><path d="M2059.9,756.8l17.6,19.7c0,0,11.1-110.1,115.4-113.1l-43.8-83.9C2149.2,579.6,2026.8,635,2059.9,756.8z" class="st0"/><ellipse cx="572.5" cy="861.7" class="st3" rx="29.3" ry="47.5" transform="matrix(0.9209 -0.3899 0.3899 0.9209 -290.6804 291.4452)"/><ellipse cx="1056.6" cy="676.5" class="st0" rx="47.5" ry="29.3" transform="matrix(0.4353 -0.9003 0.9003 0.4353 -12.3869 1333.2963)"/><ellipse cx="2141.2" cy="1050.1" class="st0" rx="47.5" ry="29.3" transform="matrix(0.4353 -0.9003 0.9003 0.4353 263.7378 2520.6406)"/><ellipse cx="543.2" cy="942.9" class="st3" rx="9.8" ry="15.8" transform="matrix(0.9209 -0.3899 0.3899 0.9209 -324.6364 286.4409)"/><ellipse cx="447.4" cy="1786.9" class="st3" rx="9.8" ry="15.8" transform="matrix(0.9209 -0.3899 0.3899 0.9209 -661.3433 315.8694)"/><ellipse cx="613.6" cy="585.1" class="st0" rx="9.8" ry="15.8" transform="matrix(0.9209 -0.3899 0.3899 0.9209 -179.5686 285.558)"/><ellipse cx="2054.3" cy="1451.7" class="st3" rx="9.8" ry="15.8" transform="matrix(0.9209 -0.3899 0.3899 0.9209 -403.4463 915.8849)"/><ellipse cx="2092.3" cy="1151.2" class="st3" rx="9.8" ry="15.8" transform="matrix(0.9209 -0.3899 0.3899 0.9209 -283.2506 906.942)"/><g><g><path d="M668.6,571.5c0,0-37.4,29.6-26.6,67.3c10.7,37.7,31.6,80.8,31.6,80.8l30,13.5c0,0-40.1-87.1-44.6-105 c-5.7-22.5,7.1-45,22-53.1C695.9,566.9,668.6,571.5,668.6,571.5z" class="st0"/><path d="M793.3,491.2c0,0,10.4,102.8,54.8,135.5L833.9,643c0,0-40.9-23.8-54.5-158.6L793.3,491.2z" class="st0"/><path d="M748.2,566.8c-45.7-11.8-78.2-5-88,12.7c90.4-13.1,173.7,63.5,173.7,63.5l16.4-14.9 C850.4,628.1,793.9,578.6,748.2,566.8z" class="st3"/><path d="M706,734.7c0,0-14.8,14.6-22.4,15.9c0,0-43.8-36.4-68-44.8c-24.1-8.4-55.3-27.3-81.5-18.9 c0,0,16.5-19,30.1-17.4C577.8,671.2,682.8,711.2,706,734.7z" class="st3"/></g><path d="M696,561c0,0,56.5-0.9,94.2,24.1" class="st29"/><line x1="664.1" x2="693" y1="643" y2="710" class="st29"/></g><g><g><path d="M2093.2,1516.3c0,0-41.6-23.3-72.4,0.9c-30.8,24.3-62.7,59.9-62.7,59.9l-1.1,32.9c0,0,65.3-70.2,80.2-81.2 c18.7-13.8,44.4-10.6,57.5,0.2C2107.9,1539.8,2093.2,1516.3,2093.2,1516.3z" class="st0"/><path d="M2214.9,1601.2c0,0-91.1,48.7-104.4,102.2l-20.5-6.9c0,0,6.4-46.8,125.9-110.8L2214.9,1601.2z" class="st0"/><path d="M2127.9,1588.2c-6.5-46.7-25.2-74.3-45.2-76.6c46.5,78.6,7.3,184.8,7.3,184.8l20.1,9.5 C2110,1705.9,2134.3,1634.9,2127.9,1588.2z" class="st3"/><path d="M1956.5,1613c0,0-19.1-8.1-23.2-14.7c0,0,17-54.4,15.6-79.9s4.2-61.5-13.6-82.6c0,0,23.9,8.1,27.6,21.2 C1966.5,1470.2,1969.4,1582.6,1956.5,1613z" class="st3"/></g><path d="M2113.4,1537.6c0,0,22.3,51.9,13.5,96.3" class="st29"/><line x1="2025.4" x2="1974.4" y1="1539.4" y2="1591.6" class="st29"/></g><path d="M394.3,1562.4c0,0-33.3,36.2-24.7,89.4" class="st29"/><path d="M2087,740.4c0,0,25.6-55.1,55.8-65" class="st29"/><path d="M606.6,1271.5c0,0-0.8-0.1-2.2-0.1l-0.5-6L606.6,1271.5z" class="st5"/><path d="M1626.8,1269.8c1.5-9.3,1.6-18.7,0-28l-8.4,3.1l-1.1,12.4L1626.8,1269.8z" class="st4"/></g></svg>