<?xml version="1.0" encoding="utf-8"?>
<!-- Generator: Adobe Illustrator 24.3.0, SVG Export Plug-In . SVG Version: 6.00 Build 0)  -->
<svg version="1.1" id="illustrations" xmlns="http://www.w3.org/2000/svg" xmlns:xlink="http://www.w3.org/1999/xlink" x="0px"
	 y="0px" viewBox="0 0 2500 2500" style="enable-background:new 0 0 2500 2500;" xml:space="preserve">
<style type="text/css">
	.st0{fill:#F299AC;}
	.st1{fill:#98DAF4;}
	.st2{fill:#B0ECFF;}
	.st3{fill:#F4D862;}
	.st4{fill:#FFFFFF;}
	.st5{fill:#82C0E0;}
	.st6{fill:none;stroke:#B6FCFF;stroke-width:4.4199;stroke-linecap:round;stroke-linejoin:round;stroke-miterlimit:10;}
	.st7{fill:none;stroke:#1B2638;stroke-width:4.4199;stroke-miterlimit:10;}
	.st8{fill:#FFF27D;}
	.st9{fill:none;stroke:#1B2638;stroke-width:4.4199;stroke-linecap:round;stroke-linejoin:round;stroke-miterlimit:10;}
	.st10{fill:#65ABE0;}
	.st11{fill:#1B2638;}
	.st12{fill:#4B8CC6;}
	.st13{fill:#DAE4EA;}
	.st14{fill:#F9B9CE;}
	.st15{fill:#253544;}
	.st16{fill:none;stroke:#FFFFFF;stroke-width:4.4199;stroke-linecap:round;stroke-linejoin:round;}
	.st17{fill:none;stroke:#FFFFFF;stroke-width:4.4199;stroke-linecap:round;stroke-linejoin:round;stroke-dasharray:13.494,13.494;}
	.st18{fill:#E5889A;}
	.st19{fill:none;stroke:#FFFFFF;stroke-width:4.4199;stroke-linecap:round;stroke-linejoin:round;stroke-miterlimit:10;}
	.st20{fill:none;stroke:#98DAF4;stroke-width:4.4199;stroke-miterlimit:10;}
	.st21{fill:none;stroke:#65ABE0;stroke-width:4.4199;stroke-miterlimit:10;}
	.st22{fill:#FFFFFF;stroke:#2A353F;stroke-width:3.3149;stroke-linecap:round;stroke-linejoin:round;stroke-miterlimit:10;}
	.st23{fill:none;stroke:#B6FCFF;stroke-width:4.4199;stroke-miterlimit:10;}
	.st24{fill:none;stroke:#1B2638;stroke-width:1.105;stroke-linecap:round;stroke-linejoin:round;stroke-miterlimit:10;}
	.st25{fill:#B6FCFF;}
	.st26{fill:none;stroke:#98DAF4;stroke-width:4.4199;stroke-linecap:round;stroke-linejoin:round;stroke-miterlimit:10;}
	.st27{fill:none;stroke:#B0ECFF;stroke-width:4.4199;stroke-miterlimit:10;}
	.st28{fill:none;stroke:#B0ECFF;stroke-width:4;stroke-linecap:round;stroke-linejoin:round;stroke-miterlimit:10;}
	.st29{fill:none;stroke:#1B2638;stroke-width:4;stroke-linecap:round;stroke-linejoin:round;stroke-miterlimit:10;}
	.st30{fill:none;stroke:#98DAF4;stroke-width:4;stroke-miterlimit:10;}
	.st31{fill:none;stroke:#65ABE0;stroke-width:4;stroke-miterlimit:10;}
	.st32{fill:none;stroke:#FFFFFF;stroke-width:4;stroke-linecap:round;stroke-linejoin:round;stroke-miterlimit:10;}
	.st33{fill:none;stroke:#B6FCFF;stroke-width:4;stroke-linecap:round;stroke-linejoin:round;stroke-miterlimit:10;}
	.st34{fill:none;stroke:#1B2638;stroke-width:4;stroke-miterlimit:10;}
	.st35{fill:none;stroke:#1B2638;stroke-width:3;stroke-linecap:round;stroke-linejoin:round;stroke-miterlimit:10;}
	.st36{fill:#FFFFFF;stroke:#1B2638;stroke-width:4;stroke-linecap:round;stroke-linejoin:round;stroke-miterlimit:10;}
	.st37{fill:none;stroke:#65ABE0;stroke-width:4;stroke-linecap:round;stroke-linejoin:round;}
	.st38{fill:none;stroke:#65ABE0;stroke-width:4;stroke-linecap:round;stroke-linejoin:round;stroke-dasharray:12.2119,12.2119;}
	.st39{fill:none;stroke:#FFFFFF;stroke-width:4;stroke-miterlimit:10;}
	.st40{fill:#F4D862;stroke:#1B2638;stroke-width:4;stroke-linecap:round;stroke-linejoin:round;stroke-miterlimit:10;}
	.st41{fill:none;stroke:#65ABE0;stroke-width:4;stroke-linecap:round;stroke-linejoin:round;stroke-dasharray:11.8323,11.8323;}
	.st42{fill:none;stroke:#F4D862;stroke-width:5;stroke-miterlimit:10;}
	.st43{fill:none;stroke:#FFF27D;stroke-width:4;stroke-linecap:round;stroke-linejoin:round;stroke-miterlimit:10;}
	.st44{fill:none;stroke:#65ABE0;stroke-width:4;stroke-linecap:round;stroke-linejoin:round;stroke-dasharray:11.8497,11.8497;}
	.st45{fill:none;stroke:#1B2638;stroke-width:4.7246;stroke-linecap:round;stroke-linejoin:round;stroke-miterlimit:10;}
	.st46{fill:none;stroke:#1B2638;stroke-width:5.9057;stroke-linecap:round;stroke-linejoin:round;stroke-miterlimit:10;}
	.st47{fill:#EAB853;}
	.st48{fill:none;stroke:#98DAF4;stroke-width:4.7246;stroke-miterlimit:10;}
	.st49{fill:none;stroke:#65ABE0;stroke-width:4.7246;stroke-miterlimit:10;}
	.st50{fill:none;stroke:#65ABE0;stroke-width:4.7246;stroke-linecap:round;stroke-linejoin:round;}
	
		.st51{fill:none;stroke:#65ABE0;stroke-width:4.7246;stroke-linecap:round;stroke-linejoin:round;stroke-dasharray:14.7632,14.7632;}
	.st52{fill:none;stroke:#98DAF4;stroke-width:4.7246;stroke-linecap:round;stroke-linejoin:round;stroke-miterlimit:10;}
	.st53{fill:none;stroke:#FFF27D;stroke-width:4.7246;stroke-linecap:round;stroke-linejoin:round;stroke-miterlimit:10;}
	.st54{fill:none;stroke:#FFFFFF;stroke-width:5.9057;stroke-linecap:round;stroke-linejoin:round;stroke-miterlimit:10;}
	.st55{fill:none;stroke:#65ABE0;stroke-width:4.8739;stroke-miterlimit:10;}
	.st56{fill:none;stroke:#1B2638;stroke-width:4.8739;stroke-linecap:round;stroke-linejoin:round;stroke-miterlimit:10;}
	.st57{fill:none;stroke:#1B2638;stroke-width:4.8739;stroke-miterlimit:10;}
	.st58{fill:none;stroke:#B6FCFF;stroke-width:4.8739;stroke-linecap:round;stroke-linejoin:round;stroke-miterlimit:10;}
	.st59{fill:none;stroke:#FFF27D;stroke-width:6.0924;stroke-linecap:round;stroke-linejoin:round;stroke-miterlimit:10;}
	.st60{fill:none;stroke:#98DAF4;stroke-width:4.8739;stroke-miterlimit:10;}
	.st61{fill:none;stroke:#FFFFFF;stroke-width:4.8739;stroke-linecap:round;stroke-linejoin:round;stroke-miterlimit:10;}
	.st62{fill:none;stroke:#000000;stroke-width:1.2185;stroke-linecap:round;stroke-linejoin:round;stroke-miterlimit:10;}
	.st63{fill:none;stroke:#B0ECFF;stroke-width:4.8739;stroke-miterlimit:10;}
	.st64{fill:none;stroke:#1B2638;stroke-width:4.8739;stroke-linecap:round;stroke-linejoin:round;}
	
		.st65{fill:none;stroke:#1B2638;stroke-width:4.8739;stroke-linecap:round;stroke-linejoin:round;stroke-dasharray:13.9257,13.9257;}
	.st66{fill:none;stroke:#FFFFFF;stroke-width:6.0924;stroke-linecap:round;stroke-linejoin:round;stroke-miterlimit:10;}
	.st67{fill:none;stroke:#1B2638;stroke-width:4.4753;stroke-linecap:round;stroke-linejoin:round;stroke-miterlimit:10;}
	.st68{fill:none;stroke:#FFF27D;stroke-width:11.1884;stroke-linecap:round;stroke-linejoin:round;stroke-miterlimit:10;}
	.st69{fill:none;stroke:#FFFFFF;stroke-width:3.3565;stroke-miterlimit:10;}
	.st70{fill:none;stroke:#65ABE0;stroke-width:4.4753;stroke-miterlimit:10;}
	.st71{fill:none;stroke:#FFFFFF;stroke-width:4.4753;stroke-linecap:round;stroke-linejoin:round;stroke-miterlimit:10;}
	.st72{fill:none;stroke:#1B2638;stroke-width:3.3565;stroke-linecap:round;stroke-linejoin:round;stroke-miterlimit:10;}
	.st73{fill:none;stroke:#FFFFFF;stroke-width:3.3565;stroke-linecap:round;stroke-linejoin:round;stroke-miterlimit:10;}
	.st74{fill:none;stroke:#1B2638;stroke-width:5.0317;stroke-linecap:round;stroke-linejoin:round;stroke-miterlimit:10;}
	.st75{fill:none;stroke:#1B2638;stroke-width:4.4043;stroke-linecap:round;stroke-linejoin:round;stroke-miterlimit:10;}
	.st76{fill:none;stroke:#1B2638;stroke-width:4.9518;stroke-linecap:round;stroke-linejoin:round;stroke-miterlimit:10;}
	.st77{fill:none;stroke:#FFFFFF;stroke-width:4.9518;stroke-linecap:round;stroke-linejoin:round;stroke-miterlimit:10;}
	.st78{fill:none;stroke:#000000;stroke-width:1.1011;stroke-miterlimit:10;}
	.st79{fill:none;stroke:#98DAF4;stroke-width:12.1119;stroke-linecap:round;stroke-linejoin:round;stroke-miterlimit:10;}
	.st80{fill:none;stroke:#FFFFFF;stroke-width:4.4043;stroke-linecap:round;stroke-linejoin:round;stroke-miterlimit:10;}
	.st81{fill:none;stroke:#B6FCFF;stroke-width:4.9518;stroke-linecap:round;stroke-linejoin:round;stroke-miterlimit:10;}
	.st82{fill:none;stroke:#1B2638;stroke-width:15.4151;stroke-linecap:round;stroke-linejoin:round;stroke-miterlimit:10;}
	.st83{fill:none;stroke:#98DAF4;stroke-width:4.4043;stroke-miterlimit:10;}
	.st84{fill:none;stroke:#65ABE0;stroke-width:4.4043;stroke-miterlimit:10;}
	.st85{fill:none;stroke:#FFF27D;stroke-width:14.314;stroke-linecap:round;stroke-linejoin:round;stroke-miterlimit:10;}
	.st86{fill:none;stroke:#FFF27D;stroke-width:4.3371;stroke-linecap:round;stroke-linejoin:round;stroke-miterlimit:10;}
	.st87{fill:none;stroke:#65ABE0;stroke-width:4.3371;stroke-linecap:round;stroke-linejoin:round;stroke-miterlimit:10;}
	.st88{fill:#F9B7D2;}
	.st89{fill:none;stroke:#F299AC;stroke-width:6.5057;stroke-linecap:round;stroke-linejoin:round;stroke-miterlimit:10;}
	.st90{fill:none;stroke:#98DAF4;stroke-width:6.5057;stroke-linecap:round;stroke-linejoin:round;stroke-miterlimit:10;}
	.st91{fill:none;stroke:#98DAF4;stroke-width:3.2528;stroke-miterlimit:10;}
	.st92{fill:none;stroke:#F4D862;stroke-width:8.6743;stroke-linecap:round;stroke-linejoin:round;stroke-miterlimit:10;}
	.st93{fill:none;stroke:#1B2638;stroke-width:5.4214;stroke-linecap:round;stroke-linejoin:round;stroke-miterlimit:10;}
	.st94{fill:none;stroke:#1B2638;stroke-width:4.3371;stroke-linecap:round;stroke-linejoin:round;stroke-miterlimit:10;}
	.st95{fill:#B1F3FC;}
	.st96{fill:none;stroke:#98DAF4;stroke-width:4.3371;stroke-linecap:round;stroke-linejoin:round;stroke-miterlimit:10;}
	.st97{fill:none;stroke:#65ABE0;stroke-width:4.3371;stroke-miterlimit:10;}
	.st98{fill:none;stroke:#1B2638;stroke-width:4.8763;stroke-linecap:round;stroke-linejoin:round;stroke-miterlimit:10;}
	.st99{fill:none;stroke:#1B2638;stroke-width:1.0843;stroke-miterlimit:10;}
	.st100{fill:none;stroke:#FFFFFF;stroke-width:4.3371;stroke-linecap:round;stroke-linejoin:round;stroke-miterlimit:10;}
	.st101{fill:none;stroke:#FFFFFF;stroke-width:5.4643;stroke-linecap:round;stroke-linejoin:round;stroke-miterlimit:10;}
	.st102{fill:none;stroke:#1B2638;stroke-width:4.3714;stroke-linecap:round;stroke-linejoin:round;stroke-miterlimit:10;}
	.st103{fill:none;stroke:#98DAF4;stroke-width:4.3714;stroke-linecap:round;stroke-linejoin:round;stroke-miterlimit:10;}
	.st104{fill:none;stroke:#FFFFFF;stroke-width:4.3714;stroke-linecap:round;stroke-linejoin:round;stroke-miterlimit:10;}
	.st105{fill:none;stroke:#FFF27D;stroke-width:4.3714;stroke-linecap:round;stroke-linejoin:round;stroke-miterlimit:10;}
	.st106{fill:none;stroke:#65ABE0;stroke-width:4.3714;stroke-miterlimit:10;}
	.st107{fill:none;stroke:#000000;stroke-width:1.0929;stroke-miterlimit:10;}
	.st108{fill:none;stroke:#1B2638;stroke-width:22.9499;stroke-linecap:round;stroke-linejoin:round;stroke-miterlimit:10;}
	.st109{fill:none;stroke:#1B2638;stroke-width:12.0214;stroke-miterlimit:10;}
	.st110{fill:none;stroke:#1B2638;stroke-width:17.4857;stroke-linecap:round;stroke-linejoin:round;stroke-miterlimit:10;}
	.st111{fill:none;stroke:#1B2638;stroke-width:4.9148;stroke-linecap:round;stroke-linejoin:round;stroke-miterlimit:10;}
	.st112{fill:none;stroke:#FFFFFF;stroke-width:4.9148;stroke-linecap:round;stroke-linejoin:round;stroke-miterlimit:10;}
	.st113{fill:#CE6E84;}
	.st114{fill:none;stroke:#1B2638;stroke-width:4.5447;stroke-linecap:round;stroke-linejoin:round;stroke-miterlimit:10;}
	.st115{fill:none;stroke:#FFF27D;stroke-width:4.5447;stroke-linecap:round;stroke-linejoin:round;stroke-miterlimit:10;}
	.st116{fill:none;stroke:#B6FCFF;stroke-width:5.6809;stroke-linecap:round;stroke-linejoin:round;stroke-miterlimit:10;}
	.st117{fill:none;stroke:#1B2638;stroke-width:5.1097;stroke-linecap:round;stroke-linejoin:round;stroke-miterlimit:10;}
	.st118{fill:none;stroke:#1B2638;stroke-width:15.9065;stroke-linecap:round;stroke-linejoin:round;stroke-miterlimit:10;}
	.st119{fill:none;stroke:#FFFFFF;stroke-width:4.5447;stroke-linecap:round;stroke-linejoin:round;stroke-miterlimit:10;}
	.st120{fill:none;stroke:#1B2638;stroke-width:5.6809;stroke-linecap:round;stroke-linejoin:round;stroke-miterlimit:10;}
	.st121{fill:none;stroke:#98DAF4;stroke-width:4.5447;stroke-miterlimit:10;}
	.st122{fill:none;stroke:#65ABE0;stroke-width:4.5447;stroke-miterlimit:10;}
	.st123{fill:#F4D862;stroke:#1B2638;stroke-width:4.5447;stroke-linecap:round;stroke-linejoin:round;stroke-miterlimit:10;}
	.st124{fill:#F4D862;stroke:#1B2638;stroke-width:5.1097;stroke-linecap:round;stroke-linejoin:round;stroke-miterlimit:10;}
	.st125{fill:#FFFFFF;stroke:#1B2638;stroke-width:5.1097;stroke-linecap:round;stroke-linejoin:round;stroke-miterlimit:10;}
	.st126{fill:none;stroke:#65ABE0;stroke-width:4.5832;stroke-linecap:round;stroke-linejoin:round;stroke-miterlimit:10;}
	.st127{fill:none;stroke:#1B2638;stroke-width:4.5832;stroke-linecap:round;stroke-linejoin:round;stroke-miterlimit:10;}
	.st128{fill:none;stroke:#65ABE0;stroke-width:4.5832;stroke-miterlimit:10;}
	.st129{fill:none;stroke:#1B2638;stroke-width:5.7289;stroke-linecap:round;stroke-linejoin:round;stroke-miterlimit:10;}
	.st130{fill:none;stroke:#FFFFFF;stroke-width:4.5832;stroke-linecap:round;stroke-linejoin:round;stroke-miterlimit:10;}
	.st131{fill:none;stroke:#1B2638;stroke-width:6.8747;stroke-linecap:round;stroke-linejoin:round;stroke-miterlimit:10;}
	.st132{fill:none;stroke:#1B2638;stroke-width:5;stroke-linecap:round;stroke-linejoin:round;stroke-miterlimit:10;}
	.st133{fill:none;stroke:#EAB853;stroke-width:4;stroke-linecap:round;stroke-linejoin:round;stroke-miterlimit:10;}
	.st134{fill:none;stroke:#FFF985;stroke-width:4;stroke-linecap:round;stroke-linejoin:round;stroke-miterlimit:10;}
	.st135{fill:#E2869E;}
	.st136{fill:none;stroke:#98DAF4;stroke-width:4;stroke-linecap:round;stroke-linejoin:round;stroke-miterlimit:10;}
	.st137{fill:none;stroke:#000000;stroke-miterlimit:10;}
	.st138{fill:none;stroke:#1B2638;stroke-width:21;stroke-linecap:round;stroke-linejoin:round;stroke-miterlimit:10;}
	.st139{fill:none;stroke:#1B2638;stroke-width:11;stroke-miterlimit:10;}
	.st140{fill:none;stroke:#1B2638;stroke-width:16;stroke-linecap:round;stroke-linejoin:round;stroke-miterlimit:10;}
	.st141{fill:none;stroke:#1B2638;stroke-width:4.4972;stroke-linecap:round;stroke-linejoin:round;stroke-miterlimit:10;}
	.st142{fill:none;stroke:#FFFFFF;stroke-width:4.4972;stroke-linecap:round;stroke-linejoin:round;stroke-miterlimit:10;}
	.st143{fill:none;stroke:#65ABE0;stroke-width:4;stroke-linecap:round;stroke-linejoin:round;stroke-miterlimit:10;}
	.st144{fill:none;stroke:#1B2638;stroke-miterlimit:10;}
	.st145{fill:none;stroke:#FFFFFF;stroke-width:5;stroke-linecap:round;stroke-linejoin:round;stroke-miterlimit:10;}
	.st146{fill:none;stroke:#F299AC;stroke-width:7;stroke-linecap:round;stroke-linejoin:round;stroke-miterlimit:10;}
	.st147{fill:none;stroke:#1B2638;stroke-width:7;stroke-linecap:round;stroke-linejoin:round;stroke-miterlimit:10;}
	.st148{fill:none;stroke:#1B2638;stroke-width:15;stroke-linecap:round;stroke-linejoin:round;stroke-miterlimit:10;}
	.st149{fill:#65ABE0;stroke:#1B2638;stroke-width:4;stroke-linecap:round;stroke-linejoin:round;stroke-miterlimit:10;}
	.st150{fill:none;stroke:#B1F3FC;stroke-width:4;stroke-linecap:round;stroke-linejoin:round;stroke-miterlimit:10;}
	.st151{fill:none;stroke:#F299AC;stroke-width:3;stroke-linecap:round;stroke-linejoin:round;stroke-miterlimit:10;}
	.st152{fill:none;stroke:#1B2638;stroke-width:6;stroke-linecap:round;stroke-linejoin:round;stroke-miterlimit:10;}
	.st153{fill:none;stroke:#FFF27D;stroke-width:5;stroke-linecap:round;stroke-linejoin:round;stroke-miterlimit:10;}
	.st154{fill:none;stroke:#FFF27D;stroke-width:6;stroke-linecap:round;stroke-linejoin:round;stroke-miterlimit:10;}
	.st155{fill:none;stroke:#F299AC;stroke-width:4;stroke-linecap:round;stroke-linejoin:round;stroke-miterlimit:10;}
	.st156{fill:none;stroke:#98DAF4;stroke-width:7;stroke-linecap:round;stroke-linejoin:round;stroke-miterlimit:10;}
	.st157{fill:none;stroke:#1B2638;stroke-width:14;stroke-linecap:round;stroke-linejoin:round;stroke-miterlimit:10;}
	.st158{fill:none;stroke:#FFFFFF;stroke-width:4;stroke-linecap:round;stroke-linejoin:round;stroke-dasharray:11.9734,11.9734;}
	.st159{fill:#B0ECFF;stroke:#1B2638;stroke-width:4;stroke-linecap:round;stroke-linejoin:round;stroke-miterlimit:10;}
	.st160{fill:#B1F3FC;stroke:#1B2638;stroke-width:4;stroke-linecap:round;stroke-linejoin:round;stroke-miterlimit:10;}
	.st161{fill:none;stroke:#F4D862;stroke-width:4;stroke-linecap:round;stroke-linejoin:round;stroke-miterlimit:10;}
	.st162{fill:#FFF27D;stroke:#1B2638;stroke-width:4;stroke-linecap:round;stroke-linejoin:round;stroke-miterlimit:10;}
	.st163{fill:none;stroke:#FFFFFF;stroke-width:7;stroke-linecap:round;stroke-linejoin:round;stroke-miterlimit:10;}
	.st164{fill:none;stroke:#F4D862;stroke-width:7;stroke-linecap:round;stroke-linejoin:round;stroke-miterlimit:10;}
</style>
<g>
	<polygon class="st1" points="2097.3,1552 2005.9,1568 1987.7,1571.2 1983.5,1571.9 1960.5,1575.9 1957,1576.5 1943.9,1578.8 
		1918.4,1583.3 1854.7,1594.5 1843.1,1579.1 1816.8,1544.4 1815.4,1542.6 1803.5,1526.8 1799.9,1522 1794.4,1514.8 1794.4,1514.8 
		1791.9,1511.6 1760.1,1469.5 1677.8,1360.8 1673.1,1354.6 1662.3,1340.3 1658.7,1335.6 1641.9,1313.4 1639.8,1310.6 1630.2,1297.9 
		1628.8,1296.1 1623.8,1289.5 1560.9,1206.4 1541.2,1180.4 1736.2,1194.2 1739.3,1194.4 1746,1194.9 1750.5,1195.2 1770.9,1196.7 
		1778,1197.2 1780.9,1197.4 1783.2,1197.6 1806.1,1199.2 1820.7,1200.2 1824.2,1200.5 1824.5,1200.5 2044.5,1216.1 2044.7,1217.1 
		2063.1,1334 2070.4,1380.8 2071.4,1386.7 2071.6,1388.4 2072.6,1394.5 2073,1397.1 2073.4,1399.5 2074.4,1406 2075.3,1411.9 	"/>
	<g>
		<polygon class="st2" points="1778,1197.2 1662.3,1340.3 1658.7,1335.6 1770.9,1196.7 		"/>
		<polygon class="st2" points="2071.4,1386.7 1677.8,1360.8 1673.1,1354.6 2070.4,1380.8 		"/>
		<polygon class="st2" points="2075.3,1411.9 1803.5,1526.8 1799.9,1522 2074.4,1406 		"/>
	</g>
	<g>
		<polygon class="st1" points="1157.1,697.7 1124.6,780.3 1086.1,877.9 1069,921.1 1069,921.1 1067.4,925.1 1055.5,955.3 
			1054.3,958.3 962.7,1190.6 947.8,1228.4 946,1233.1 918.7,1302.1 902.5,1343.3 854.8,1464.2 757.5,1475.2 709.4,1480.6 
			708.8,1480.7 706.2,1481 702.9,1481.3 683.5,1483.5 674.9,1484.5 668.1,1485.3 668.1,1485.3 667.3,1485.4 666.9,1485.4 
			660.9,1486.1 660.9,1486.1 657.6,1486.4 636.1,1488.9 567.9,1496.6 563.1,1497.1 412.8,1514.1 411.5,1461.3 410.1,1401.5 
			410.1,1398.2 410.1,1398.2 407,1267.9 406.8,1260.2 402.3,1067.9 531.4,1004.6 534.2,1003.2 549.4,995.8 554.7,993.2 608.7,966.7 
			615.4,963.4 641.4,950.6 641.5,950.6 647.5,947.7 647.5,947.7 999.9,774.8 999.9,774.8 1002.6,773.5 1037.5,756.4 1057.5,746.5 		
			"/>
	</g>
	<polygon class="st5" points="1799.9,1222.1 1623.8,1289.5 1560.9,1206.4 1555,1187.6 	"/>
	<g>
		<polygon class="st2" points="406.8,1260.2 674.9,1484.5 668.1,1485.3 668.1,1485.3 667.3,1485.4 666.9,1485.4 407,1267.9 		"/>
		<polygon class="st2" points="554.7,993.2 708.8,1480.7 706.2,1481 702.9,1481.3 549.4,995.8 		"/>
		<polygon class="st2" points="910.4,1105.1 907.9,1110.3 608.7,966.7 615.4,963.4 		"/>
	</g>
	<path class="st5" d="M962.7,1190.6l-14.9,37.8l-1.8,4.7l-27.2,69l-188.3-80c0,0,150.4-34.4,203.9-34.4
		C946.5,1187.6,955.7,1188.8,962.7,1190.6z"/>
	<line class="st132" x1="953.2" y1="1535.9" x2="1629.8" y2="1535.9"/>
	<line class="st132" x1="1086" y1="1185.9" x2="732.3" y2="2118.2"/>
	<line class="st132" x1="1497" y1="1185.9" x2="1850.7" y2="2118.2"/>
	<path class="st0" d="M1811.9,1195.4H724.8c-11.8,0-21.3-9.6-21.3-21.3V412.2c0-11.8,9.6-21.3,21.3-21.3h1087.2
		c11.8,0,21.3,9.6,21.3,21.3v761.9C1833.3,1185.9,1823.7,1195.4,1811.9,1195.4z"/>
	<path class="st11" d="M1820.9,1222.1H715.8c-16.3,0-29.5-13.2-29.5-29.5v-9.9c0-16.3,13.2-29.5,29.5-29.5h1105.1
		c16.3,0,29.5,13.2,29.5,29.5v9.9C1850.4,1208.9,1837.2,1222.1,1820.9,1222.1z"/>
	<g>
		<circle class="st3" cx="1383.9" cy="1074.3" r="18.1"/>
		<circle class="st3" cx="1464" cy="990.5" r="18.1"/>
		<circle class="st3" cx="1555" cy="877.7" r="18.1"/>
		<circle class="st3" cx="1646.6" cy="793.1" r="18.1"/>
		<polyline class="st161" points="1383.9,1074.3 1463.3,1074.3 1463.3,989.2 1554.3,989.2 1554.3,877.2 1646.1,877.2 1646.1,793.1 
					"/>
		<rect x="1500.1" y="1028.6" class="st1" width="33" height="55.2"/>
		<rect x="1591" y="918.4" class="st4" width="33" height="165.3"/>
		<rect x="1675.8" y="825" class="st11" width="33" height="258.7"/>
	</g>
	<g>
		<polygon class="st1" points="1358.3,582.1 1405.8,453.6 1438.5,530.4 1492.4,349.9 1526.2,448.7 1504.4,582.1 1474.3,623.2 
			1410,631 		"/>
		<polygon class="st11" points="1520.5,490.4 1595.7,429.8 1615.4,503.9 1687,458.3 1722,664.7 1501.3,664.7 		"/>
		<polygon class="st3" points="1722,664.7 1311.1,664.7 1395.4,516.9 1448.4,609.2 1528.2,401.7 1573.2,571.7 1595.2,542.7 
			1611.8,590 1669.3,590.8 		"/>
		<path class="st3" d="M1772.1,660.4l-25.4-14.7c-3.3-1.9-7.4,0.5-7.4,4.3v12.3h-425.8V375.9h12.3c3.8,0,6.2-4.1,4.3-7.4l-14.7-25.4
			c-1.9-3.3-6.7-3.3-8.6,0l-14.7,25.4c-1.9,3.3,0.5,7.4,4.3,7.4h12.4v288.8c0,1.3,1,2.3,2.3,2.3h428.1v12.4c0,3.8,4.1,6.2,7.4,4.3
			l25.4-14.7C1775.4,667.1,1775.4,662.4,1772.1,660.4z"/>
	</g>
	<line class="st29" x1="1717.3" y1="1083.8" x2="1381.2" y2="1083.8"/>
	<path class="st1" d="M2108.7,787.4c0,79.9-64.8,144.7-144.7,144.7c-12.2,0-24.1-1.5-35.4-4.4l27.1-73.9c2.7,0.3,5.5,0.5,8.3,0.5
		c37,0,67-30,67-67c0-18.5-7.5-35.3-19.7-47.4l41.5-66.8C2086.8,699.6,2108.7,740.9,2108.7,787.4z"/>
	<path class="st3" d="M1897,787.4c0-10.1,2.2-19.6,6.2-28.1l-62-48.4c-13.9,22.2-21.9,48.4-21.9,76.5c0,57,32.9,106.3,80.8,129.9
		l27.1-73.9C1909,831.4,1897,810.8,1897,787.4z"/>
	<path class="st0" d="M1964,642.7c-40.9,0-77.8,17-104.1,44.2l62,48.4c11.5-9.3,26.2-14.9,42.1-14.9c7.5,0,14.8,1.2,21.5,3.5
		l41.5-66.8C2007.9,647.9,1986.6,642.7,1964,642.7z"/>
	<circle class="st3" cx="753.8" cy="1187.6" r="14.6"/>
	<circle class="st4" cx="810.1" cy="1187.6" r="14.6"/>
	<polygon class="st1" points="496.9,689.3 462.1,615.4 542.9,673.1 623.7,730.8 524.4,729.6 425.1,728.3 	"/>
	<circle class="st31" cx="1989.6" cy="512.5" r="35.5"/>
	<circle class="st31" cx="846.6" cy="1563.7" r="35.5"/>
	<circle class="st2" cx="1026.8" cy="1627" r="13.8"/>
	<circle class="st2" cx="615.3" cy="512.5" r="13.8"/>
	<circle class="st2" cx="1943.4" cy="1058.9" r="13.8"/>
	<circle class="st31" cx="540.9" cy="1228.5" r="35.9"/>
	<polygon class="st29" points="747.9,1650.8 809.3,1691.4 720.1,1684.7 630.9,1678 708,1632.6 785.1,1587.2 	"/>
	<line class="st132" x1="730.5" y1="798" x2="709.7" y2="839.6"/>
	
		<rect x="644.1" y="822" transform="matrix(-0.8896 -0.4568 0.4568 -0.8896 892.5455 1985.8124)" class="st3" width="84.5" height="126"/>
	<path class="st132" d="M724.9,878.6c0,0-15.2-46.1-27.9-23.5s26.5,81.8-6.7,60.6c-33.2-21.2-29.7-41.4-17.3-39.3"/>
	<g>
		<circle class="st11" cx="1222.1" cy="599.3" r="21"/>
		<circle class="st11" cx="1248" cy="641.9" r="10.6"/>
	</g>
	<path class="st4" d="M1187.9,1177.8c5.2,24.9,14,212.7,14,212.7l-40.4-12.5c0,0-33.7-162.9-34.8-181c-0.7-11.8-2.2-68.9-2.1-112.3
		c0.1-23.5,0.6-43,2.1-49.1c4.2-17.1,75.2,15.5,75.2,15.5s-5,26.5-9.2,55.8C1188.7,1135,1185.4,1165.6,1187.9,1177.8z"/>
	<path class="st13" d="M1201.9,1051.2c0,0-5,26.5-9.2,55.8c-18.4,4.2-29.3-10.2-41.9-23.6c-9.8-10.4-20-4.4-26.2,1.3
		c0.1-23.5,0.6-43,2.1-49.1C1130.9,1018.5,1201.9,1051.2,1201.9,1051.2z"/>
	<path class="st29" d="M1124.8,1119.9c-0.1-12-0.2-24.1-0.2-35.2c0.1-23.5,0.6-43,2.1-49.1c4.2-17.1,75.2,15.5,75.2,15.5
		s-5,26.5-9.2,55.8c-4,28-7.3,58.6-4.8,70.8c5.2,24.9,14,212.7,14,212.7l-40.4-12.5"/>
	<path class="st29" d="M1160.1,1371.3c-6.4-30.9-32.5-158.4-33.4-174.3"/>
	
		<rect x="1153.6" y="1936.6" transform="matrix(0.9481 0.3181 -0.3181 0.9481 690.426 -279.4571)" class="st4" width="94.9" height="76.3"/>
	
		<rect x="1153.6" y="1936.6" transform="matrix(0.9481 0.3181 -0.3181 0.9481 690.426 -279.4571)" class="st36" width="94.9" height="76.3"/>
	<rect x="1385.1" y="1958" class="st4" width="94.9" height="76.3"/>
	<rect x="1385.1" y="1958" class="st36" width="94.9" height="76.3"/>
	<path class="st4" d="M1504.5,594.9c0,0,9.2,10.2,11,14.3s-18.2,17.6-18.2,17.6l-4.6-17.9L1504.5,594.9z"/>
	<path class="st29" d="M1504.5,594.9c0,0,9.2,10.2,11,14.3s-18.2,17.6-18.2,17.6l-4.6-17.9L1504.5,594.9z"/>
	<path class="st4" d="M1176,1469.3c0.5,2.4,29.5,48.1,29.5,48.1s9-4.9,8.2-11.1s-18.8-37-18.8-37v-44.6c0,0-20-13.5-22.3-8.2"/>
	<path class="st29" d="M1176,1469.3c0.5,2.4,29.5,48.1,29.5,48.1s9-4.9,8.2-11.1s-18.8-37-18.8-37v-44.6c0,0-20-13.5-22.3-8.2"/>
	<path class="st4" d="M1202.4,1501.7l18,15.7c0,0,3.7-20.2,0-30.7c-3.7-10.5-18-118.9-18-118.9s-40,0.2-41.1,11.2
		S1202.4,1501.7,1202.4,1501.7z"/>
	<path class="st29" d="M1161.3,1379c-1.2,11,41.1,122.7,41.1,122.7l18,15.7c0,0,3.7-20.2,0-30.7c-3.7-10.5-18-118.9-18-118.9"/>
	<path class="st149" d="M1501.8,1975.9c0,0-62.2,29.6-136.2,0c0,0,0.5-14.2,1.2-35.4c0,0,0,0,0,0c1.6-54.4,3.9-154.7-1.2-179.3
		c-7-34.2-11.7-126.8-11.7-139.3c0-12.5-9.3-210.9-9.3-220.2c0-5-2-10.8-4.9-15.2c-4.2-6.4-13.2-8.1-18.8-2.9
		c-1.8,1.7-3.1,3.9-3,6.9c0.5,9.3,19.3,196,17,239.5c-1.9,35-41.6,221.2-56.6,301.3c-3.7,19.7-5.9,33-5.7,36
		c0,0-78.2,10.5-124.9-39.7c0,0,7.2-13.3,15.5-30.9c0,0,0,0,0,0c9.9-21.1,21.4-48.5,24-67.1c4.8-34.2,30.5-162.6,34.8-182.1
		c4.3-19.5,5.1-41.2,5.1-46.7c0-5.5-54.5-172.1-42.3-237.8c12.3-65.8,66.4-108.2,97.5-97c15.8,5.7,28.5,23.8,37.1,45.8l-7-40.9
		l139.6-4.9c0,0,36.6,75.7,21,145c-15.6,69.3-17.9,183.6-8.6,221.8c9.3,38.1,21,234.2,21.8,273.9c0.2,8.8,1,17.1,2.3,24.7
		C1492.8,1957.9,1501.8,1975.9,1501.8,1975.9z"/>
	<path class="st4" d="M1490.9,830.2c-0.5,3.2-1.7,11.2-3,20.6c-2.6,18.9-5.9,43.2-5.9,43.2l-63.4-14.8l-0.1,0c0,0,0-0.1,0-0.2
		c0.3-2,3.3-19.7,6.7-39.5c3.9-23,8.4-48.9,10-56.7c3.1-14.9,9.7-81.6,7.6-106.6c0,0,9.9-21.1,18.9-17.3c9,3.9,22.5,19.2,22.5,19.2
		s7,47.7,10.5,67.5C1498.3,765.5,1492.8,819.1,1490.9,830.2z"/>
	<path class="st4" d="M1445.7,627.8l12.9-42.9l5-53.2c0,0,5-4.3,8.6,3.6v44.6c0,0,20.2,5.3,32.2,15.1c4.2,3.4,5.4,9.3,2.8,14.1
		l-20.6,37l-2.4,32.2l-41.4-2v-28.8C1442.8,640.7,1443.8,634.1,1445.7,627.8z"/>
	<path class="st13" d="M1487.9,850.8c-2.6,18.9-5.9,43.2-5.9,43.2l-63.4-14.8c0-0.1-0.1-0.2-0.1-0.2c0.3-2,3.3-19.7,6.7-39.5
		c0.4,0.3,11.2,8,20.3-1.6C1453.9,829,1475.3,833.7,1487.9,850.8z"/>
	<path class="st29" d="M1484.3,678.1c0,0,7,47.7,10.5,67.5c3.5,19.8-1.5,69.7-3.6,82.6c-1.5,9.6-10.7,63.2-10.7,63.2l-62-12.3
		c0,0,13.6-81.5,16.7-96.4c3.1-14.9,9.7-81.6,7.6-106.6"/>
	<path class="st29" d="M1442.8,676.2v-28.8c0-6.6,1-13.2,2.9-19.5l12.9-42.9l5-53.2c0,0,5-4.3,8.6,3.6v44.6c0,0,20.2,5.3,32.2,15.1
		c4.2,3.4,5.4,9.3,2.8,14.1l-20.6,37l-2.4,32.2"/>
	<path class="st1" d="M1325.4,899.2c0,0,19.5-10.3,42.6-7.4c9.7,1.2,19.3-2.9,24.8-11.1c8.9-13.2,21-30.6,23.9-31.9
		c4.7-2.1,3.6,16.6,15.6,18.1s13.5-23.3,28.5-13c15,10.4,22.8,30.3,22.3,35.9c-0.5,5.6-37.3,100.5-49.3,114s-90,4.1-90,4.1
		s-31.4-30.6-33.4-49.8S1325.4,899.2,1325.4,899.2z"/>
	<path class="st32" d="M1399.7,870.7c0,0,29.3,26.4,43.1,10.3s32.9,23.3,32.9,23.3"/>
	<path class="st29" d="M1325.4,899.2c0,0,18.3-9.6,40.5-7.6c11.3,1,22.3-3.9,28.6-13.3c8.7-12.8,19.5-28.2,22.2-29.4
		c4.7-2.1,3.6,16.6,15.6,18.1s13.5-23.3,28.5-13c15,10.4,22.8,30.3,22.3,35.9c-0.5,5.6-37.3,100.5-49.3,114s-90,4.1-90,4.1
		s-31.4-30.6-33.4-49.8S1325.4,899.2,1325.4,899.2z"/>
	<path class="st1" d="M1250,907.9c0,0-33,11.1-56.3,12.1c-23.3,1-60.7,15.6-61.2,48.2c-0.5,32.7-16.1,66.9-15,73.1
		c1,6.2,4.7,30.6,15.6,20.7c10.9-9.9,15-11.4,23.9,6.2s23.3,9.3,29.6,2.6c6.2-6.7,39.9-52.4,39.9-52.4s53.4-51.4,53.4-63.3
		s-7.8-39.9-7.8-39.9L1250,907.9z"/>
	<path class="st32" d="M1119,1051.5c0,0,19.1-20.3,37.1-8s23.6,22,48.2,6.4"/>
	<path class="st29" d="M1250,907.9c0,0-33,11.1-56.3,12.1c-23.3,1-60.7,15.6-61.2,48.2c-0.5,32.7-15.1,49.2-15,73.1
		c0,6.3,4.7,30.6,15.6,20.7c10.9-9.9,15-11.4,23.9,6.2s23.3,9.3,29.6,2.6c6.2-6.7,39.9-52.4,39.9-52.4s53.4-51.4,53.4-63.3
		s-7.8-39.9-7.8-39.9L1250,907.9z"/>
	<path class="st1" d="M1452,1266c-3.6,10.9-97.5,31.6-135.9,65.9c-10.5,9.4-25.2,16-40.9,20.6c-41.5,12.2-90.3,10.5-90.3,10.5
		c-10.4-17.1,5.4-80.8,17.7-126.1c4.8-17.8,9.2-32.7,11.2-40.9c7.1-29.1-41.2-184.6-41.2-184.6l78.4-98.7l84.2-12.3
		c0,0,89.4,23.9,98.2,54.5c8.8,30.6-28,183.6-27,200.8C1407.4,1172.6,1455.6,1255.1,1452,1266z"/>
	<path class="st12" d="M1198.3,1376.7c0,0,51,2.3,70.5-10.9c0,0,17.4,65.4,10.4,86c-1,3-32.2,15.4-44.6,14.5
		C1208.7,1464.4,1198.3,1376.7,1198.3,1376.7z"/>
	<path class="st12" d="M1455.2,1327.6c0,0-49.2,13.4-71.2,4.9c0,0-2.6,67.6,8.8,86.2c1.7,2.7,34.8,7.9,46.7,4.3
		C1464.4,1415.4,1455.2,1327.6,1455.2,1327.6z"/>
	<polyline class="st136" points="1383.8,1341.3 1456.7,1372.8 1386.1,1393.8 1446.7,1417.5 	"/>
	<polyline class="st136" points="1200.5,1391.6 1277.5,1405.8 1211.1,1435.3 1280.5,1446 	"/>
	<path class="st5" d="M1277.2,1333.4c4,4.8,2.7,11.7-2,19c-41.5,12.2-90.3,10.5-90.3,10.5c-10.4-17.1,5.4-80.8,17.7-126.1
		c0.1,1.1,3.6,41,37.1,35.4c33.9-5.7,88.9-34.2,97.7-17.6C1346.2,1271.2,1261.6,1314.7,1277.2,1333.4z"/>
	<ellipse class="st4" cx="1412.3" cy="1649.4" rx="29.2" ry="10.1"/>
	
		<ellipse transform="matrix(0.1988 -0.98 0.98 0.1988 -570.4919 2556.1743)" class="st4" cx="1278.1" cy="1627" rx="10.1" ry="29.2"/>
	<path class="st3" d="M1478.9,2122.1h-92.7c-7.2,0-12.8-6.3-12-13.4l8.6-95.9l99.6,2.7l8.5,93.1
		C1491.7,2115.8,1486.1,2122.1,1478.9,2122.1z"/>
	<path class="st162" d="M1433.9,2042.8h-2.8c-4.6,0-8.3-3.7-8.3-8.3v-29.2c0-4.6,3.7-8.3,8.3-8.3h2.8c4.6,0,8.3,3.7,8.3,8.3v29.2
		C1442.3,2039,1438.5,2042.8,1433.9,2042.8z"/>
	<path class="st3" d="M1142.6,1990.9c0,0-28,58.5-28.4,83.8c-0.4,25.3,0,47.5,0,47.5h173.5c0,0,4.3-22.6-21-24.9l-40.5-13.6"/>
	<path class="st3" d="M1237.8,2019.8c0,0-9.1,77.8-8,80.1l-72.4-26.5l-14.9-82.6L1237.8,2019.8z"/>
	<path class="st32" d="M1191.7,1344.3c0,0,77.7-7.3,109.9-33.2c32.2-25.9,105.8-56.5,123.5-58.6"/>
	<path class="st29" d="M1172.5,1011.3c0,0,48.3,155.6,41.2,184.6c-7.1,29-43.4,143.2-28.9,167c0,0,92.9,3.1,131.2-31.1
		c38.4-34.2,132.3-55,135.9-65.9c3.6-10.9-44.6-93.4-45.6-110.5c-1-17.1,35.8-170.1,27-200.8"/>
	<path class="st11" d="M1233.1,688.1c15.6-14.5,59.1-43.6,100.1-13.5c41,30.1,20.7,73.1,29,93.4c8.3,20.2,10.9,60.2,2.6,73.7
		c-8.3,13.5-38.9,19.2-39.4,34.8c-0.5,15.6,17.6,34.2-4.7,45.1c-22.3,10.9-82.5-0.5-69-17.1c13.5-16.6-17.1-15-9.3-27.5
		c7.8-12.4-55-27.5-33.7-74.7C1230,755,1217.5,702.6,1233.1,688.1z"/>
	<path class="st161" d="M1241.4,879.2c0,0,43.5-25.4,84.1-2.8"/>
	<ellipse class="st161" cx="1343.8" cy="875.6" rx="19.5" ry="7.4"/>
	
		<ellipse transform="matrix(0.3971 -0.9178 0.9178 0.3971 -2.4312 1771.071)" class="st161" cx="1346.9" cy="887.4" rx="10.2" ry="27.1"/>
	<path class="st29" d="M1198.3,1376.7c0,0,51,2.3,70.5-10.9c0,0,17.4,65.4,10.4,86c-1,3-32.2,15.4-44.6,14.5
		C1208.7,1464.4,1198.3,1376.7,1198.3,1376.7z"/>
	<path class="st29" d="M1455.2,1327.6c0,0-49.2,13.4-71.2,4.9c0,0-2.6,67.6,8.8,86.2c1.7,2.7,34.8,7.9,46.7,4.3
		C1464.4,1415.4,1455.2,1327.6,1455.2,1327.6z"/>
	<path class="st4" d="M1166.3,1376.3c-1.9,1-3.2,2.9-3.5,5c-1.8,13.2-7.9,61.1-1.5,83c7.5,25.4,16.1,40,19.8,41.5c0,0,7.5-2.5,6-8.9
		c-1.5-6.4-15.3-26.6-11.2-41.6c3.4-12.4,4.6-57.4,4.9-72.6c0-1.8,0-4.2,0.1-5.2c0.1-0.9-0.5-0.4-1.1-0.5l-11.9-1.6L1166.3,1376.3z"
		/>
	<path class="st29" d="M1161.3,1379c0,0-7.5,59.8,0,85.3c7.5,25.4,16.1,40,19.8,41.5c0,0,7.5-2.5,6-8.9
		c-1.5-6.4-15.3-26.6-11.2-41.6c1.8-6.6,2.5-20,3.6-35.5"/>
	<path class="st4" d="M1163.6,1380.3c0,0,0.2-5.2-0.3-6.7c-0.5-1.6,5.4-3.6,6.9-2.6s2.6,0.4,2.4,3.7c-0.2,3.3-0.7,5.3-1.7,5.9
		C1170,1381.2,1163.6,1380.3,1163.6,1380.3z"/>
	<line class="st162" x1="1374.7" y1="2102.6" x2="1490.3" y2="2102.6"/>
	<path class="st162" d="M1168.4,2019.1l-2.6-0.9c-4.4-1.5-6.7-6.2-5.3-10.6l9.3-27.7c1.5-4.4,6.2-6.7,10.6-5.3l2.6,0.9
		c4.4,1.5,6.7,6.2,5.3,10.6l-9.3,27.7C1177.4,2018.2,1172.7,2020.5,1168.4,2019.1z"/>
	<line class="st162" x1="1233.3" y1="2059.8" x2="1229.9" y2="2095"/>
	<line class="st162" x1="1129.8" y1="2102.6" x2="1203.5" y2="2102.6"/>
	<path class="st13" d="M1119.3,1090.7c0.5,0.7,0.9,1.1,0.9,1.2l-1.3-0.8C1119,1091.1,1119.1,1091,1119.3,1090.7z"/>
	<path class="st29" d="M1161.3,1378.7c0,0-0.3-3.1-1.2-7.4"/>
	<line class="st132" x1="645.3" y1="2119.7" x2="1411.1" y2="2119.7"/>
	<line class="st132" x1="2104.5" y1="2119.7" x2="1594.1" y2="2119.7"/>
	<line class="st132" x1="1534" y1="2119.7" x2="1470" y2="2119.7"/>
	<line class="st132" x1="584.2" y1="2119.7" x2="520.2" y2="2119.7"/>
	<g>
		<circle class="st2" cx="1895.9" cy="1844.1" r="10"/>
		<g>
			<path class="st2" d="M1736.8,2005.8c0,0-63.9-79.1-16.5-110.2c47.4-31.1,37.3-47.7,47.8-88.5c10.5-40.8,87.9-93.8,103.2-32.3
				c15.3,61.4-24,59.6-4.5,87.3c19.5,27.7-30.4,72.1-41.5,90.9S1820.1,2015.8,1736.8,2005.8z"/>
			<path class="st32" d="M1760,1962.5c0,0-15.2-18-8-37.1"/>
			<path class="st29" d="M1719.2,2056.6c4.3-1.9,39.5-37.7,61.7-21.8c22.3,15.9,8.7,54.2-24,40.7
				C1724.1,2062,1719.2,2056.6,1719.2,2056.6z"/>
			<path class="st29" d="M1714.6,2073.9c0,0-24.8-54.1-60.8-47s-25.2,48.8,10.2,41.7C1699.3,2061.5,1714.6,2073.9,1714.6,2073.9z"/>
			<path class="st32" d="M1784.4,1905c0,0,23.2,1.8,28.7-24.4"/>
			<path class="st29" d="M1710.1,2119.7c-3.7-52.9,32.3-125.4,51.3-159.6c12.1-21.8,21.2-45.1,26.6-69.4c2.3-10.4,4.2-21.5,4.9-32.4
				c2.6-39.3,30-61.1,39.1-57.9"/>
		</g>
		<path class="st2" d="M1597,1873c-10.2-2.1-47.4-1.8-62.6,105.8c0,0,38.6,21.3,50.4-10.4c11.8-31.7,14.4-39.1,14.4-39.1
			s-2.3,35.2,19.8,18.6c22.1-16.6,30.1-52.5,30.1-52.5s-15.9-18.9-45-21.4C1601.7,1873.7,1599.3,1873.4,1597,1873z"/>
		<path class="st32" d="M1615.9,1892.5c0,0-47.2,1.4-55.9,40.9"/>
		<path class="st29" d="M1717,2064.1c-2.4-1.8-20.4-42.8-29.6-80.1s-26.9-123.9-107.2-108.5"/>
	</g>
	<g>
		<path class="st0" d="M820.1,1950.3c0,0-19.2-83.5-70.4-66.3c-51.2,17.3-166.7-44.1-197.4,6.1c-30.8,50.2,17.1,146.6,84.1,114.5
			s118.9-25.7,158.7-24.5C835.5,1981.3,820.1,1950.3,820.1,1950.3z"/>
		<path class="st132" d="M896.3,2118.2c0,0-13.4-181.9-126.3-182.9c0,0-107.3,7.2-161.9-4.1"/>
		<path class="st132" d="M879.6,2037.6c0,0,71-80.8,73.2-24.6C954.6,2059.5,879.6,2037.6,879.6,2037.6z"/>
		<path class="st132" d="M878.9,2035.5c0,0-65.6-2-56.8,27C830.9,2091.6,878.9,2035.5,878.9,2035.5z"/>
		<circle class="st0" cx="696.4" cy="1856" r="9.8"/>
	</g>
	<path class="st3" d="M1156.3,636.7c0,104-84.3,188.3-188.3,188.3c-2.6,0-5.3-0.1-7.9-0.2c-100.3-4.1-180.4-86.8-180.4-188.1
		c0-104,84.3-188.3,188.3-188.3c3.1,0,6.2,0.1,9.3,0.2c49.8,2.4,94.6,24.2,126.9,58.1c2.7,2.8,5.2,5.7,7.7,8.6
		c13.7,16.2,24.6,34.7,32.2,54.9c4.3,11.3,7.5,23.1,9.5,35.3C1155.4,615.7,1156.3,626.1,1156.3,636.7z"/>
	<path class="st4" d="M1156.3,636.7c0,104-84.3,188.3-188.3,188.3c-2.6,0-5.3-0.1-7.9-0.2l7.9-188.1l122.9-68.5l53.3,2
		c4.3,11.3,7.5,23.1,9.5,35.3C1155.4,615.7,1156.3,626.1,1156.3,636.7z"/>
	<path class="st1" d="M1112,515.4L968,636.7l9.3-188.1C1031.3,451.3,1079.3,476.6,1112,515.4z"/>
	<path class="st10" d="M1153.7,605.6L968,636.7l136.2-130c2.7,2.8,5.2,5.7,7.7,8.6C1133.3,540.6,1148.1,571.5,1153.7,605.6z"/>
	<circle class="st3" cx="821.6" cy="890.7" r="17.6"/>
	<circle class="st10" cx="821.6" cy="982.4" r="17.6"/>
	<circle class="st4" cx="821.6" cy="1074" r="17.6"/>
	<line class="st163" x1="873.4" y1="890.7" x2="1086" y2="890.7"/>
	<line class="st163" x1="873.4" y1="1074" x2="1028.7" y2="1074"/>
	<line class="st164" x1="873.4" y1="982.4" x2="995.4" y2="982.4"/>
	<line class="st132" x1="968" y1="390.8" x2="1156.3" y2="390.8"/>
	<line class="st132" x1="1833.3" y1="900.3" x2="1833.3" y2="1011.3"/>
	<path class="st159" d="M1272.6,1967.3c0,0-78.2,10.5-124.9-39.7c0,0,7.2-13.3,15.5-30.9c0,0,0,0,0,0s58.8,43.7,115,34.6
		C1274.6,1951,1272.4,1964.3,1272.6,1967.3z"/>
	<path class="st159" d="M1501.8,1975.9c0,0-62.2,29.6-136.2,0c0,0,0.5-14.2,1.2-35.4c0,0,0,0,0,0s77.3,22.2,121.7-9.2l0,0
		C1492.8,1957.9,1501.8,1975.9,1501.8,1975.9z"/>
	<polygon class="st4" points="1912.6,1345.6 1937.3,1419.6 1867.2,1355.8 1797.2,1291.9 1891.1,1304.3 1985.1,1316.8 	"/>
</g>
</svg>
