<?xml version="1.0" encoding="utf-8"?>
<!-- Generator: Adobe Illustrator 24.3.0, SVG Export Plug-In . SVG Version: 6.00 Build 0)  -->
<svg version="1.1" id="illustrations" xmlns="http://www.w3.org/2000/svg" xmlns:xlink="http://www.w3.org/1999/xlink" x="0px"
	 y="0px" viewBox="0 0 2500 2500" style="enable-background:new 0 0 2500 2500;" xml:space="preserve">
<style type="text/css">
	.st0{fill:#F299AC;}
	.st1{fill:#98DAF4;}
	.st2{fill:#B0ECFF;}
	.st3{fill:#F4D862;}
	.st4{fill:#FFFFFF;}
	.st5{fill:#82C0E0;}
	.st6{fill:none;stroke:#B6FCFF;stroke-width:4.4199;stroke-linecap:round;stroke-linejoin:round;stroke-miterlimit:10;}
	.st7{fill:none;stroke:#1B2638;stroke-width:4.4199;stroke-miterlimit:10;}
	.st8{fill:#FFF27D;}
	.st9{fill:none;stroke:#1B2638;stroke-width:4.4199;stroke-linecap:round;stroke-linejoin:round;stroke-miterlimit:10;}
	.st10{fill:#65ABE0;}
	.st11{fill:#1B2638;}
	.st12{fill:#4B8CC6;}
	.st13{fill:#DAE4EA;}
	.st14{fill:#F9B9CE;}
	.st15{fill:#253544;}
	.st16{fill:none;stroke:#FFFFFF;stroke-width:4.4199;stroke-linecap:round;stroke-linejoin:round;}
	.st17{fill:none;stroke:#FFFFFF;stroke-width:4.4199;stroke-linecap:round;stroke-linejoin:round;stroke-dasharray:13.494,13.494;}
	.st18{fill:#E5889A;}
	.st19{fill:none;stroke:#FFFFFF;stroke-width:4.4199;stroke-linecap:round;stroke-linejoin:round;stroke-miterlimit:10;}
	.st20{fill:none;stroke:#98DAF4;stroke-width:4.4199;stroke-miterlimit:10;}
	.st21{fill:none;stroke:#65ABE0;stroke-width:4.4199;stroke-miterlimit:10;}
	.st22{fill:#FFFFFF;stroke:#2A353F;stroke-width:3.3149;stroke-linecap:round;stroke-linejoin:round;stroke-miterlimit:10;}
	.st23{fill:none;stroke:#B6FCFF;stroke-width:4.4199;stroke-miterlimit:10;}
	.st24{fill:none;stroke:#1B2638;stroke-width:1.105;stroke-linecap:round;stroke-linejoin:round;stroke-miterlimit:10;}
	.st25{fill:#B6FCFF;}
	.st26{fill:none;stroke:#98DAF4;stroke-width:4.4199;stroke-linecap:round;stroke-linejoin:round;stroke-miterlimit:10;}
	.st27{fill:none;stroke:#B0ECFF;stroke-width:4.4199;stroke-miterlimit:10;}
	.st28{fill:none;stroke:#B0ECFF;stroke-width:4;stroke-linecap:round;stroke-linejoin:round;stroke-miterlimit:10;}
	.st29{fill:none;stroke:#1B2638;stroke-width:4;stroke-linecap:round;stroke-linejoin:round;stroke-miterlimit:10;}
	.st30{fill:none;stroke:#98DAF4;stroke-width:4;stroke-miterlimit:10;}
	.st31{fill:none;stroke:#65ABE0;stroke-width:4;stroke-miterlimit:10;}
	.st32{fill:none;stroke:#FFFFFF;stroke-width:4;stroke-linecap:round;stroke-linejoin:round;stroke-miterlimit:10;}
	.st33{fill:none;stroke:#B6FCFF;stroke-width:4;stroke-linecap:round;stroke-linejoin:round;stroke-miterlimit:10;}
	.st34{fill:none;stroke:#1B2638;stroke-width:4;stroke-miterlimit:10;}
	.st35{fill:none;stroke:#1B2638;stroke-width:3;stroke-linecap:round;stroke-linejoin:round;stroke-miterlimit:10;}
	.st36{fill:#FFFFFF;stroke:#1B2638;stroke-width:4;stroke-linecap:round;stroke-linejoin:round;stroke-miterlimit:10;}
	.st37{fill:none;stroke:#65ABE0;stroke-width:4;stroke-linecap:round;stroke-linejoin:round;}
	.st38{fill:none;stroke:#65ABE0;stroke-width:4;stroke-linecap:round;stroke-linejoin:round;stroke-dasharray:12.2119,12.2119;}
	.st39{fill:none;stroke:#FFFFFF;stroke-width:4;stroke-miterlimit:10;}
	.st40{fill:#F4D862;stroke:#1B2638;stroke-width:4;stroke-linecap:round;stroke-linejoin:round;stroke-miterlimit:10;}
	.st41{fill:none;stroke:#65ABE0;stroke-width:4;stroke-linecap:round;stroke-linejoin:round;stroke-dasharray:11.8323,11.8323;}
	.st42{fill:none;stroke:#F4D862;stroke-width:5;stroke-miterlimit:10;}
	.st43{fill:none;stroke:#FFF27D;stroke-width:4;stroke-linecap:round;stroke-linejoin:round;stroke-miterlimit:10;}
	.st44{fill:none;stroke:#65ABE0;stroke-width:4;stroke-linecap:round;stroke-linejoin:round;stroke-dasharray:11.8497,11.8497;}
	.st45{fill:none;stroke:#1B2638;stroke-width:4.7246;stroke-linecap:round;stroke-linejoin:round;stroke-miterlimit:10;}
	.st46{fill:none;stroke:#1B2638;stroke-width:5.9057;stroke-linecap:round;stroke-linejoin:round;stroke-miterlimit:10;}
	.st47{fill:#EAB853;}
	.st48{fill:none;stroke:#98DAF4;stroke-width:4.7246;stroke-miterlimit:10;}
	.st49{fill:none;stroke:#65ABE0;stroke-width:4.7246;stroke-miterlimit:10;}
	.st50{fill:none;stroke:#65ABE0;stroke-width:4.7246;stroke-linecap:round;stroke-linejoin:round;}
	
		.st51{fill:none;stroke:#65ABE0;stroke-width:4.7246;stroke-linecap:round;stroke-linejoin:round;stroke-dasharray:14.7632,14.7632;}
	.st52{fill:none;stroke:#98DAF4;stroke-width:4.7246;stroke-linecap:round;stroke-linejoin:round;stroke-miterlimit:10;}
	.st53{fill:none;stroke:#FFF27D;stroke-width:4.7246;stroke-linecap:round;stroke-linejoin:round;stroke-miterlimit:10;}
	.st54{fill:none;stroke:#FFFFFF;stroke-width:5.9057;stroke-linecap:round;stroke-linejoin:round;stroke-miterlimit:10;}
	.st55{fill:none;stroke:#65ABE0;stroke-width:4.8739;stroke-miterlimit:10;}
	.st56{fill:none;stroke:#1B2638;stroke-width:4.8739;stroke-linecap:round;stroke-linejoin:round;stroke-miterlimit:10;}
	.st57{fill:none;stroke:#1B2638;stroke-width:4.8739;stroke-miterlimit:10;}
	.st58{fill:none;stroke:#B6FCFF;stroke-width:4.8739;stroke-linecap:round;stroke-linejoin:round;stroke-miterlimit:10;}
	.st59{fill:none;stroke:#FFF27D;stroke-width:6.0924;stroke-linecap:round;stroke-linejoin:round;stroke-miterlimit:10;}
	.st60{fill:none;stroke:#98DAF4;stroke-width:4.8739;stroke-miterlimit:10;}
	.st61{fill:none;stroke:#FFFFFF;stroke-width:4.8739;stroke-linecap:round;stroke-linejoin:round;stroke-miterlimit:10;}
	.st62{fill:none;stroke:#000000;stroke-width:1.2185;stroke-linecap:round;stroke-linejoin:round;stroke-miterlimit:10;}
	.st63{fill:none;stroke:#B0ECFF;stroke-width:4.8739;stroke-miterlimit:10;}
	.st64{fill:none;stroke:#1B2638;stroke-width:4.8739;stroke-linecap:round;stroke-linejoin:round;}
	
		.st65{fill:none;stroke:#1B2638;stroke-width:4.8739;stroke-linecap:round;stroke-linejoin:round;stroke-dasharray:13.9257,13.9257;}
	.st66{fill:none;stroke:#FFFFFF;stroke-width:6.0924;stroke-linecap:round;stroke-linejoin:round;stroke-miterlimit:10;}
	.st67{fill:none;stroke:#1B2638;stroke-width:4.4753;stroke-linecap:round;stroke-linejoin:round;stroke-miterlimit:10;}
	.st68{fill:none;stroke:#FFF27D;stroke-width:11.1884;stroke-linecap:round;stroke-linejoin:round;stroke-miterlimit:10;}
	.st69{fill:none;stroke:#FFFFFF;stroke-width:3.3565;stroke-miterlimit:10;}
	.st70{fill:none;stroke:#65ABE0;stroke-width:4.4753;stroke-miterlimit:10;}
	.st71{fill:none;stroke:#FFFFFF;stroke-width:4.4753;stroke-linecap:round;stroke-linejoin:round;stroke-miterlimit:10;}
	.st72{fill:none;stroke:#1B2638;stroke-width:3.3565;stroke-linecap:round;stroke-linejoin:round;stroke-miterlimit:10;}
	.st73{fill:none;stroke:#FFFFFF;stroke-width:3.3565;stroke-linecap:round;stroke-linejoin:round;stroke-miterlimit:10;}
	.st74{fill:none;stroke:#1B2638;stroke-width:5.0317;stroke-linecap:round;stroke-linejoin:round;stroke-miterlimit:10;}
	.st75{fill:none;stroke:#1B2638;stroke-width:4.4043;stroke-linecap:round;stroke-linejoin:round;stroke-miterlimit:10;}
	.st76{fill:none;stroke:#1B2638;stroke-width:4.9518;stroke-linecap:round;stroke-linejoin:round;stroke-miterlimit:10;}
	.st77{fill:none;stroke:#FFFFFF;stroke-width:4.9518;stroke-linecap:round;stroke-linejoin:round;stroke-miterlimit:10;}
	.st78{fill:none;stroke:#000000;stroke-width:1.1011;stroke-miterlimit:10;}
	.st79{fill:none;stroke:#98DAF4;stroke-width:12.1119;stroke-linecap:round;stroke-linejoin:round;stroke-miterlimit:10;}
	.st80{fill:none;stroke:#FFFFFF;stroke-width:4.4043;stroke-linecap:round;stroke-linejoin:round;stroke-miterlimit:10;}
	.st81{fill:none;stroke:#B6FCFF;stroke-width:4.9518;stroke-linecap:round;stroke-linejoin:round;stroke-miterlimit:10;}
	.st82{fill:none;stroke:#1B2638;stroke-width:15.4151;stroke-linecap:round;stroke-linejoin:round;stroke-miterlimit:10;}
	.st83{fill:none;stroke:#98DAF4;stroke-width:4.4043;stroke-miterlimit:10;}
	.st84{fill:none;stroke:#65ABE0;stroke-width:4.4043;stroke-miterlimit:10;}
	.st85{fill:none;stroke:#FFF27D;stroke-width:14.314;stroke-linecap:round;stroke-linejoin:round;stroke-miterlimit:10;}
	.st86{fill:none;stroke:#FFF27D;stroke-width:4.3371;stroke-linecap:round;stroke-linejoin:round;stroke-miterlimit:10;}
	.st87{fill:none;stroke:#65ABE0;stroke-width:4.3371;stroke-linecap:round;stroke-linejoin:round;stroke-miterlimit:10;}
	.st88{fill:#F9B7D2;}
	.st89{fill:none;stroke:#F299AC;stroke-width:6.5057;stroke-linecap:round;stroke-linejoin:round;stroke-miterlimit:10;}
	.st90{fill:none;stroke:#98DAF4;stroke-width:6.5057;stroke-linecap:round;stroke-linejoin:round;stroke-miterlimit:10;}
	.st91{fill:none;stroke:#98DAF4;stroke-width:3.2528;stroke-miterlimit:10;}
	.st92{fill:none;stroke:#F4D862;stroke-width:8.6743;stroke-linecap:round;stroke-linejoin:round;stroke-miterlimit:10;}
	.st93{fill:none;stroke:#1B2638;stroke-width:5.4214;stroke-linecap:round;stroke-linejoin:round;stroke-miterlimit:10;}
	.st94{fill:none;stroke:#1B2638;stroke-width:4.3371;stroke-linecap:round;stroke-linejoin:round;stroke-miterlimit:10;}
	.st95{fill:#B1F3FC;}
	.st96{fill:none;stroke:#98DAF4;stroke-width:4.3371;stroke-linecap:round;stroke-linejoin:round;stroke-miterlimit:10;}
	.st97{fill:none;stroke:#65ABE0;stroke-width:4.3371;stroke-miterlimit:10;}
	.st98{fill:none;stroke:#1B2638;stroke-width:4.8763;stroke-linecap:round;stroke-linejoin:round;stroke-miterlimit:10;}
	.st99{fill:none;stroke:#1B2638;stroke-width:1.0843;stroke-miterlimit:10;}
	.st100{fill:none;stroke:#FFFFFF;stroke-width:4.3371;stroke-linecap:round;stroke-linejoin:round;stroke-miterlimit:10;}
	.st101{fill:none;stroke:#FFFFFF;stroke-width:5.4643;stroke-linecap:round;stroke-linejoin:round;stroke-miterlimit:10;}
	.st102{fill:none;stroke:#1B2638;stroke-width:4.3714;stroke-linecap:round;stroke-linejoin:round;stroke-miterlimit:10;}
	.st103{fill:none;stroke:#98DAF4;stroke-width:4.3714;stroke-linecap:round;stroke-linejoin:round;stroke-miterlimit:10;}
	.st104{fill:none;stroke:#FFFFFF;stroke-width:4.3714;stroke-linecap:round;stroke-linejoin:round;stroke-miterlimit:10;}
	.st105{fill:none;stroke:#FFF27D;stroke-width:4.3714;stroke-linecap:round;stroke-linejoin:round;stroke-miterlimit:10;}
	.st106{fill:none;stroke:#65ABE0;stroke-width:4.3714;stroke-miterlimit:10;}
	.st107{fill:none;stroke:#000000;stroke-width:1.0929;stroke-miterlimit:10;}
	.st108{fill:none;stroke:#1B2638;stroke-width:22.9499;stroke-linecap:round;stroke-linejoin:round;stroke-miterlimit:10;}
	.st109{fill:none;stroke:#1B2638;stroke-width:12.0214;stroke-miterlimit:10;}
	.st110{fill:none;stroke:#1B2638;stroke-width:17.4857;stroke-linecap:round;stroke-linejoin:round;stroke-miterlimit:10;}
	.st111{fill:none;stroke:#1B2638;stroke-width:4.9148;stroke-linecap:round;stroke-linejoin:round;stroke-miterlimit:10;}
	.st112{fill:none;stroke:#FFFFFF;stroke-width:4.9148;stroke-linecap:round;stroke-linejoin:round;stroke-miterlimit:10;}
	.st113{fill:#CE6E84;}
	.st114{fill:none;stroke:#1B2638;stroke-width:4.5447;stroke-linecap:round;stroke-linejoin:round;stroke-miterlimit:10;}
	.st115{fill:none;stroke:#FFF27D;stroke-width:4.5447;stroke-linecap:round;stroke-linejoin:round;stroke-miterlimit:10;}
	.st116{fill:none;stroke:#B6FCFF;stroke-width:5.6809;stroke-linecap:round;stroke-linejoin:round;stroke-miterlimit:10;}
	.st117{fill:none;stroke:#1B2638;stroke-width:5.1097;stroke-linecap:round;stroke-linejoin:round;stroke-miterlimit:10;}
	.st118{fill:none;stroke:#1B2638;stroke-width:15.9065;stroke-linecap:round;stroke-linejoin:round;stroke-miterlimit:10;}
	.st119{fill:none;stroke:#FFFFFF;stroke-width:4.5447;stroke-linecap:round;stroke-linejoin:round;stroke-miterlimit:10;}
	.st120{fill:none;stroke:#1B2638;stroke-width:5.6809;stroke-linecap:round;stroke-linejoin:round;stroke-miterlimit:10;}
	.st121{fill:none;stroke:#98DAF4;stroke-width:4.5447;stroke-miterlimit:10;}
	.st122{fill:none;stroke:#65ABE0;stroke-width:4.5447;stroke-miterlimit:10;}
	.st123{fill:#F4D862;stroke:#1B2638;stroke-width:4.5447;stroke-linecap:round;stroke-linejoin:round;stroke-miterlimit:10;}
	.st124{fill:#F4D862;stroke:#1B2638;stroke-width:5.1097;stroke-linecap:round;stroke-linejoin:round;stroke-miterlimit:10;}
	.st125{fill:#FFFFFF;stroke:#1B2638;stroke-width:5.1097;stroke-linecap:round;stroke-linejoin:round;stroke-miterlimit:10;}
	.st126{fill:none;stroke:#65ABE0;stroke-width:4.5832;stroke-linecap:round;stroke-linejoin:round;stroke-miterlimit:10;}
	.st127{fill:none;stroke:#1B2638;stroke-width:4.5832;stroke-linecap:round;stroke-linejoin:round;stroke-miterlimit:10;}
	.st128{fill:none;stroke:#65ABE0;stroke-width:4.5832;stroke-miterlimit:10;}
	.st129{fill:none;stroke:#1B2638;stroke-width:5.7289;stroke-linecap:round;stroke-linejoin:round;stroke-miterlimit:10;}
	.st130{fill:none;stroke:#FFFFFF;stroke-width:4.5832;stroke-linecap:round;stroke-linejoin:round;stroke-miterlimit:10;}
	.st131{fill:none;stroke:#1B2638;stroke-width:6.8747;stroke-linecap:round;stroke-linejoin:round;stroke-miterlimit:10;}
	.st132{fill:none;stroke:#1B2638;stroke-width:5;stroke-linecap:round;stroke-linejoin:round;stroke-miterlimit:10;}
	.st133{fill:none;stroke:#EAB853;stroke-width:4;stroke-linecap:round;stroke-linejoin:round;stroke-miterlimit:10;}
	.st134{fill:none;stroke:#FFF985;stroke-width:4;stroke-linecap:round;stroke-linejoin:round;stroke-miterlimit:10;}
	.st135{fill:#E2869E;}
	.st136{fill:none;stroke:#98DAF4;stroke-width:4;stroke-linecap:round;stroke-linejoin:round;stroke-miterlimit:10;}
	.st137{fill:none;stroke:#000000;stroke-miterlimit:10;}
	.st138{fill:none;stroke:#1B2638;stroke-width:21;stroke-linecap:round;stroke-linejoin:round;stroke-miterlimit:10;}
	.st139{fill:none;stroke:#1B2638;stroke-width:11;stroke-miterlimit:10;}
	.st140{fill:none;stroke:#1B2638;stroke-width:16;stroke-linecap:round;stroke-linejoin:round;stroke-miterlimit:10;}
	.st141{fill:none;stroke:#1B2638;stroke-width:4.4972;stroke-linecap:round;stroke-linejoin:round;stroke-miterlimit:10;}
	.st142{fill:none;stroke:#FFFFFF;stroke-width:4.4972;stroke-linecap:round;stroke-linejoin:round;stroke-miterlimit:10;}
	.st143{fill:none;stroke:#65ABE0;stroke-width:4;stroke-linecap:round;stroke-linejoin:round;stroke-miterlimit:10;}
	.st144{fill:none;stroke:#1B2638;stroke-miterlimit:10;}
	.st145{fill:none;stroke:#FFFFFF;stroke-width:5;stroke-linecap:round;stroke-linejoin:round;stroke-miterlimit:10;}
	.st146{fill:none;stroke:#F299AC;stroke-width:7;stroke-linecap:round;stroke-linejoin:round;stroke-miterlimit:10;}
	.st147{fill:none;stroke:#1B2638;stroke-width:7;stroke-linecap:round;stroke-linejoin:round;stroke-miterlimit:10;}
	.st148{fill:none;stroke:#1B2638;stroke-width:15;stroke-linecap:round;stroke-linejoin:round;stroke-miterlimit:10;}
	.st149{fill:#65ABE0;stroke:#1B2638;stroke-width:4;stroke-linecap:round;stroke-linejoin:round;stroke-miterlimit:10;}
	.st150{fill:none;stroke:#B1F3FC;stroke-width:4;stroke-linecap:round;stroke-linejoin:round;stroke-miterlimit:10;}
	.st151{fill:none;stroke:#F299AC;stroke-width:3;stroke-linecap:round;stroke-linejoin:round;stroke-miterlimit:10;}
	.st152{fill:none;stroke:#1B2638;stroke-width:6;stroke-linecap:round;stroke-linejoin:round;stroke-miterlimit:10;}
	.st153{fill:none;stroke:#FFF27D;stroke-width:5;stroke-linecap:round;stroke-linejoin:round;stroke-miterlimit:10;}
	.st154{fill:none;stroke:#FFF27D;stroke-width:6;stroke-linecap:round;stroke-linejoin:round;stroke-miterlimit:10;}
	.st155{fill:none;stroke:#F299AC;stroke-width:4;stroke-linecap:round;stroke-linejoin:round;stroke-miterlimit:10;}
	.st156{fill:none;stroke:#98DAF4;stroke-width:7;stroke-linecap:round;stroke-linejoin:round;stroke-miterlimit:10;}
	.st157{fill:none;stroke:#1B2638;stroke-width:14;stroke-linecap:round;stroke-linejoin:round;stroke-miterlimit:10;}
	.st158{fill:none;stroke:#FFFFFF;stroke-width:4;stroke-linecap:round;stroke-linejoin:round;stroke-dasharray:11.9734,11.9734;}
	.st159{fill:#B0ECFF;stroke:#1B2638;stroke-width:4;stroke-linecap:round;stroke-linejoin:round;stroke-miterlimit:10;}
	.st160{fill:#B1F3FC;stroke:#1B2638;stroke-width:4;stroke-linecap:round;stroke-linejoin:round;stroke-miterlimit:10;}
	.st161{fill:none;stroke:#F4D862;stroke-width:4;stroke-linecap:round;stroke-linejoin:round;stroke-miterlimit:10;}
	.st162{fill:#FFF27D;stroke:#1B2638;stroke-width:4;stroke-linecap:round;stroke-linejoin:round;stroke-miterlimit:10;}
	.st163{fill:none;stroke:#FFFFFF;stroke-width:7;stroke-linecap:round;stroke-linejoin:round;stroke-miterlimit:10;}
	.st164{fill:none;stroke:#F4D862;stroke-width:7;stroke-linecap:round;stroke-linejoin:round;stroke-miterlimit:10;}
</style>
<g>
	<g>
		<polygon class="st1" points="1819.8,493.6 1756.9,597.6 1682.7,720.5 1649.7,774.9 1646.7,779.9 1623.7,817.9 1623.7,817.9 
			1623.7,817.9 1622.9,819.4 1622.4,820.1 1621.4,821.8 1501.9,1019.6 1456.1,1095.3 1236.4,1458.7 1102.6,1451.3 1036.4,1447.6 
			1032.1,1447.4 979.6,1444.4 979.6,1444.4 969.7,1443.9 935.6,1442 628.5,1424.9 645.2,1310.3 650.7,1272.3 651.3,1267.9 
			661.5,1198.3 716.4,820.4 905.2,764.5 909.3,763.3 1066,716.9 1074.8,714.2 1590,561.7 1594,560.5 1644.9,545.4 1674.2,536.7 		
			"/>
		<g>
			<polygon class="st2" points="979.6,1444.5 969.7,1443.9 724.4,1312 650.7,1272.3 651.3,1267.9 729,1309.7 979.6,1444.4 			"/>
			<polygon class="st2" points="909.3,763.3 1036.4,1447.6 1032.1,1447.4 905.2,764.5 			"/>
			<polygon class="st2" points="1074.8,714.2 1623.7,817.9 1621.4,821.8 1066,716.9 			"/>
			<polygon class="st2" points="1649.7,774.9 1646.7,779.9 1590,561.7 1594,560.5 			"/>
		</g>
	</g>
	<polygon class="st1" points="2175.8,1749.6 1940.5,1689.7 1934.6,1688.2 1894.2,1677.9 1889.6,1676.7 1627,1609.9 1590.4,1600.5 
		1503.6,1578.5 1455.9,1566.3 1363.2,1542.7 1475.7,1325.8 1478.2,1320.9 1602.3,1081.7 1763.2,1269 1766.5,1272.8 1850.6,1370.9 
		1855.8,1376.9 2057.1,1611.3 2060,1614.7 	"/>
	<g>
		<path class="st2" d="M1763.2,1269l3.3,3.9c-76.9,14-199.8,36.4-290.8,53l2.5-4.9C1567.8,1304.5,1686.9,1282.9,1763.2,1269z"/>
		<polygon class="st2" points="1855.8,1376.9 1894.2,1677.9 1889.6,1676.7 1850.6,1370.9 		"/>
		<polygon class="st2" points="2060,1614.7 1940.5,1689.7 1934.6,1688.2 2057.1,1611.3 		"/>
	</g>
	<path class="st3" d="M775.9,1764.1c-222.8,290.9-566.4,84.5-566.4,84.5s158.1-184.4,290.9-241.5c132.8-57.1,207.5,0,207.5,0
		l3.3,7.7l59,136.2L775.9,1764.1z"/>
	<polygon class="st0" points="846.4,1739.1 830,1746.7 798.8,1761.1 795.5,1762.6 715.7,1589.7 741.2,1578 766.6,1566.2 	"/>
	<polygon class="st18" points="830,1746.7 798.8,1761.1 741.2,1578 	"/>
	<path class="st5" d="M1738.9,1427.7c0,0-63.9,114.8-111.9,182.2l-36.7-9.3l-86.7-22.1l-47.8-12.2c2.5-4.5,5.6-9.1,9.4-14
		C1507,1498.5,1738.9,1427.7,1738.9,1427.7z"/>
	<path class="st0" d="M828.1,1766.4l-94.1-204c-6.7-14.4-0.4-31.5,14.1-38.2l24.7-11.4L891,1769.1l-24.7,11.4
		C851.9,1787.1,834.8,1780.8,828.1,1766.4z"/>
	<path class="st5" d="M905.4,1169.2l-25.2,65.9L729,1309.7l-4.6,2.3l-15.5,7.6l-63.8-9.3l5.5-38l0.6-4.4l10.1-69.6
		c24.9-10.5,56.5-21.1,93.6-29.1c92.2-19.8,147.1-2.2,147.1-2.2L905.4,1169.2z"/>
	<path class="st4" d="M1353.3,1004.6c0,0,68.1,64.8,93.3,75.7s157,46.1,157,46.1l25.2-59.3l-98.8-47.2
		C1530,1019.9,1359.9,979.3,1353.3,1004.6z"/>
	<path class="st10" d="M1127,1245.8c0,0-25.1,38.4-61.6,82.8c-64.5,78.4-164.6,175.8-225.7,115.1c-28.9-28.8-69.1-44.2-111-51.8
		c-96.8-17.5-203.3,6.9-203.3,6.9l244.2-190c60.9-47.4,142.9-57.6,213.6-26.5L1127,1245.8z"/>
	<path class="st45" d="M1353.3,1004.6c0,0,68.1,64.8,93.3,75.7s157,46.1,157,46.1l25.2-59.3l-98.8-47.2
		C1530,1019.9,1359.9,979.3,1353.3,1004.6z"/>
	<path class="st10" d="M1324,1672.8l-45.2,150.6c-22.2,73.9-83.1,129.8-158.7,145.4l-303,62.6c0,0,80-59.4,130.3-138.8
		c25.2-39.8,42.9-84.6,39.5-129.5c-1.5-19.7,4.6-35.5,16.2-48.3C1070.8,1640.4,1324,1672.8,1324,1672.8z"/>
	<path class="st12" d="M1083.8,1285l-18.5,43.6c-64.5,78.4-164.6,175.8-225.7,115.1c-28.9-28.8-69.1-44.2-111-51.8
		C842.9,1337.3,1083.8,1285,1083.8,1285z"/>
	<path class="st46" d="M1292.3,1778.4l-13.5,45c-22.2,73.9-83.1,129.8-158.7,145.4l-51.6,10.7"/>
	<path class="st12" d="M1095.9,1690.4l178.8,4c-5.1,5-160.3,155.4-327.3,198.1c25.2-39.8,42.9-84.6,39.5-129.5
		c-1.5-19.7,4.6-35.5,16.2-48.3C1039.4,1702.3,1095.9,1690.4,1095.9,1690.4z"/>
	<path class="st3" d="M1902.8,1286c-122.6,128.5-351.7,282-564.6,380.3c-25.5,11.8-52.7,23.7-80.9,35.3
		c-53.2,22-109.6,43.3-164.1,61.5c-19.7,6.6-39.2,12.9-58.2,18.6c-31.8,9.6-62.2,17.9-90.1,24.4c-27.8,6.4-56.4-7.5-68.3-33.4
		l-29.7-64.3l-26.8-58.1l-59.5-128.9c-12-25.9-4-56.7,18.9-73.7c76.2-56.4,186.1-121.2,289-173.3c24.8-12.6,49.1-24.4,72.5-35.2
		c212.9-98.3,478.3-173.1,655.7-182.9c99.1-5.5,170.8,9.2,190.3,51.5C2006.6,1150.1,1971.3,1214.1,1902.8,1286z"/>
	<path class="st47" d="M1133.2,1684.6c0,0-19.1,42.2-40,78.6c-19.7,6.6-39.2,12.9-58.2,18.6c-6.4-36.6-4.1-87.5-4.1-87.5
		C1049.5,1688.6,1133.2,1684.6,1133.2,1684.6z"/>
	<path class="st0" d="M1902.8,1286c-122.6,128.5-351.7,282-564.6,380.3c-25.5,11.8-52.7,23.7-80.9,35.3
		c-108.7-132.2-159.2-291-182.1-394.7c-2.5-11.5-4.8-22.4-6.7-32.5c24.8-12.6,49.1-24.4,72.5-35.2c6.6-3,13.2-6,19.8-9
		c115.3-51.6,244.2-96.2,365.6-127.5c42-10.8,83.1-20,122.3-27.4c53.4-10,103.4-16.6,147.9-19c99.1-5.5,170.8,9.2,190.3,51.5
		C2006.6,1150.1,1971.3,1214.1,1902.8,1286z"/>
	<path class="st3" d="M1139.2,1667.5c0,0-29.6,14.3-41.7,17.6s-45,20.9-47.2,25.2c-2.2,4.4-3.3,0-3.3,0l32.9,60.4l13.2-4.4
		l60.4,81.2l103.2,41.7c0,0,29.6-8.8,13.2-25.2c-16.5-16.5-54.9-83.4-49.4-128.4C1226,1690.6,1139.2,1667.5,1139.2,1667.5z"/>
	<path class="st4" d="M1261.1,1671.9v34l-3.4,2.4l-37.3,27.2c-56,1.1-81.2-68.1-81.2-68.1l22.4-20.5l43.5-39.8l54.4,62.9
		L1261.1,1671.9z"/>
	<path class="st4" d="M1331.3,721.4l-2.3,31.8l-2.1,28.6l-103.2-35.1c17.6-17.6,35.1-74.6,35.1-74.6l18.7-2.2l31.3,10.8l0.6,0.2
		L1331.3,721.4z"/>
	<path class="st11" d="M1380.7,583c0,0,13.2-17.6,4.4-30.7c0,0,4.4-30.7-13.2-50.5c-17.6-19.8-32.9-15.4-53.8-7.7
		s-47.2-5.5-57.1,15.4c-9.9,20.9-68.1,50.5-54.9,79c13.2,28.5-9.9,27.4,8.8,42.8s52.7,14.3,56,14.3
		C1274.3,645.6,1380.7,583,1380.7,583z"/>
	<path class="st13" d="M1331.3,721.4l-2.3,31.8c-57.7-5.6-54.5-62.4-54.5-62.4s18.6-7.6,34.3-10.2l0.6,0.2L1331.3,721.4z"/>
	<path class="st45" d="M1328.9,755.6l2.5-34.3l-22-40.6l-31.8-11l-18.7,2.2c0,0-6.6,21.6-15.8,42.3"/>
	<polygon class="st1" points="1615.1,1767.5 1587.2,1708.3 1651.9,1754.5 1716.5,1800.7 1637.1,1799.7 1557.6,1798.7 	"/>
	<polygon class="st1" points="811.4,626 747.2,613.2 822.8,588.7 898.4,564.1 850.4,627.4 802.3,690.7 	"/>
	<polygon class="st4" points="1549.9,732.5 1565.1,778.2 1521.9,738.8 1478.6,699.4 1536.6,707.1 1594.6,714.7 	"/>
	<circle class="st48" cx="1794.9" cy="887.2" r="33.8"/>
	<circle class="st49" cx="1015.9" cy="853.2" r="33.8"/>
	<g>
		<circle class="st11" cx="1169.6" cy="482.3" r="21"/>
		<circle class="st11" cx="1202.7" cy="519.6" r="10.6"/>
	</g>
	<g>
		<g>
			<path class="st50" d="M1348.6,1887.1c0,0-0.3,2.6-1.1,7"/>
			<path class="st51" d="M1344.4,1908.5c-11.7,46.5-53.5,150.9-191.6,130.6"/>
			<path class="st50" d="M1145.5,2038c-2.3-0.4-4.6-0.8-7-1.3"/>
		</g>
	</g>
	<g>
		<g>
			<path class="st50" d="M762.6,1143.7c0,0-2.4-0.8-6.8-2"/>
			<path class="st51" d="M741.4,1138.4c-47-9.3-159.3-15.9-199.8,117.6"/>
			<path class="st50" d="M539.6,1263.1c-0.6,2.2-1.2,4.5-1.8,6.9"/>
		</g>
	</g>
	<polygon class="st45" points="2058.6,1396.4 2048.3,1443.4 2031.4,1387.4 2014.4,1331.5 2060.3,1367.7 2106.2,1404 	"/>
	<circle class="st11" cx="1446.1" cy="1357.5" r="141.1"/>
	<path class="st13" d="M1266.6,1708.2c0,0-3.4,0.3-8.8,0.3c-12.2-0.1-35.1-2.1-54.8-13.4c-17.3-10-32.2-32.1-41.3-48l43.5-39.8
		l54.4,62.9c0.6,2.2,1.1,4.4,1.6,6.5C1265.2,1694.4,1266.6,1708.2,1266.6,1708.2z"/>
	<circle class="st4" cx="1446.1" cy="1357.5" r="89.6"/>
	<path class="st18" d="M1346.7,1378.9c-5.5,3.3-206.4-15.4-256.9-56c-6.1-4.9-10.9-10.3-14.6-16c-2.5-11.5-4.8-22.4-6.7-32.5
		c24.8-12.6,49.1-24.4,72.5-35.2c6.6-3,13.2-6,19.8-9L1346.7,1378.9z"/>
	<path class="st4" d="M1382.6,625.8c-2.7,17.6-11.6,86.4-21.3,105.9c0,0-48,4.2-67-15.6c-19-19.8-38.1-55.2-38.1-55.2
		s3.3-23.1,6.5-43.7v0c0.2-1.4,0.4-2.7,0.6-4c2.2-13.8,4.1-25.6,4.8-27.1c0.9-1.9,6.8-9.8,12.3-17.1c5.3-7,10.4-13.4,10.4-13.4
		s0.6-9.4,39.6-6.3c3.1,0.3,6.1,0.6,8.8,1c0,0,0,0,0,0c31.9,4.8,41.1,20,41.1,20s1.1,8.5,2,19.3c0,0.4,0.1,0.9,0.1,1.3
		C1383.4,602.7,1384,616.9,1382.6,625.8z"/>
	<path class="st45" d="M1327.5,681.9c0,0,3.1,10.2,23.7,12"/>
	<path class="st4" d="M1711.1,1052.4c0,0,41.1-15,45.4-14.7c4.3,0.3,39,2.3,39,2.3l19.4,9.7c0,0,3,2.7-3.4,2.6
		c-6.4,0-70.6,2.2-77.4,2.9S1711.1,1052.4,1711.1,1052.4z"/>
	
		<ellipse transform="matrix(0.9938 -0.111 0.111 0.9938 -64.3961 148.5828)" class="st1" cx="1302.4" cy="652.7" rx="11.1" ry="6.5"/>
	<path class="st45" d="M1341.9,731.8c-15.5-0.8-36.5-4.2-47.6-15.7c-19-19.8-38.1-55.2-38.1-55.2s10.2-71.1,11.9-74.8
		c1.7-3.7,22.7-30.5,22.7-30.5s0.6-9.4,39.6-6.3"/>
	<path class="st0" d="M1377.6,618.2c0,0-10.8,30.6-11.1,46.8c-0.1,3.1,2.1,5.8,5.1,6.4c5.2,1.2,14.7,1.9,16.6-6.4
		C1391,652.7,1377.6,618.2,1377.6,618.2z"/>
	<path class="st13" d="M1382.4,589.6c-3.3,2.5-8.3,4.4-15.9,4.4c-24.1,0-46.1-11-57.1,8.8c-11,19.8-29.6,24.1-37.3,19.8
		c-4.1-2.3-6.9-6.2-8.7-9.4c-1.5-2.7-2.3-4.9-2.3-4.9s-20.9-18.7,11-35.1c2.8-1.4,5.6-2.8,8.4-4.1c29.4-13.4,58.8-18.7,58.8-18.7
		s0,0,0,0c31.9,4.8,41.1,20,41.1,20S1381.5,578.8,1382.4,589.6z"/>
	<path class="st4" d="M1272.5,676.4c-0.8,4.5-2.7,7.7-5.7,9c-7.7,3.3-19.7-7.8-26.8-24.6c-7.1-16.8-6.7-33.1,1-36.4
		c4.1-1.7,9.4,0.6,14.6,5.7"/>
	<path class="st45" d="M1271.9,678.8c-1,3.2-2.7,5.5-5.1,6.5c-7.7,3.3-19.7-7.8-26.8-24.6c-7.1-16.8-6.7-33.1,1-36.4
		c4.1-1.7,9.4,0.6,14.6,5.7"/>
	<path class="st5" d="M1296.2,1160.4c-1.1,0-38.4,2.2-85.6-6.6c-35.8-6.7-83.5,15-111.2,24.5c6.5-31.2,15.7-56.4,15.7-56.4
		c25.6-27.3,136-9.4,178.6-1.2c8.2,3.8,13.8,7.4,14.6,10C1311.6,1141.8,1296.2,1160.4,1296.2,1160.4z"/>
	<path class="st1" d="M1592.6,1536.9c-16.5,13.2-324.9,183.3-324.9,183.3c-125.1-61.5-54.9-212.9-54.9-212.9
		c6.6,13.2,43.9,32.9,43.9,32.9l128.2-84.5l20-13.2c0,0-12-5.6-31.1-14.8c0,0,0,0,0,0c-68.2-32.8-227.7-110.8-262-139.9
		c-23.5-20-20.9-66.2-13.4-104.7c0.3-1.6,0.6-3.2,0.9-4.7c6.5-31.2,15.7-56.4,15.7-56.4c25.6-27.3,136-9.4,178.6-1.2
		c5.6,1.1,10,2,12.9,2.6c2.5,0.5,3.9,0.8,3.9,0.8s298.6,283.2,313.9,315C1639.8,1471.1,1609.1,1523.8,1592.6,1536.9z"/>
	<path class="st45" d="M1212.8,1507.3c6.6,13.2,43.9,32.9,43.9,32.9l70.1-46.2"/>
	<path class="st5" d="M1319.8,1163.4c0,0-26.9,28.8-67.5,20.1c-33.5-7.2-108.8-22-153.9-0.4c0.3-1.6,0.6-3.2,0.9-4.7
		c6.5-31.2,15.7-56.4,15.7-56.4c25.6-27.3,136-9.4,178.6-1.2c5.6,1.1,10,2,12.9,2.6C1318.2,1145.1,1319.8,1163.4,1319.8,1163.4z"/>
	<path class="st10" d="M1369.8,929.9c0,34-9.3,112.8-16.3,167.7c-4.3,33.7-7.8,58.4-7.8,58.4s-12.1,6.6-54.9,12.1
		s-57.1-22-95.5-43.9c-38.4-22-84.5,19.8-93.3,14.3c-8.8-5.5,12.1-17.6,5.5-28.5s-11-20.9,7.7-50.5c18.7-29.6,7.7-176.7,20.9-228.3
		c13.2-51.6,95.6-94.7,95.6-94.7l95.4,45.3c0,0,34,74.1,41.4,129.1C1369.3,917.5,1369.8,923.9,1369.8,929.9z"/>
	<path class="st12" d="M1369.8,929.9c0,34-9.3,112.8-16.3,167.7c-81.8-42.5-97.8-194.9-97.8-194.9l112.8,8.1
		C1369.3,917.5,1369.8,923.9,1369.8,929.9z"/>
	<path class="st45" d="M1345.6,1156c0,0,263.4,251.4,278.8,283.2c15.4,31.8-15.4,84.5-31.8,97.7c-11.6,9.3-169.1,97-260.5,147.7"/>
	<path class="st45" d="M1324,1403.5c-76.9-37.7-184.7-92.4-212.2-115.8c-24.5-20.8-20.6-70-12.4-109.4c6.5-31.2,10.2-41,10.2-41"/>
	<path class="st45" d="M1190.8,1620.3l-51.6,47.2c0,0,25.2,69.2,81.2,68.1l27.4-18.7"/>
	<path class="st18" d="M1680.4,1108.8c0,0-62.6,24.1-153.9-6.1c42-10.8,83.1-20,122.3-27.4
		C1662.8,1086.5,1680.4,1108.8,1680.4,1108.8z"/>
	<path class="st3" d="M1969.1,1202.1c-15.4,26-38,54.3-66.3,83.9c-39.5-20.2-72.7-53.2-92.7-96.6c-20-43.4-23.6-90.1-13.3-133.2
		c36.1-2,68.6-1.3,96.2,2.4c48.2,6.5,81.6,22.3,94,49.1C1998.5,1132.6,1991.1,1165,1969.1,1202.1z"/>
	<path class="st45" d="M1711.1,1052.4c0,0,41.1-15,45.4-14.7c4.3,0.3,39,2.3,39,2.3l19.4,9.7c0,0,3,2.7-3.4,2.6
		c-6.4,0-70.6,2.2-77.4,2.9S1711.1,1052.4,1711.1,1052.4z"/>
	<path class="st4" d="M1729.6,1052.5c0,0,44.6-1.6,49.2-1.7c4.6-0.1,26.7-0.5,26.7-0.5l34.4,8.8c0,0,5.2,8.5-4.7,7.5
		c-9.9-0.9-16.6-2.8-32.9-4.1c-16.3-1.3-42,0.7-42,0.7s-17.7,3.6-21.8,1.9S1722.2,1057,1729.6,1052.5z"/>
	<path class="st4" d="M1768.9,1062.6l40-2.6l33.4,7c0,0,6.6,7.9-6.8,7.1c-13.5-0.8-30.9-1.8-30.9-1.8l-15.3,5.8l-47.3,0
		c0,0-13.2,0.6-11.5-3.9C1732.1,1069.7,1768.9,1062.6,1768.9,1062.6z"/>
	<path class="st4" d="M1790.3,1077.7c0,0-3.4,5.2-0.3,6.5c3.1,1.3,15.7-0.1,15.7-0.1l35.4,3.5c0,0,6.2,9.3-4.2,10.8
		c-10.4,1.5-48.4-0.8-49.1-0.8c-0.7,0-43.3,15.2-55.4,15.2c-12.1,0-72.7-4.3-72.7-4.3s-10.4-46.9,1.8-59.3c0,0,40.2-0.6,62.8-1.7
		c22-1.1,47.5,25.8,47.5,25.8L1790.3,1077.7z"/>
	<path class="st45" d="M1198.5,1169.2c0,0-3.3,35.1-53.8,38.4"/>
	<path class="st11" d="M1381,549.7c9.5,18-6.8,39.1-26.4,33.7c-0.4-0.1-0.8-0.2-1.3-0.4c-24.1-7.7-42.2-8.9-50.2,6
		c-8,14.9-27.8,57.7-46.4,34.6c-18.7-23.1,6.6-56,6.6-56s8.8-22,26.3-31.8c17.6-9.9,74.6-9.9,80.1-4.4
		C1372.5,534.2,1377.1,542.2,1381,549.7z"/>
	<path class="st45" d="M1127.2,968.2c-1.3,41.2-3.7,77.9-12.1,91.2c-18.7,29.6-14.3,39.5-7.7,50.5s-14.3,23.1-5.5,28.5
		c8.8,5.5,54.9-36.2,93.3-14.3c38.4,22,52.7,49.4,95.5,43.9s54.9-12.1,54.9-12.1s24.1-171.2,24.1-226.1S1327,781.7,1327,781.7
		l-95.4-45.3c0,0-82.4,43.1-95.6,94.7c-1.9,7.5-3.3,17-4.4,27.9"/>
	<path class="st4" d="M1700.2,1060.5l-19.8,48.3l-22,1.1l-195.7-53.5c-15.7-3.8-30.4-10.7-43.3-20.4l-48.9-36.8l-55.6-41.8
		l82.3-59.3l29.5,27.8l47.3,44.6L1700.2,1060.5z"/>
	<polygon class="st5" points="1227.8,738.5 1238.8,723.3 1274.5,738.7 1317.5,757.1 1339,766.4 1327,781.7 	"/>
	<path class="st13" d="M1426.7,925.9c0,2.2-0.6,20.9-29.5,27.1c-18.8,4-24.8,28.1-26.7,46.2l-55.6-41.8l82.3-59.3L1426.7,925.9z"/>
	<path class="st10" d="M1410.4,889.3c0,0-91.4-122-125.3-127.4c-33.9-5.4-81.1,42.9-64.6,89C1236.9,897,1331.3,976,1331.3,976
		s-4.4-28.5,24.1-32.9C1384,938.7,1417,928.8,1410.4,889.3z"/>
	<polyline class="st52" points="1217.1,831.9 1309.4,775.8 1263.3,911.2 1384.8,856.6 1360.4,942.3 	"/>
	<path class="st45" d="M1410.4,889.3c0,0-91.4-122-125.3-127.4c-33.9-5.4-81.1,42.9-64.6,89C1236.9,897,1331.3,976,1331.3,976
		s-4.4-28.5,24.1-32.9C1384,938.7,1417,928.8,1410.4,889.3z"/>
	<path class="st45" d="M1659.5,1108.8l-196.8-52.4c-15.7-3.8-30.4-10.7-43.3-20.4l-88-63.2"/>
	<polyline class="st45" points="1411.5,911.2 1474,970.5 1661.7,1049.6 	"/>
	<path class="st45" d="M1752.7,1051.6c11.7-0.4,23.8-0.8,26.2-0.9c4.6-0.1,26.7-0.5,26.7-0.5l34.4,8.8c0,0,5.2,8.5-4.7,7.5
		c-9.9-0.9-16.6-2.8-32.9-4.1c-16.3-1.3-42,0.7-42,0.7"/>
	<path class="st45" d="M1768.9,1062.6l40-2.6l33.4,7c0,0,6.6,7.9-6.8,7.1c-13.5-0.8-30.9-1.8-30.9-1.8l-15.3,5.8"/>
	<path class="st45" d="M1790.3,1077.7c0,0-3.4,5.2-0.3,6.5c3.1,1.3,15.7-0.1,15.7-0.1l35.4,3.5c0,0,6.2,9.3-4.2,10.8
		c-10.4,1.5-48.4-0.8-49.1-0.8c-0.7,0-43.3,15.2-55.4,15.2c-12.1,0-72.9-4-72.9-4"/>
	<path class="st45" d="M1661.7,1049.4c0,0,46.4,2,68.4-3.7"/>
	<line class="st45" x1="1078.9" y1="1708.2" x2="1112.9" y2="1761.9"/>
	<path class="st47" d="M770.2,1751c-148.4,165.8-362,37.5-362,37.5s105.4-122.9,193.9-161c48.7-20.9,85.7-18.8,109.1-12.7
		L770.2,1751z"/>
	<polyline class="st53" points="1112.9,1740 1210.6,1754.3 1171.1,1813.5 1236.9,1823.4 1236.9,1848.7 	"/>
	<path class="st5" d="M1384.9,1455.7l20-13.2c0,0-12-5.6-31.1-14.8c0.8,0,43.3,0.7,57.4,11.5
		C1443.5,1448.7,1404.3,1456.5,1384.9,1455.7z"/>
	<line class="st45" x1="1391.7" y1="1201.9" x2="1587.2" y2="1395.7"/>
	
		<ellipse transform="matrix(0.5776 -0.8163 0.8163 0.5776 -542.8501 1901.85)" class="st4" cx="1566.2" cy="1475.5" rx="15.4" ry="43.9"/>
	<path class="st45" d="M1120.5,1676.2c0,0-65.7,19.9-73.4,32l31.8,62.6"/>
	<path class="st46" d="M1795,1142.9c0,0,18.2,105.3,108.2,142.7"/>
	<path class="st46" d="M1045.9,1286c0,0-228.2,120.3-258.1,155.7"/>
	<path class="st12" d="M1279.3,1694.5l-4.6-0.1c0.1-0.1,0.1-0.1,0.1-0.1L1279.3,1694.5z"/>
	<polygon class="st47" points="998.8,1597.2 847,1708.4 820.2,1650.3 	"/>
	<path class="st12" d="M755.4,1699.7l-47.6-1.5l29.7-37.2l294.3-148.1c16.4-8.3,36.4-1.3,44.1,15.4l0,0c7.7,16.7,0,36.4-16.9,43.5
		L755.4,1699.7z"/>
	<line class="st46" x1="1016.1" y1="1589.9" x2="815.2" y2="1667.5"/>
	<path class="st46" d="M1089.4,1363.9c0,0,39.5,138,71.5,187.9"/>
	<path class="st45" d="M1193.6,1594.2c0,0-2.7,93.1,73,126.1"/>
	<path class="st46" d="M868.9,1166.7c0,0-73.4,8.3-186.9,110.2"/>
	<path class="st46" d="M602.8,1582.1c0,0-118.3,1.1-236,112.4"/>
	
		<ellipse transform="matrix(0.9209 -0.3899 0.3899 0.9209 -398.6675 279.4167)" class="st3" cx="488.9" cy="1121.7" rx="32.2" ry="52.2"/>
	
		<ellipse transform="matrix(0.1827 -0.9832 0.9832 0.1827 -1258.5925 1617.6488)" class="st3" cx="343.6" cy="1565.8" rx="32.2" ry="52.2"/>
	
		<ellipse transform="matrix(0.9209 -0.3899 0.3899 0.9209 -435.9403 273.9235)" class="st0" cx="456.7" cy="1210.8" rx="10.7" ry="17.4"/>
	
		<ellipse transform="matrix(0.4353 -0.9003 0.9003 0.4353 395.0295 2257.0881)" class="st0" cx="1996.8" cy="813.6" rx="52.2" ry="32.2"/>
	
		<ellipse transform="matrix(0.9209 -0.3899 0.3899 0.9209 -206.7214 830.8268)" class="st3" cx="1943.1" cy="924.6" rx="10.7" ry="17.4"/>
	
		<ellipse transform="matrix(0.9209 -0.3899 0.3899 0.9209 -756.8859 333.9922)" class="st3" cx="444.2" cy="2031.3" rx="10.7" ry="17.4"/>
	<polyline class="st45" points="1317.5,757.1 1339,766.4 1327,781.7 1227.8,738.5 1238.8,723.3 1274.5,738.7 	"/>
	<path class="st54" d="M1769.3,1216.4c3.3,4.4,48.3,73.5,0,69.2c-48.3-4.4-104.3-56-97.7,12.1"/>
</g>
</svg>
