<svg xmlns="http://www.w3.org/2000/svg" width="973" height="50" fill="none" viewBox="0 0 973 210"><g id="HACKONAUT"><path fill="#000" d="M97.4016 3.36612V150.634H64.0874V96.3552H33.3142V209.5H0V15.3661C0 8.7387 5.37258 3.36612 12 3.36612H33.3142V55.541H64.0874V3.36612H97.4016Z"/><path fill="#000" d="M180.787 124.967H143.238L136.604 150.634H102.725L145.92 3.36612H178.67L221.865 150.634H187.422L180.787 124.967ZM171.612 89.2022L162.013 52.1749L152.414 89.2022H171.612Z"/><path fill="#000" d="M276.904 154C266.458 154 257.047 150.774 248.672 144.322C240.296 137.73 233.709 128.614 228.909 116.973C224.204 105.191 221.851 91.867 221.851 77C221.851 62.133 224.204 48.8789 228.909 37.2377C233.709 25.4563 240.296 16.3397 248.672 9.88798C257.047 3.29599 266.458 0 276.904 0C286.503 0 295.067 2.52459 302.596 7.57378C310.124 12.6229 316.335 19.9162 321.229 29.4535L300.196 57.4344C294.079 45.9335 286.88 40.1831 278.598 40.1831C271.634 40.1831 266.035 43.5492 261.8 50.2814C257.565 56.8734 255.448 65.7796 255.448 77C255.448 88.2204 257.565 97.1967 261.8 103.929C266.035 110.521 271.634 113.817 278.598 113.817C286.88 113.817 294.079 108.066 300.196 96.5656L321.229 124.546C316.335 134.084 310.124 141.377 302.596 146.426C295.067 151.475 286.503 154 276.904 154Z"/><path fill="#000" d="M371.079 101.825L363.597 114.238V150.634H330.848V3.36612H363.597V56.8033L396.064 3.36612H432.343L392.818 68.1639L434.319 150.634H395.782L371.079 101.825Z"/><path fill="#000" d="M487.009 154C476.375 154 466.823 150.704 458.353 144.112C449.883 137.52 443.249 128.403 438.449 116.762C433.65 104.981 431.25 91.7268 431.25 77C431.25 62.2732 433.65 49.0893 438.449 37.4481C443.249 25.6667 449.883 16.48 458.353 9.88798C466.823 3.29599 476.375 0 487.009 0C497.643 0 507.195 3.29599 515.665 9.88798C524.134 16.48 530.769 25.6667 535.569 37.4481C540.368 49.0893 542.768 62.2732 542.768 77C542.768 91.7268 540.368 104.981 535.569 116.762C530.769 128.403 524.134 137.52 515.665 144.112C507.195 150.704 497.643 154 487.009 154ZM487.009 113.817C491.15 113.817 494.867 112.344 498.161 109.399C501.549 106.313 504.231 102.036 506.207 96.5656C508.183 90.9554 509.171 84.4335 509.171 77C509.171 69.5665 508.183 63.1147 506.207 57.6448C504.231 52.0346 501.549 47.7568 498.161 44.8115C494.867 41.7259 491.15 40.1831 487.009 40.1831C482.868 40.1831 479.104 41.7259 475.716 44.8115C472.422 47.7568 469.787 52.0346 467.811 57.6448C465.835 63.1147 464.847 69.5665 464.847 77C464.847 84.4335 465.835 90.9554 467.811 96.5656C469.787 102.036 472.422 106.313 475.716 109.399C479.104 112.344 482.868 113.817 487.009 113.817Z"/><path fill="#000" d="M652.261 3.36612V150.634H624.875L587.326 83.7322V150.634H554.859V3.36612H582.245L619.794 70.2677V3.36612H652.261Z"/><path fill="#000" d="M735.647 124.967H698.098L691.463 150.634H657.584L700.78 3.36612H733.529L776.725 150.634H742.281L735.647 124.967ZM726.471 89.2022L716.872 52.1749L707.273 89.2022H726.471Z"/><path fill="#000" d="M827.263 154C812.111 154 800.301 147.899 791.831 135.697C783.361 123.495 779.127 106.383 779.127 84.3634V3.36612H812.441V82.8907C812.441 93.6903 813.711 101.545 816.252 106.454C818.887 111.362 822.651 113.817 827.545 113.817C832.439 113.817 836.156 111.362 838.697 106.454C841.332 101.545 842.649 93.6903 842.649 82.8907V3.36612H875.399V84.3634C875.399 106.383 871.164 123.495 862.694 135.697C854.225 147.899 842.414 154 827.263 154Z"/><path fill="#000" d="M910.748 41.8661H881.81V3.36612H973V41.8661H944.062V197.5C944.062 204.127 938.689 209.5 932.062 209.5H910.748V41.8661Z"/></g></svg>